<?xml version="1.0" encoding="UTF-8"?>
<svg width="12px" height="12px" viewBox="0 0 12 12" version="1.1" xmlns="http://www.w3.org/2000/svg" xmlns:xlink="http://www.w3.org/1999/xlink">
    <!-- Generator: Sketch 52.5 (67469) - http://www.bohemiancoding.com/sketch -->
    <title>Element/Cohort </title>
    <desc>Created with Sketch.</desc>
    <g id="Element/Cohort-" stroke="none" stroke-width="1" fill="none" fill-rule="evenodd">
        <path d="M6.0743504,2.51144862 C6.61583575,2.26376227 7.2227128,2.125 7.86363636,2.125 C10.1480869,2.125 12,3.8878788 12,6.0625 C12,8.2371212 10.1480869,10 7.86363636,10 C7.04523512,10 6.28234662,9.77374849 5.64023146,9.3833685 C5.06928909,9.66647794 4.42025961,9.82651034 3.7319648,9.82651034 C1.44751425,9.82651034 -2.05687099e-13,8.06363155 -2.05553942e-13,5.88901034 C-2.05420785e-13,3.71438914 1.64971366,1.92613636 3.93416422,1.92613636 C4.65390851,1.92613636 5.31064611,2.10364596 5.87263419,2.41482202 C5.49434335,2.63172923 5.15554399,2.91510204 4.87045824,3.25 L6.90286239,3.25 C7.18954977,3.58042408 7.42007419,3.96028607 7.58387527,4.375 L4.19808933,4.375 C4.05990786,4.72723745 3.96893109,5.10513583 3.93343615,5.5 L7.85054227,5.5 C7.86232545,5.62805905 7.86832844,5.75783174 7.86832844,5.88901034 C7.86832844,6.14054602 7.84355122,6.3865729 7.79619335,6.625 L3.9845457,6.625 C4.05790677,7.02482078 4.18881238,7.40311633 4.36785118,7.75 L7.37809115,7.75 C7.13636916,8.17824951 6.81381778,8.5590059 6.42986569,8.87377456 C6.4307709,8.87418341 6.43167633,8.87459189 6.432582,8.875 L5.23610395,8.875 C5.43803886,9.0557235 5.65844771,9.21434437 5.89393939,9.34730022 C6.11421827,9.22293334 6.32130009,9.07611026 6.51240938,8.90974663 C6.92448479,9.08286526 7.38155645,9.17929293 7.86363636,9.17929293 C9.70362059,9.17929293 11.1792929,7.77456637 11.1792929,6.0625 C11.1792929,4.35043363 9.70362059,2.94570707 7.86363636,2.94570707 C7.48870269,2.94570707 7.12889605,3.00403445 6.79361966,3.11140425 C6.57867141,2.88204524 6.33717047,2.68022741 6.0743504,2.51144862 Z" id="Combined-Shape" fill="#000000"></path>
    </g>
</svg>