<?xml version="1.0" encoding="UTF-8"?>
<svg width="12px" height="12px" viewBox="0 0 12 12" version="1.1" xmlns="http://www.w3.org/2000/svg" xmlns:xlink="http://www.w3.org/1999/xlink">
    <!-- Generator: Sketch 52.5 (67469) - http://www.bohemiancoding.com/sketch -->
    <title>Element/Computed</title>
    <desc>Created with Sketch.</desc>
    <g id="Element/Computed" stroke="none" stroke-width="1" fill="none" fill-rule="evenodd">
        <path d="M2.00395648,11.1666667 C1.69403076,11.1666667 1.44922609,11.0875592 1.26953511,10.929342 C1.08984414,10.7711247 1,10.5799484 1,10.3558073 C1,10.1942938 1.05357678,10.0640961 1.16073195,9.96521036 C1.26788712,9.86632457 1.38905307,9.81688242 1.52423343,9.81688242 C1.65611672,9.81688242 1.77398563,9.86220439 1.87784372,9.95284969 C1.98170181,10.043495 2.03363007,10.1662763 2.03363007,10.3211974 C2.03363007,10.4036022 2.00642955,10.4851818 1.9520277,10.5659385 C1.89762584,10.6466952 1.87042532,10.7019056 1.87042532,10.7315714 C1.87042532,10.7678295 1.88773474,10.7958467 1.9223541,10.8156239 C1.95697347,10.835401 1.99901063,10.8452895 2.04846686,10.8452895 C2.30234219,10.8452895 2.4952186,10.6425766 2.62710188,10.2371449 C2.75898516,9.83500938 3.03263887,8.65828616 3.44807122,6.70693995 L3.86350148,4.951726 L3.12166172,4.951726 L3.21562809,4.5314635 L3.95746785,4.5314635 C4.01681533,4.28095284 4.14292683,3.94062603 4.33580613,3.51047285 C4.52868544,3.08031968 4.77513863,2.73340058 5.0751731,2.46970514 C5.43785213,2.15656681 5.81041682,2 6.19287834,2 C6.49950697,2 6.75090571,2.06921901 6.9470821,2.20765912 C7.14325848,2.34609922 7.2413452,2.55210819 7.2413452,2.8256922 C7.2413452,2.98720565 7.19106545,3.11657928 7.09050445,3.21381697 C6.98994345,3.31105466 6.87042601,3.35967278 6.73194857,3.35967278 C6.5967682,3.35967278 6.47972354,3.3118787 6.38081108,3.2162891 C6.28189862,3.12069951 6.23244313,3.00863063 6.23244313,2.88007911 C6.23244313,2.7910819 6.25964364,2.69961392 6.3140455,2.60567242 C6.36844735,2.51173092 6.39564787,2.45652052 6.39564787,2.44003955 C6.39564787,2.4169662 6.38410826,2.38730091 6.36102868,2.35104279 C6.33465203,2.31808086 6.28849357,2.30160014 6.22255193,2.30160014 C6.03791533,2.30160014 5.87059092,2.43014974 5.72057369,2.68725279 C5.57055645,2.94435583 5.43125682,3.32011619 5.30267062,3.81454513 L5.11473788,4.5314635 L6.05440158,4.5314635 L5.96043521,4.951726 L5.04549951,4.951726 C4.56412552,7.31839251 4.16683309,8.87087609 3.85361029,9.6092233 C3.41180129,10.6475241 2.79525618,11.1666667 2.00395648,11.1666667 Z M8.8041543,5.79719525 C9.18002166,5.28628535 9.48252441,4.92782975 9.71167161,4.72181769 C9.94081882,4.51580563 10.1641928,4.41280115 10.3818002,4.41280115 C10.6422697,4.41280115 10.821958,4.50179702 10.9208704,4.67979144 C10.9736237,4.77208484 11,4.88415372 11,5.01600144 C11,5.15114535 10.945599,5.27475073 10.8367953,5.38682129 C10.7279915,5.49889185 10.5961102,5.55492629 10.4411474,5.55492629 C10.345532,5.55492629 10.2375542,5.51866871 10.1172107,5.44615246 C9.99686719,5.37363622 9.90537453,5.33737864 9.84272997,5.33737864 C9.72073793,5.33737864 9.60451753,5.40000537 9.49406528,5.5252607 C9.38361303,5.65051603 9.1932094,5.91585558 8.92284866,6.32128731 L9.01681503,6.81571377 C9.06627127,7.06952063 9.10748417,7.2780017 9.140455,7.44116325 C9.17342582,7.6043248 9.20969318,7.75512336 9.24925816,7.89356347 C9.30201147,8.08474266 9.354764,8.22318068 9.40751731,8.3088817 C9.46027062,8.39458271 9.53775089,8.43743258 9.63996044,8.43743258 C9.73227873,8.43743258 9.84437784,8.36986164 9.97626113,8.23471773 C10.0487969,8.16220148 10.1592475,8.02870767 10.3076162,7.83423229 L10.5153314,7.97761597 C10.340586,8.27097714 10.113915,8.54950126 9.83531157,8.81319669 C9.55670814,9.07689213 9.28387868,9.20873786 9.01681503,9.20873786 C8.79261345,9.20873786 8.60797962,9.11644585 8.46290801,8.93185904 C8.38048096,8.83297326 8.30794624,8.69783137 8.24530168,8.52642934 C8.21233086,8.43743213 8.16699666,8.28004128 8.10929773,8.05425207 C8.05159879,7.82846285 8.01450717,7.68920079 7.99802176,7.6364617 L7.92878338,7.75512406 C7.60237226,8.31547685 7.36333739,8.67970071 7.21167161,8.84780654 C6.98417295,9.09831721 6.72041034,9.22357066 6.42037587,9.22357066 C6.2489276,9.22357066 6.09973687,9.16506411 5.97279921,9.04804926 C5.84586155,8.93103441 5.78239367,8.78682814 5.78239367,8.61542611 C5.78239367,8.47368981 5.82937638,8.34266811 5.92334322,8.22235707 C6.01731006,8.10204602 6.14836711,8.04189141 6.3165183,8.04189141 C6.41872784,8.04189141 6.54483934,8.07814898 6.69485658,8.15066523 C6.84487381,8.22318147 6.94296053,8.25943905 6.98911968,8.25943905 C7.09132923,8.25943905 7.17952485,8.21411708 7.2537092,8.12347177 C7.32789355,8.03282647 7.47378724,7.80786468 7.69139466,7.44857965 L7.8892186,7.12225818 C7.85624777,6.98381808 7.82080467,6.81406669 7.78288823,6.61299892 C7.74497179,6.41193115 7.70623165,6.20592219 7.66666667,5.99496584 L7.58753709,5.57470334 C7.5314867,5.2714536 7.44246682,5.07203692 7.32047478,4.97644732 C7.25123605,4.92041204 7.13748843,4.89239482 6.97922849,4.89239482 C6.96274308,4.89239482 6.92317868,4.89486693 6.86053412,4.89981122 C6.79788956,4.90475551 6.73524594,4.91052376 6.67260138,4.91711615 L6.67260138,4.64518159 C6.96933877,4.60892347 7.29492075,4.56277746 7.64935707,4.50674218 C8.0037934,4.4507069 8.24035549,4.41115318 8.35905045,4.38807983 C8.45796291,4.51992754 8.53956447,4.6797905 8.60385757,4.8676735 C8.66815067,5.05555649 8.7167819,5.25497318 8.74975272,5.46592952 L8.8041543,5.79719525 Z" id="fx-copy-2" fill="#000000"></path>
    </g>
</svg>