<?xml version="1.0" encoding="UTF-8"?>
<svg width="12px" height="12px" viewBox="0 0 12 12" version="1.1" xmlns="http://www.w3.org/2000/svg" xmlns:xlink="http://www.w3.org/1999/xlink">
    <!-- Generator: Sketch 52.5 (67469) - http://www.bohemiancoding.com/sketch -->
    <title>Element/Conversion</title>
    <desc>Created with Sketch.</desc>
    <g id="Element/Conversion" stroke="none" stroke-width="1" fill="none" fill-rule="evenodd">
        <g id="Group" transform="translate(1.000000, 1.000000)" fill="#000000" fill-rule="nonzero">
            <path d="M2.61354516,6.81818182 C2.22861071,6.31370742 2,5.68355116 2,5 C2,3.34314575 3.34314575,2 5,2 C5.82842712,2 6.57842712,2.33578644 7.12132034,2.87867966 L7.89270956,2.10729044 C7.15240062,1.36698151 6.12967335,0.909090909 5,0.909090909 C2.7406533,0.909090909 0.909090909,2.7406533 0.909090909,5 L0,5 C0,2.23857625 2.23857625,0 5,0 C6.38071187,0 7.63071187,0.559644063 8.53553391,1.46446609 L9.31266726,0.687332743 C9.36592057,0.63407943 9.45226125,0.63407943 9.50551456,0.687332743 C9.5310877,0.712905885 9.54545455,0.74759051 9.54545455,0.783756395 L9.54545455,3.04545455 C9.54545455,3.1207661 9.48440247,3.18181818 9.40909091,3.18181818 L7.38645484,3.18181818 C7.77138929,3.68629258 8,4.31644884 8,5 C8,6.65685425 6.65685425,8 5,8 C4.17157288,8 3.42157288,7.66421356 2.87867966,7.12132034 L2.10729044,7.89270956 C2.84759938,8.63301849 3.87032665,9.09090909 5,9.09090909 C7.2593467,9.09090909 9.09090909,7.2593467 9.09090909,5 L10,5 C10,7.76142375 7.76142375,10 5,10 C3.61928813,10 2.36928813,9.44035594 1.46446609,8.53553391 L0.687332743,9.31266726 C0.63407943,9.36592057 0.547738751,9.36592057 0.494485439,9.31266726 C0.468912296,9.28709411 0.454545455,9.25240949 0.454545455,9.21624361 L0.454545455,6.95454545 C0.454545455,6.8792339 0.515597534,6.81818182 0.590909091,6.81818182 L2.61354516,6.81818182 Z M6,5 C6,4.44771525 5.55228475,4 5,4 C4.44771525,4 4,4.44771525 4,5 C4,5.55228475 4.44771525,6 5,6 C5.55228475,6 6,5.55228475 6,5 Z" id="Combined-Shape"></path>
        </g>
    </g>
</svg>