<?xml version="1.0" encoding="UTF-8"?>
<svg width="12px" height="12px" viewBox="0 0 12 12" version="1.1" xmlns="http://www.w3.org/2000/svg" xmlns:xlink="http://www.w3.org/1999/xlink">
    <!-- Generator: Sketch 52.5 (67469) - http://www.bohemiancoding.com/sketch -->
    <title>Element/Group</title>
    <desc>Created with Sketch.</desc>
    <g id="Element/Group" stroke="none" stroke-width="1" fill="none" fill-rule="evenodd">
        <path d="M11,6 C11,4.8954305 10.1045695,4 9,4 C7.8954305,4 7,4.8954305 7,6 L11,6 Z M1,6 C1,7.1045695 1.8954305,8 3,8 C4.1045695,8 5,7.1045695 5,6 L1,6 Z M3,3.5 C4.38071187,3.5 5.5,4.61928813 5.5,6 C5.5,7.38071187 4.38071187,8.5 3,8.5 C1.61928813,8.5 0.5,7.38071187 0.5,6 C0.5,4.61928813 1.61928813,3.5 3,3.5 Z M9,8.5 C7.61928813,8.5 6.5,7.38071187 6.5,6 C6.5,4.61928813 7.61928813,3.5 9,3.5 C10.3807119,3.5 11.5,4.61928813 11.5,6 C11.5,7.38071187 10.3807119,8.5 9,8.5 Z" id="Combined-Shape" fill="#000000" fill-rule="nonzero"></path>
    </g>
</svg>