<?xml version="1.0" encoding="UTF-8"?>
<svg width="12px" height="12px" viewBox="0 0 12 12" version="1.1" xmlns="http://www.w3.org/2000/svg" xmlns:xlink="http://www.w3.org/1999/xlink">
    <!-- Generator: Sketch 52.5 (67469) - http://www.bohemiancoding.com/sketch -->
    <title>Element/! Important</title>
    <desc>Created with Sketch.</desc>
    <g id="Element/!-Important" stroke="none" stroke-width="1" fill="none" fill-rule="evenodd">
        <path d="M6,12 C2.6862915,12 0,9.3137085 0,6 C0,2.6862915 2.6862915,0 6,0 C9.3137085,0 12,2.6862915 12,6 C12,9.3137085 9.3137085,12 6,12 Z M5.33333333,7.9478301 C5.33333333,8.14727708 5.39820102,8.31694298 5.52793834,8.45683287 C5.65767566,8.59672277 5.81502798,8.66666667 6,8.66666667 C6.18497202,8.66666667 6.34232434,8.59672277 6.47206166,8.45683287 C6.60179898,8.31694298 6.66666667,8.14727708 6.66666667,7.9478301 C6.66666667,7.74838312 6.60179898,7.57871723 6.47206166,7.43882733 C6.34232434,7.29893744 6.18497202,7.22899354 6,7.22899354 C5.81502798,7.22899354 5.65767566,7.29893744 5.52793834,7.43882733 C5.39820102,7.57871723 5.33333333,7.74838312 5.33333333,7.9478301 Z M5.33333333,3.53508772 C5.33333333,3.6403514 5.35516998,3.78577931 5.39884393,3.97137581 C5.42710355,4.09048998 5.49004447,4.32871474 5.58766859,4.68605725 C5.66474027,4.96583704 5.71612062,5.18328639 5.74181118,5.33841182 C5.76750173,5.49353725 5.81759757,5.90073539 5.89210019,6.56001847 L6.1194605,6.56001847 C6.17341067,6.03647014 6.21258819,5.68813568 6.23699422,5.51500462 C6.26140025,5.34187356 6.30700031,5.12511672 6.37379576,4.86472761 C6.48426516,4.43259248 6.56069343,4.12165377 6.60308285,3.93190212 C6.64547227,3.74215048 6.66666667,3.60018514 6.66666667,3.50600185 C6.66666667,3.20683138 6.59922996,2.99215208 6.46435453,2.86195753 C6.32947909,2.73176297 6.1746958,2.66666667 6,2.66666667 C5.82016609,2.66666667 5.66409829,2.73245548 5.53179191,2.86403509 C5.39948553,2.99561469 5.33333333,3.21929667 5.33333333,3.53508772 Z" id="Combined-Shape" fill="#000000"></path>
    </g>
</svg>