<?xml version="1.0" encoding="UTF-8"?>
<svg width="12px" height="12px" viewBox="0 0 12 12" version="1.1" xmlns="http://www.w3.org/2000/svg" xmlns:xlink="http://www.w3.org/1999/xlink">
    <!-- Generator: Sketch 52.5 (67469) - http://www.bohemiancoding.com/sketch -->
    <title>Element/Metric</title>
    <desc>Created with Sketch.</desc>
    <g id="Element/Metric" stroke="none" stroke-width="1" fill="none" fill-rule="evenodd">
        <path d="M9.61968982,0 C9.95380874,-3.29995618e-06 10.2250828,0.270065095 10.2265678,0.604180715 L10.2265678,11.393122 C10.2265678,11.7282915 9.95485925,12 9.61968982,12 L2.60687795,12 C2.27170851,12 2,11.7282915 2,11.393122 L2,0.604180715 C2.00148497,0.270065095 2.27275903,-3.29995618e-06 2.60687795,0 L9.61968982,0 Z M9.82198247,11.393122 L9.82198247,0.604180715 C9.82050676,0.493512323 9.73036805,0.404575462 9.61968982,0.4045853 L2.60687795,0.4045853 C2.49619972,0.404575462 2.40606101,0.493512323 2.4045853,0.604180715 L2.4045853,11.393122 C2.4045853,11.5048452 2.4951548,11.5954147 2.60687795,11.5954147 L9.61968982,11.5954147 C9.73141296,11.5954147 9.82198247,11.5048452 9.82198247,11.393122 Z M3.96898179,6.00134862 C3.63381236,6.00134862 3.36210384,5.7296401 3.36210384,5.39447067 C3.36210384,5.05930123 3.63381236,4.78759272 3.96898179,4.78759272 C4.30415123,4.78759272 4.57585974,5.05930123 4.57585974,5.39447067 C4.57585974,5.7296401 4.30415123,6.00134862 3.96898179,6.00134862 Z M6.12677006,6.00134862 C5.79160062,6.00134862 5.51989211,5.7296401 5.51989211,5.39447067 C5.51989211,5.05930123 5.79160062,4.78759272 6.12677006,4.78759272 C6.4619395,4.78759272 6.73364801,5.05930123 6.73364801,5.39447067 C6.73364801,5.7296401 6.4619395,6.00134862 6.12677006,6.00134862 Z M8.28455833,6.00134862 C7.94938889,6.00134862 7.67768038,5.7296401 7.67768038,5.39447067 C7.67768038,5.05930123 7.94938889,4.78759272 8.28455833,4.78759272 C8.61972776,4.78759272 8.89143628,5.05930123 8.89143628,5.39447067 C8.89143628,5.7296401 8.61972776,6.00134862 8.28455833,6.00134862 Z M3.96898179,8.15913688 C3.63381236,8.15913688 3.36210384,7.88742837 3.36210384,7.55225893 C3.36210384,7.2170895 3.63381236,6.94538098 3.96898179,6.94538098 C4.30415123,6.94538098 4.57585974,7.2170895 4.57585974,7.55225893 C4.57585974,7.88742837 4.30415123,8.15913688 3.96898179,8.15913688 Z M6.12677006,8.15913688 C5.79160062,8.15913688 5.51989211,7.88742837 5.51989211,7.55225893 C5.51989211,7.2170895 5.79160062,6.94538098 6.12677006,6.94538098 C6.4619395,6.94538098 6.73364801,7.2170895 6.73364801,7.55225893 C6.73364801,7.88742837 6.4619395,8.15913688 6.12677006,8.15913688 Z M8.28455833,8.15913688 C7.94938889,8.15913688 7.67768038,7.88742837 7.67768038,7.55225893 C7.67768038,7.2170895 7.94938889,6.94538098 8.28455833,6.94538098 C8.61972776,6.94538098 8.89143628,7.2170895 8.89143628,7.55225893 C8.89143628,7.88742837 8.61972776,8.15913688 8.28455833,8.15913688 Z M3.96898179,10.3020904 C3.63381236,10.3020904 3.36210384,10.0303818 3.36210384,9.69521241 C3.36210384,9.36004297 3.63381236,9.08833446 3.96898179,9.08833446 C4.30415123,9.08833446 4.57585974,9.36004297 4.57585974,9.69521241 C4.57585974,10.0303818 4.30415123,10.3020904 3.96898179,10.3020904 Z M6.12677006,10.3020904 C5.79160062,10.3020904 5.51989211,10.0303818 5.51989211,9.69521241 C5.51989211,9.36004297 5.79160062,9.08833446 6.12677006,9.08833446 C6.4619395,9.08833446 6.73364801,9.36004297 6.73364801,9.69521241 C6.73364801,10.0303818 6.4619395,10.3020904 6.12677006,10.3020904 Z M8.28455833,10.3020904 C7.94938889,10.3020904 7.67768038,10.0303818 7.67768038,9.69521241 C7.67768038,9.36004297 7.94938889,9.08833446 8.28455833,9.08833446 C8.61972776,9.08833446 8.89143628,9.36004297 8.89143628,9.69521241 C8.89143628,10.0303818 8.61972776,10.3020904 8.28455833,10.3020904 Z M4.44099798,1.68577208 L7.81254214,1.68577208 C8.40839892,1.68577208 8.89143628,2.16880944 8.89143628,2.76466622 C8.89143628,3.36052299 8.40839892,3.84356035 7.81254214,3.84356035 L4.44099798,3.84356035 C3.8451412,3.84356035 3.36210384,3.36052299 3.36210384,2.76466622 C3.36210384,2.16880944 3.8451412,1.68577208 4.44099798,1.68577208 Z" id="Combined-Shape-Copy" fill="#000000" fill-rule="nonzero"></path>
    </g>
</svg>