<?xml version="1.0" encoding="UTF-8"?>
<svg width="12px" height="12px" viewBox="0 0 12 12" version="1.1" xmlns="http://www.w3.org/2000/svg" xmlns:xlink="http://www.w3.org/1999/xlink">
    <!-- Generator: Sketch 52.5 (67469) - http://www.bohemiancoding.com/sketch -->
    <title>Element/Search</title>
    <desc>Created with Sketch.</desc>
    <g id="Element/Search" stroke="none" stroke-width="1" fill="none" fill-rule="evenodd">
        <path d="M4.5,8.5 C2.290861,8.5 0.5,6.709139 0.5,4.5 C0.5,2.290861 2.290861,0.5 4.5,0.5 C6.709139,0.5 8.5,2.290861 8.5,4.5 C8.5,6.709139 6.709139,8.5 4.5,8.5 Z M4.5,7.5 C6.15685425,7.5 7.5,6.15685425 7.5,4.5 C7.5,2.84314575 6.15685425,1.5 4.5,1.5 C2.84314575,1.5 1.5,2.84314575 1.5,4.5 C1.5,6.15685425 2.84314575,7.5 4.5,7.5 Z M7.35355339,8.06066017 L8.06066017,7.35355339 C8.25592232,7.15829124 8.57250481,7.15829124 8.76776695,7.35355339 L10.8890873,9.47487373 C11.0843494,9.67013588 11.0843494,9.98671837 10.8890873,10.1819805 L10.1819805,10.8890873 C9.98671837,11.0843494 9.67013588,11.0843494 9.47487373,10.8890873 L7.35355339,8.76776695 C7.15829124,8.57250481 7.15829124,8.25592232 7.35355339,8.06066017 Z" id="Combined-Shape" fill="#000000" fill-rule="nonzero"></path>
    </g>
</svg>