<?xml version="1.0" encoding="UTF-8"?>
<svg width="12px" height="12px" viewBox="0 0 12 12" version="1.1" xmlns="http://www.w3.org/2000/svg" xmlns:xlink="http://www.w3.org/1999/xlink">
    <!-- Generator: Sketch 52.5 (67469) - http://www.bohemiancoding.com/sketch -->
    <title>Element/X</title>
    <desc>Created with Sketch.</desc>
    <g id="Element/X" stroke="none" stroke-width="1" fill="none" fill-rule="evenodd">
        <path d="M6,4.58578644 L8.82842712,1.75735931 C9.21895142,1.36683502 9.8521164,1.36683502 10.2426407,1.75735931 C10.633165,2.1478836 10.633165,2.78104858 10.2426407,3.17157288 L7.41421356,6 L10.2426407,8.82842712 C10.633165,9.21895142 10.633165,9.8521164 10.2426407,10.2426407 C9.8521164,10.633165 9.21895142,10.633165 8.82842712,10.2426407 L6,7.41421356 L3.17157288,10.2426407 C2.78104858,10.633165 2.1478836,10.633165 1.75735931,10.2426407 C1.36683502,9.8521164 1.36683502,9.21895142 1.75735931,8.82842712 L4.58578644,6 L1.75735931,3.17157288 C1.36683502,2.78104858 1.36683502,2.1478836 1.75735931,1.75735931 C2.1478836,1.36683502 2.78104858,1.36683502 3.17157288,1.75735931 L6,4.58578644 Z" id="Combined-Shape" fill="#000000"></path>
    </g>
</svg>