<?xml version="1.0" encoding="UTF-8"?>
<svg width="72px" height="82px" viewBox="0 0 72 82" version="1.1" xmlns="http://www.w3.org/2000/svg" xmlns:xlink="http://www.w3.org/1999/xlink">
    <!-- Generator: Sketch 53.1 (72631) - https://sketchapp.com -->
    <title>Group 4 Copy 3</title>
    <desc>Created with Sketch.</desc>
    <g id="Page-2" stroke="none" stroke-width="1" fill="none" fill-rule="evenodd">
        <g id="Group-4-Copy-3">
            <g id="Group-15">
                <path d="M2,0 L70,0 C71.1045695,-2.02906125e-16 72,0.8954305 72,2 L72,66.4660097 C72,67.5705792 71.1045695,68.4660097 70,68.4660097 L30.0843681,68.4660097 C29.6814242,68.4660097 29.2878766,68.5877219 28.9552848,68.8152005 L10.9548094,81.1267606 L10.9548094,70.4660097 C10.9548094,69.3614402 10.0593789,68.4660097 8.95480935,68.4660097 L2,68.4660097 C0.8954305,68.4660097 1.42661294e-14,67.5705792 -2.0206059e-14,66.4660097 L0,2 C-6.25798147e-16,0.8954305 0.8954305,-9.07316899e-16 2,-1.11022302e-15 Z" id="Rectangle" fill="#E5E5E5" transform="translate(36.000000, 40.563380) scale(-1, 1) translate(-36.000000, -40.563380) "></path>
                <g id="Group-17" transform="translate(14.000000, 8.000000)">
                    <polygon id="Rectangle-Copy-30" fill="#F04E4F" points="3 1.5 22 20.9774775 41 1.5 41 32.9954955 22 47.5 3 32.9954955"></polygon>
                    <path d="M22,36.1558442 L22,21.1948052 L7.17647059,21.1948052 C7.17647059,12.9320515 13.8131908,6.23376623 22,6.23376623 C30.1868092,6.23376623 36.8235294,12.9320515 36.8235294,21.1948052 C36.8235294,29.4575589 30.1868092,36.1558442 22,36.1558442 Z" id="Combined-Shape-Copy-21" fill="#382554" transform="translate(22.000000, 21.194805) rotate(135.000000) translate(-22.000000, -21.194805) "></path>
                    <path d="M14.5882353,3.11688312 L29.4117647,3.11688312 L29.4117647,18.0779221 C21.2249555,18.0779221 14.5882353,11.3796368 14.5882353,3.11688312 Z" id="Combined-Shape-Copy-22" fill="#298DCC" transform="translate(22.000000, 10.597403) rotate(135.000000) translate(-22.000000, -10.597403) "></path>
                </g>
            </g>
        </g>
    </g>
</svg>