<svg viewBox="0 0 24 24" fill="none" xmlns="http://www.w3.org/2000/svg">
<path d="M19 11V14C19 15.0665 18.0665 16 17 16H14.5L9 19V16H7C5.93352 16 5 15.0665 5 14V7C5 5.93352 5.93352 5 7 5H12M13.5 7.5C13.5 7.5 16 7.60318 16 5C16 7.60318 18.5 7.5 18.5 7.5C18.5 7.5 16 7.5 16 10C16 7.5 13.5 7.5 13.5 7.5ZM11 9.5C11 10.6471 11.3529 11 12.5 11C11.3529 11 11 11.3529 11 12.5C11 11.3529 10.6471 11 9.5 11C10.6471 11 11 10.6471 11 9.5Z" stroke-width="2" stroke-linecap="round" stroke-linejoin="round" stroke="currentColor" />
</svg>
