<svg viewBox="0 0 24 24" fill="none" xmlns="http://www.w3.org/2000/svg">
<path d="M8.86207 17.3676V19M15.1379 16.9012V18.5336M5 13.6363V10.8379C5 10.3227 5.43228 9.905 5.96552 9.905H6.93103C6.93103 9.905 6.93103 6.87334 10.069 6.87334V5.00771C10.069 5.00771 12 4.77451 12 6.87334H15.1379C17.2709 6.87334 19 8.54389 19 10.6046V12.9367C19 14.9974 17.2709 16.668 15.1379 16.668H9.10345C6.93103 16.668 6.93103 14.5691 6.93103 14.5691H5.96552C5.43228 14.5691 5 14.1514 5 13.6363Z" stroke-width="2" stroke-linecap="round" stroke-linejoin="round" stroke="currentColor" />
<path d="M10.5 11C10.5 11.2761 10.2761 11.5 10 11.5C9.72386 11.5 9.5 11.2761 9.5 11C9.5 10.7239 9.72386 10.5 10 10.5C10.2761 10.5 10.5 10.7239 10.5 11Z" stroke="currentColor" />
</svg>
