<svg viewBox="0 0 24 24" fill="none" xmlns="http://www.w3.org/2000/svg">
<path d="M19 17.069C19 18.1355 18.1355 19 17.069 19H14.6552C13.5887 19 12.7241 18.1355 12.7241 17.069V14.9579C12.7241 14.1494 13.062 13.3778 13.6561 12.8295L15.8621 10.7931V13.6897H17.069C18.1355 13.6897 19 14.5542 19 15.6207V17.069Z" stroke-width="2" stroke-linecap="round" stroke-linejoin="round" stroke="currentColor" />
<path d="M11.2759 11.2759C11.2759 12.3424 10.4113 13.2069 9.34483 13.2069H6.93103C5.86455 13.2069 5 12.3424 5 11.2759V9.16475C5 8.35633 5.33784 7.58469 5.93188 7.03635L8.13793 5V7.89655H9.34483C10.4113 7.89655 11.2759 8.7611 11.2759 9.82759V11.2759Z" stroke-width="2" stroke-linecap="round" stroke-linejoin="round" stroke="currentColor" />
</svg>
