<svg viewBox="0 0 24 24" fill="none" xmlns="http://www.w3.org/2000/svg">
<path d="M16.3448 15.1379C16.3448 15.1379 8.13793 13.4483 7.17241 13.2069C6.2069 12.9655 5 11.7 5 10.069C5 8.43788 6.2069 7.17241 7.17241 6.93103C8.13793 6.68966 16.3448 5 16.3448 5M6.93103 13.4483V17.069C6.93103 18.1355 7.79559 19 8.86207 19H9.34483C10.4113 19 11.2759 18.1355 11.2759 17.069V14.4138M19 10.069C19 12.7038 17.6483 15.1379 16.3448 15.1379C15.0414 15.1379 13.6897 12.7038 13.6897 10.069C13.6897 7.43413 15.0414 5 16.3448 5C17.6483 5 19 7.43413 19 10.069Z" stroke-width="2" stroke="currentColor" />
</svg>
