<svg viewBox="0 0 24 24" fill="none" xmlns="http://www.w3.org/2000/svg">
<path d="M6 6C6 6.27614 5.77614 6.5 5.5 6.5C5.22386 6.5 5 6.27614 5 6C5 5.72386 5.22386 5.5 5.5 5.5C5.77614 5.5 6 5.72386 6 6Z" fill="#9D9BA3" stroke-linecap="round" stroke-linejoin="round" stroke="currentColor" />
<path d="M6 12C6 12.2761 5.77614 12.5 5.5 12.5C5.22386 12.5 5 12.2761 5 12C5 11.7239 5.22386 11.5 5.5 11.5C5.77614 11.5 6 11.7239 6 12Z" fill="#9D9BA3" stroke-linecap="round" stroke-linejoin="round" stroke="currentColor"/>
<path d="M6 18C6 18.2761 5.77614 18.5 5.5 18.5C5.22386 18.5 5 18.2761 5 18C5 17.7239 5.22386 17.5 5.5 17.5C5.77614 17.5 6 17.7239 6 18Z" fill="#9D9BA3" stroke-linecap="round" stroke-linejoin="round" stroke="currentColor" />
<path d="M10 6H18" stroke-width="2" stroke-linecap="round" stroke-linejoin="round" stroke="currentColor" />
<path d="M10 12H18" stroke-width="2" stroke-linecap="round" stroke-linejoin="round" stroke="currentColor" />
<path d="M10 18H18" stroke-width="2" stroke-linecap="round" stroke-linejoin="round" stroke="currentColor" />
</svg>
