<svg viewBox="0 0 24 24" fill="none" xmlns="http://www.w3.org/2000/svg">
<path d="M10.5517 16.1034H6.93103C6.41889 16.1034 5.92773 15.9 5.56559 15.5379C5.20345 15.1757 5 14.6846 5 14.1724V6.93103C5 6.41889 5.20345 5.92773 5.56559 5.56559C5.92773 5.20345 6.41889 5 6.93103 5H17.069C17.5811 5 18.0723 5.20345 18.4344 5.56559C18.7966 5.92773 19 6.41889 19 6.93103V14.1724C19 14.6846 18.7966 15.1757 18.4344 15.5379C18.0723 15.9 17.5811 16.1034 17.069 16.1034H13.4483M10.5517 16.1034L8.86207 19M10.5517 16.1034H13.4483M13.4483 16.1034L15.1379 19M8.86207 12.2414V8.86207M12 12.2414V9.82759M15.1379 12.2414V10.7931" stroke-width="2" stroke-linecap="round" stroke-linejoin="round"/>
</svg>
