<svg viewBox="0 0 24 24" fill="none" xmlns="http://www.w3.org/2000/svg">
<path d="M5 19H19M6.44828 8.86207H5.96552C5.43228 8.86207 5 9.29435 5 9.82759V15.1379C5 15.6712 5.43228 16.1034 5.96552 16.1034H6.44828C6.98151 16.1034 7.41379 15.6712 7.41379 15.1379V9.82759C7.41379 9.29435 6.98151 8.86207 6.44828 8.86207ZM12.2414 5H11.7586C11.2254 5 10.7931 5.43228 10.7931 5.96552V15.1379C10.7931 15.6712 11.2254 16.1034 11.7586 16.1034H12.2414C12.7746 16.1034 13.2069 15.6712 13.2069 15.1379V5.96552C13.2069 5.43228 12.7746 5 12.2414 5ZM18.0345 7.89655H17.5517C17.0185 7.89655 16.5862 8.35765 16.5862 8.92644V14.5908C16.5862 15.1596 17.0185 15.6207 17.5517 15.6207H18.0345C18.5677 15.6207 19 15.1596 19 14.5908V8.92644C19 8.35765 18.5677 7.89655 18.0345 7.89655Z" stroke-width="2" stroke-linecap="round" stroke-linejoin="round" stroke="currentColor" />
</svg>
