<svg viewBox="0 0 24 24" fill="none" xmlns="http://www.w3.org/2000/svg">
<path d="M14 14.9091C14 14.407 14.407 14 14.9091 14H18.0909C18.593 14 19 14.407 19 14.9091V18.0909C19 18.593 18.593 19 18.0909 19H14.9091C14.407 19 14 18.593 14 18.0909V14.9091Z" stroke-width="2" stroke-linecap="round" stroke-linejoin="round"/>
<path d="M5 5.90909C5 5.40702 5.40702 5 5.90909 5H9.09091C9.59298 5 10 5.40702 10 5.90909V9.09091C10 9.59298 9.59298 10 9.09091 10H5.90909C5.40702 10 5 9.59298 5 9.09091V5.90909Z" stroke-width="2" stroke-linecap="round" stroke-linejoin="round"/>
<path d="M5 14.9091C5 14.407 5.40702 14 5.90909 14H9.09091C9.59298 14 10 14.407 10 14.9091V18.0909C10 18.593 9.59298 19 9.09091 19H5.90909C5.40702 19 5 18.593 5 18.0909V14.9091Z" stroke-width="2" stroke-linecap="round" stroke-linejoin="round"/>
<path d="M14 5.90909C14 5.40702 14.407 5 14.9091 5H18.0909C18.593 5 19 5.40702 19 5.90909V9.09091C19 9.59298 18.593 10 18.0909 10H14.9091C14.407 10 14 9.59298 14 9.09091V5.90909Z" stroke-width="2" stroke-linecap="round" stroke-linejoin="round"/>
</svg>
