<svg viewBox="0 0 24 24" fill="none" xmlns="http://www.w3.org/2000/svg">
<path d="M5 6.81818V8.18182C5 9.18597 5.81403 10 6.81818 10H8.18182C9.18597 10 10 9.18597 10 8.18182V6.81818C10 5.81403 9.18597 5 8.18182 5H6.81818C5.81403 5 5 5.81403 5 6.81818Z" stroke-width="2" stroke-linecap="round" stroke-linejoin="round"/>
<path d="M14 7.5H19" stroke-width="2" stroke-linecap="round" stroke-linejoin="round"/>
<path d="M16.5 5V10" stroke-width="2" stroke-linecap="round" stroke-linejoin="round"/>
<path d="M5 15.8182V17.1818C5 18.186 5.81403 19 6.81818 19H8.18182C9.18597 19 10 18.186 10 17.1818V15.8182C10 14.814 9.18597 14 8.18182 14H6.81818C5.81403 14 5 14.814 5 15.8182Z" stroke-width="2" stroke-linecap="round" stroke-linejoin="round"/>
<path d="M14 15.8182V17.1818C14 18.186 14.814 19 15.8182 19H17.1818C18.186 19 19 18.186 19 17.1818V15.8182C19 14.814 18.186 14 17.1818 14H15.8182C14.814 14 14 14.814 14 15.8182Z" stroke-width="2" stroke-linecap="round" stroke-linejoin="round"/>
</svg>
