<svg viewBox="0 0 24 24" fill="none" xmlns="http://www.w3.org/2000/svg">
<path d="M5 10.0769V5.92308C5 5.41328 5.40702 5 5.90909 5H9.09091C9.59298 5 10 5.41328 10 5.92308V10.0769C10 10.5867 9.59298 11 9.09091 11H5.90909C5.40702 11 5 10.5867 5 10.0769Z" stroke-width="2" stroke-linecap="round" stroke-linejoin="round"/>
<path d="M5 18.1111V15.8889C5 15.398 5.40702 15 5.90909 15H9.09091C9.59298 15 10 15.398 10 15.8889V18.1111C10 18.602 9.59298 19 9.09091 19H5.90909C5.40702 19 5 18.602 5 18.1111Z" stroke-width="2" stroke-linecap="round" stroke-linejoin="round"/>
<path d="M14 7.2V5.8C14 5.35818 14.407 5 14.9091 5H18.0909C18.593 5 19 5.35818 19 5.8V7.2C19 7.64182 18.593 8 18.0909 8H14.9091C14.407 8 14 7.64182 14 7.2Z" stroke-width="2" stroke-linecap="round" stroke-linejoin="round"/>
<path d="M14 18.0588V12.9412C14 12.4214 14.407 12 14.9091 12H18.0909C18.593 12 19 12.4214 19 12.9412V18.0588C19 18.5786 18.593 19 18.0909 19H14.9091C14.407 19 14 18.5786 14 18.0588Z" stroke-width="2" stroke-linecap="round" stroke-linejoin="round"/>
</svg>
