<svg viewBox="0 0 24 24" fill="none" xmlns="http://www.w3.org/2000/svg">
<path d="M9 9H15V15H9V9Z" stroke-width="2" stroke-linecap="round" stroke-linejoin="round" stroke="currentColor" />
<path d="M19 7C19 5.89543 18.1046 5 17 5C15.8954 5 15 5.89543 15 7V9H17C18.1046 9 19 8.10457 19 7Z" stroke-width="2" stroke-linecap="round" stroke-linejoin="round" stroke="currentColor" />
<path d="M19 17C19 18.1046 18.1046 19 17 19C15.8954 19 15 18.1046 15 17V15H17C18.1046 15 19 15.8954 19 17Z" stroke-width="2" stroke-linecap="round" stroke-linejoin="round" stroke="currentColor" />
<path d="M5 7C5 5.89543 5.89543 5 7 5C8.10457 5 9 5.89543 9 7V9H7C5.89543 9 5 8.10457 5 7Z" stroke-width="2" stroke-linecap="round" stroke-linejoin="round" stroke="currentColor" />
<path d="M5 17C5 18.1046 5.89543 19 7 19C8.10457 19 9 18.1046 9 17V15H7C5.89543 15 5 15.8954 5 17Z" stroke-width="2" stroke-linecap="round" stroke-linejoin="round" stroke="currentColor" />
</svg>
