<svg viewBox="0 0 24 24" fill="none" xmlns="http://www.w3.org/2000/svg">
<path d="M12.2407 5H7.42593C6.91514 5 6.42527 5.20345 6.06409 5.56559C5.70291 5.92773 5.5 6.41889 5.5 6.93103V17.069C5.5 17.5811 5.70291 18.0723 6.06409 18.4344C6.42527 18.7966 6.91514 19 7.42593 19H10.7963M12.2407 5V8.37931C12.2407 8.89145 12.4437 9.38262 12.8048 9.74476C13.166 10.1069 13.6559 10.3103 14.1667 10.3103H17.537M12.2407 5L17.537 10.3103M17.537 10.3103V11.2759M18.5 14.6552C18.5 14.6552 16.6424 16.6731 15.7141 19L14.1667 17.1375" stroke-width="2" stroke-linecap="round" stroke-linejoin="round" stroke="currentColor" />
</svg>
