<svg viewBox="0 0 24 24" fill="none" xmlns="http://www.w3.org/2000/svg">
<path d="M11.6118 17.3761C12.3505 17.7217 13.2055 17.8881 14.0984 17.8881C14.3596 17.8881 14.6174 17.8738 14.87 17.8451C15.0734 17.8219 15.2792 17.8562 15.4656 17.9413C15.9748 18.1737 16.5566 18.347 17.1112 18.4749C17.8522 18.646 18.534 17.9077 18.1731 17.2339C18.0224 16.9524 17.9826 16.3526 18.1713 16.0952C18.6914 15.3859 19 14.4571 19 13.2931C19 11.9116 18.5652 10.8614 17.8582 10.1161M10 14.8758C12.6662 14.8758 15 13.4209 15 10.1879C15 6.95486 12.6662 5.5 10 5.5C7.33381 5.5 5 6.95486 5 10.1879C5 11.3754 5.31484 12.3229 5.84537 13.0467C6.03781 13.3092 5.99726 13.9211 5.84347 14.2084C5.4754 14.8958 6.17083 15.649 6.92671 15.4745C7.49251 15.3439 8.08599 15.1672 8.60536 14.9301C8.79551 14.8432 9.00547 14.8083 9.21293 14.8319C9.47064 14.8612 9.73366 14.8758 10 14.8758Z"  stroke-width="2" stroke-linecap="round" stroke-linejoin="round"/>
</svg>
