<svg viewBox="0 0 24 24" fill="none" xmlns="http://www.w3.org/2000/svg">
<path d="M4.75 7C4.33579 7 4 7.44772 4 8C4 8.55228 4.33579 9 4.75 9V7ZM19.25 9C19.6642 9 20 8.55228 20 8C20 7.44772 19.6642 7 19.25 7V9ZM4.75 9H19.25V7H4.75V9Z" fill="#9D9BA3"/>
<path d="M6.75 11C6.33579 11 6 11.4477 6 12C6 12.5523 6.33579 13 6.75 13V11ZM17.25 13C17.6642 13 18 12.5523 18 12C18 11.4477 17.6642 11 17.25 11V13ZM6.75 13H17.25V11H6.75V13Z" fill="#9D9BA3"/>
<path d="M8.75 15C8.33579 15 8 15.4477 8 16C8 16.5523 8.33579 17 8.75 17V15ZM15.25 17C15.6642 17 16 16.5523 16 16C16 15.4477 15.6642 15 15.25 15V17ZM8.75 17H15.25V15H8.75V17Z" fill="#9D9BA3"/>
</svg>
