<svg viewBox="0 0 24 24" fill="none" xmlns="http://www.w3.org/2000/svg">
<path d="M15.2 6.55556C14.7582 6.55556 14.4 6.20733 14.4 5.77778C14.4 5.34823 14.7582 5 15.2 5C15.6418 5 16 5.34823 16 5.77778C16 6.20733 15.6418 6.55556 15.2 6.55556Z" fill="#9D9BA3"/>
<path d="M8.8 12.7778C8.35818 12.7778 8 12.4295 8 12C8 11.5705 8.35818 11.2222 8.8 11.2222C9.24182 11.2222 9.6 11.5705 9.6 12C9.6 12.4295 9.24182 12.7778 8.8 12.7778Z" fill="#9D9BA3"/>
<path d="M15.2 12.7778C14.7582 12.7778 14.4 12.4295 14.4 12C14.4 11.5705 14.7582 11.2222 15.2 11.2222C15.6418 11.2222 16 11.5705 16 12C16 12.4295 15.6418 12.7778 15.2 12.7778Z" fill="#9D9BA3"/>
<path d="M8.8 19C8.35818 19 8 18.6517 8 18.2222C8 17.7927 8.35818 17.4444 8.8 17.4444C9.24182 17.4444 9.6 17.7927 9.6 18.2222C9.6 18.6517 9.24182 19 8.8 19Z" fill="#9D9BA3"/>
<path d="M15.2 19C14.7582 19 14.4 18.6517 14.4 18.2222C14.4 17.7927 14.7582 17.4444 15.2 17.4444C15.6418 17.4444 16 17.7927 16 18.2222C16 18.6517 15.6418 19 15.2 19Z" fill="#9D9BA3"/>
<path d="M8.8 6.55556C8.35818 6.55556 8 6.20733 8 5.77778C8 5.34823 8.35818 5 8.8 5C9.24182 5 9.6 5.34823 9.6 5.77778C9.6 6.20733 9.24182 6.55556 8.8 6.55556Z" fill="#9D9BA3"/>
<path d="M15.2 6.55556C14.7582 6.55556 14.4 6.20733 14.4 5.77778C14.4 5.34823 14.7582 5 15.2 5C15.6418 5 16 5.34823 16 5.77778C16 6.20733 15.6418 6.55556 15.2 6.55556Z"  stroke-width="1.5" stroke-linecap="round" stroke-linejoin="round"/>
<path d="M8.8 12.7778C8.35818 12.7778 8 12.4295 8 12C8 11.5705 8.35818 11.2222 8.8 11.2222C9.24182 11.2222 9.6 11.5705 9.6 12C9.6 12.4295 9.24182 12.7778 8.8 12.7778Z"  stroke-width="1.5" stroke-linecap="round" stroke-linejoin="round"/>
<path d="M15.2 12.7778C14.7582 12.7778 14.4 12.4295 14.4 12C14.4 11.5705 14.7582 11.2222 15.2 11.2222C15.6418 11.2222 16 11.5705 16 12C16 12.4295 15.6418 12.7778 15.2 12.7778Z"  stroke-width="1.5" stroke-linecap="round" stroke-linejoin="round"/>
<path d="M8.8 19C8.35818 19 8 18.6517 8 18.2222C8 17.7927 8.35818 17.4444 8.8 17.4444C9.24182 17.4444 9.6 17.7927 9.6 18.2222C9.6 18.6517 9.24182 19 8.8 19Z"  stroke-width="1.5" stroke-linecap="round" stroke-linejoin="round"/>
<path d="M15.2 19C14.7582 19 14.4 18.6517 14.4 18.2222C14.4 17.7927 14.7582 17.4444 15.2 17.4444C15.6418 17.4444 16 17.7927 16 18.2222C16 18.6517 15.6418 19 15.2 19Z"  stroke-width="1.5" stroke-linecap="round" stroke-linejoin="round"/>
<path d="M8.8 6.55556C8.35818 6.55556 8 6.20733 8 5.77778C8 5.34823 8.35818 5 8.8 5C9.24182 5 9.6 5.34823 9.6 5.77778C9.6 6.20733 9.24182 6.55556 8.8 6.55556Z"  stroke-width="1.5" stroke-linecap="round" stroke-linejoin="round"/>
</svg>
