<svg viewBox="0 0 24 24" fill="none" xmlns="http://www.w3.org/2000/svg">
<path d="M5 15.8621L7.65149 12.4892C8.40335 11.5328 9.84161 11.5015 10.6344 12.4243L12.9655 15.1379M10.9524 12.7946C11.9538 11.5208 13.3491 9.71612 13.44 9.5987C13.4432 9.5945 13.4462 9.59053 13.4495 9.58637C14.2028 8.63612 15.6364 8.60699 16.4275 9.52776L18.7586 12.2414M6.93103 19H17.069C18.1355 19 19 18.1355 19 17.069V6.93103C19 5.86455 18.1355 5 17.069 5H6.93103C5.86455 5 5 5.86455 5 6.93103V17.069C5 18.1355 5.86455 19 6.93103 19Z"  stroke-width="2" stroke-linecap="round" stroke-linejoin="round"/>
</svg>
