<svg viewBox="0 0 24 24" fill="none" xmlns="http://www.w3.org/2000/svg">
<path fill-rule="evenodd" clip-rule="evenodd" d="M12 20C16.4183 20 20 16.4183 20 12C20 7.58172 16.4183 4 12 4C7.58172 4 4 7.58172 4 12C4 16.4183 7.58172 20 12 20ZM12 12.2857C12.6312 12.2857 13.1429 12.7974 13.1429 13.4286V15.7143C13.1429 16.3455 12.6312 16.8571 12 16.8571C11.3688 16.8571 10.8571 16.3455 10.8571 15.7143V13.4286C10.8571 12.7974 11.3688 12.2857 12 12.2857ZM13.1429 8.85714C13.1429 9.48833 12.6312 10 12 10C11.3688 10 10.8571 9.48833 10.8571 8.85714C10.8571 8.22596 11.3688 7.71429 12 7.71429C12.6312 7.71429 13.1429 8.22596 13.1429 8.85714Z" fill="#9D9BA3"/>
</svg>
