<svg viewBox="0 0 24 24" fill="none" xmlns="http://www.w3.org/2000/svg">
<path fill-rule="evenodd" clip-rule="evenodd" d="M13.3153 15.3944L13.4102 14.9946C13.3611 15.0184 13.2819 15.0455 13.1733 15.0765C13.0645 15.1074 12.9665 15.1231 12.8804 15.1231C12.697 15.1231 12.5679 15.0921 12.4929 15.0298C12.4185 14.9675 12.3813 14.8504 12.3813 14.6787C12.3813 14.6107 12.3925 14.5093 12.416 14.3766C12.4387 14.2431 12.4648 14.1244 12.4938 14.0205L12.848 12.7278C12.8826 12.6092 12.9064 12.4788 12.9192 12.3364C12.9323 12.1944 12.9384 12.095 12.9384 12.0386C12.9384 11.766 12.8457 11.5448 12.6603 11.3742C12.4749 11.2036 12.2108 11.1184 11.8686 11.1184C11.6782 11.1184 11.4769 11.1533 11.2639 11.223C11.0508 11.2925 10.8281 11.3762 10.5951 11.474L10.5 11.8742C10.5694 11.8477 10.6521 11.8192 10.7489 11.7897C10.8452 11.7604 10.9397 11.7452 11.0317 11.7452C11.2194 11.7452 11.3459 11.7782 11.4121 11.8432C11.4784 11.9084 11.5117 12.0243 11.5117 12.1901C11.5117 12.2817 11.5012 12.3835 11.4793 12.4942C11.4578 12.6056 11.4309 12.7233 11.3992 12.8476L11.0435 14.1455C11.0119 14.2819 10.9888 14.4039 10.9742 14.5123C10.9598 14.6205 10.9529 14.7267 10.9529 14.83C10.9529 15.0967 11.0485 15.3166 11.2396 15.4901C11.4308 15.663 11.6987 15.75 12.0433 15.75C12.2677 15.75 12.4646 15.7198 12.6341 15.659C12.8034 15.5984 13.0307 15.5102 13.3153 15.3944ZM13.2522 9.6432C13.4177 9.48504 13.5 9.29269 13.5 9.06746C13.5 8.84274 13.4178 8.65001 13.2522 8.48984C13.0872 8.33012 12.8882 8.25 12.6557 8.25C12.4224 8.25 12.2226 8.32993 12.056 8.48984C11.8894 8.65001 11.8059 8.84268 11.8059 9.06746C11.8059 9.29269 11.8894 9.48498 12.056 9.6432C12.2229 9.80192 12.4223 9.88135 12.6557 9.88135C12.8883 9.88135 13.0872 9.80192 13.2522 9.6432Z" fill="currentColor"  stroke-width="0.5" stroke-linejoin="round" stroke="currentColor"/>
<path d="M12 19C15.866 19 19 15.866 19 12C19 8.13401 15.866 5 12 5C8.13401 5 5 8.13401 5 12C5 15.866 8.13401 19 12 19Z"  stroke-width="2" stroke-linecap="round" stroke-linejoin="round" stroke="currentColor" />
</svg>
