<svg viewBox="0 0 24 24" fill="none" xmlns="http://www.w3.org/2000/svg">
<path d="M6.92792 14.8966V8.86207C6.92792 7.79559 7.79234 6.93104 8.85866 6.93104H11.2721M17.0643 12.7241V14.8966M17.9554 14.9345C18.6474 14.7583 19.2568 15.2223 18.8896 15.7849C18.0409 17.0852 15.806 19 11.9962 19C8.18639 19 5.95905 17.0852 5.11044 15.7849C4.74323 15.2223 5.35251 14.7583 6.04459 14.9345C7.27393 15.2475 9.47675 15.6087 11.9962 15.6087C14.5156 15.6087 16.7261 15.2475 17.9554 14.9345ZM16.823 5C16.823 6.1075 15.7583 7.17242 14.6509 7.17242C15.7583 7.17242 16.823 8.23734 16.823 9.34483C16.823 8.23734 17.8877 7.17242 18.9951 7.17242C17.8877 7.17242 16.823 6.1075 16.823 5Z"  stroke-width="2" stroke-linecap="round" stroke-linejoin="round"/>
</svg>
