<svg width="71" height="16" viewBox="0 0 71 16" fill="none" xmlns="http://www.w3.org/2000/svg">
    <path d="M4.28165 2.06022L8.92609 12.7837L13.4824 2.0699C13.787 1.35597 14.5221 0.888889 15.3402 0.888889C16.4453 0.888889 17.3415 1.73109 17.3415 2.76689V16H14.7889V4.88206L10.3811 15.0295C10.1269 15.6152 9.52017 16 8.84553 16C8.17089 16 7.56422 15.6176 7.30997 15.0295L2.90215 4.88206V16H0.349594V2.76689C0.349594 1.72867 1.24576 0.888889 2.35086 0.888889H2.4289C3.24199 0.888889 3.97705 1.35113 4.28416 2.06022H4.28165Z" fill="white"/>
    <path d="M30.7561 15.869H28.6154L28.3441 14.1486C27.9396 14.7072 27.4217 15.1546 26.7903 15.4933C26.159 15.8319 25.424 16 24.583 16C23.5324 16 22.5927 15.7677 21.7665 15.3054C20.9403 14.8432 20.2942 14.1733 19.828 13.2983C19.3619 12.4233 19.1301 11.3976 19.1301 10.2235C19.1301 9.04937 19.3668 8.0656 19.8404 7.19059C20.3139 6.31558 20.9625 5.64078 21.7887 5.16126C22.6149 4.6842 23.5472 4.44444 24.583 4.44444C25.4388 4.44444 26.1836 4.60264 26.8125 4.91903C27.4439 5.23541 27.9544 5.67292 28.3441 6.23154L28.6376 4.57792H30.7561V15.8665V15.869ZM28.3441 10.2704C28.3441 9.15317 28.0358 8.24109 27.4217 7.53664C26.8051 6.83218 25.9937 6.47872 24.9875 6.47872C23.9812 6.47872 23.1698 6.82723 22.5533 7.52675C21.9367 8.22379 21.6309 9.12598 21.6309 10.2284C21.6309 11.3308 21.9392 12.2528 22.5533 12.9523C23.1698 13.6493 23.9812 14.0003 24.9875 14.0003C25.9937 14.0003 26.8051 13.6543 27.4217 12.9647C28.0383 12.275 28.3441 11.3778 28.3441 10.2754V10.2704Z" fill="white"/>
    <path d="M35.1917 4.44444L38.4051 13.3812L41.5736 4.44444H44.1707L39.8621 16H36.8533L32.5447 4.44444H35.1893H35.1917Z" fill="white"/>
    <path d="M48.6423 1.4509C48.6423 1.86616 48.5132 2.21388 48.2552 2.48905C47.9971 2.76422 47.679 2.90182 47.3008 2.90182C46.9226 2.90182 46.6023 2.76422 46.3465 2.48905C46.0884 2.21388 45.9594 1.86867 45.9594 1.4509C45.9594 1.03314 46.0884 0.687928 46.3465 0.412757C46.6045 0.137584 46.9226 0 47.3008 0C47.679 0 47.9994 0.137584 48.2552 0.412757C48.5132 0.687928 48.6423 1.03314 48.6423 1.4509ZM48.3998 4.57536V16H46.2041V4.57536H48.3998Z" fill="white"/>
    <path d="M53.5414 13.5902C54.0473 13.9651 54.7051 14.1501 55.5122 14.1501C56.2302 14.1501 56.8157 14.0145 57.2614 13.7432C57.7072 13.4718 57.9336 13.1093 57.9336 12.653C57.9336 12.2707 57.83 11.9845 57.6252 11.7946C57.4204 11.6047 57.1434 11.469 56.7988 11.3877C56.4543 11.3063 55.9218 11.2224 55.2038 11.1336C54.2208 11.0152 53.4089 10.8574 52.7728 10.66C52.1343 10.4627 51.6211 10.147 51.2332 9.71289C50.8453 9.28126 50.6501 8.69669 50.6501 7.96414C50.6501 7.27598 50.8453 6.66183 51.2332 6.1266C51.6211 5.59137 52.1584 5.17699 52.8403 4.88348C53.5221 4.58997 54.2955 4.44444 55.1629 4.44444C56.5868 4.44444 57.7409 4.76015 58.6299 5.39158C59.5166 6.023 59.9984 6.90848 60.0707 8.05294H57.7602C57.7023 7.5399 57.4445 7.11813 56.9892 6.78762C56.5338 6.45711 55.9628 6.29185 55.2713 6.29185C54.5798 6.29185 54.0232 6.42505 53.5992 6.68896C53.1727 6.95288 52.9607 7.31298 52.9607 7.76682C52.9607 8.10473 53.0667 8.35631 53.2787 8.5265C53.4908 8.69422 53.7606 8.81262 54.0811 8.87922C54.4039 8.94581 54.9243 9.02227 55.6447 9.11107C56.6133 9.21466 57.4277 9.37251 58.0878 9.58463C58.748 9.79675 59.2756 10.1347 59.6732 10.5959C60.0683 11.0571 60.2683 11.6861 60.2683 12.4778C60.2683 13.1808 60.0635 13.8023 59.6515 14.3376C59.2395 14.8728 58.6757 15.2847 57.9577 15.5708C57.2397 15.8569 56.4326 16 55.5363 16C54.0257 16 52.8041 15.6596 51.8717 14.9764C50.9393 14.2932 50.4598 13.351 50.4309 12.1498H52.7198C52.7632 12.7368 53.0378 13.2178 53.5462 13.5902H53.5414Z" fill="white"/>
    <path d="M66.0864 2.66667C66.478 2.66667 66.8261 2.86145 66.9643 3.15595L69.2114 8H68.0443L67.4173 6.6829H64.6967L64.0799 8H62.9512L65.2086 3.15595C65.3442 2.86145 65.6948 2.66667 66.0839 2.66667H66.0864ZM67.1178 5.93391L66.0557 3.61044L65.0038 5.93391H67.1178Z" fill="white"/>
    <path d="M71 2.66667V8H70.1057V2.66667H71Z" fill="white"/>
</svg>
