<svg viewBox="0 0 24 24" fill="none" xmlns="http://www.w3.org/2000/svg">
<path d="M5.96552 5H18.0345M5.96552 5V13.2069C5.96552 13.719 6.16896 14.2102 6.5311 14.5723C6.89324 14.9345 7.38441 15.1379 7.89655 15.1379H10.069M5.96552 5H5M18.0345 5V13.2069C18.0345 13.719 17.831 14.2102 17.4689 14.5723C17.1068 14.9345 16.6156 15.1379 16.1034 15.1379H13.931M18.0345 5H19M10.069 15.1379L8.86207 19M10.069 15.1379H13.931M13.931 15.1379L15.1379 19M8.86207 12.2414L11.0345 9.82759L12.9655 12.2414L15.1379 7.89655"  stroke-width="2" stroke-linecap="round" stroke-linejoin="round"/>
</svg>
