<svg viewBox="0 0 24 24" fill="none" xmlns="http://www.w3.org/2000/svg">
<path d="M6.93103 18H15.1379C16.2044 18 17.069 17.1355 17.069 16.069V13.9201C17.069 13.9071 17.0795 13.8966 17.0925 13.8966C18.146 13.8966 19 13.0426 19 11.9891V11.942C19 10.8885 18.146 10.0345 17.0925 10.0345C17.0795 10.0345 17.069 10.0239 17.069 10.0109V7.86207C17.069 6.79559 16.2044 5.93103 15.1379 5.93103H12.9939C12.9783 5.93103 12.9655 5.91832 12.9655 5.90264C12.9655 4.85184 12.1136 4 11.0629 4H11.0061C9.95529 4 9.10345 4.85184 9.10345 5.90264C9.10345 5.91832 9.09073 5.93103 9.07505 5.93103H6.93103C5.86455 5.93103 5 6.79559 5 7.86207V16.069C5 17.1355 5.86455 18 6.93103 18Z" stroke-width="2" stroke-linecap="round" stroke-linejoin="round" stroke="currentColor" />
</svg>
