<svg viewBox="0 0 24 24" fill="none" xmlns="http://www.w3.org/2000/svg">
<path d="M9.80352 8.85345C9.98319 8.49081 10.2607 8.18563 10.6046 7.97237C10.9486 7.7591 11.3453 7.64625 11.75 7.64655C12.1811 7.64653 12.6024 7.77476 12.9604 8.01491C13.3184 8.25507 13.5968 8.5963 13.7603 8.99518C13.9237 9.39406 13.9648 9.83255 13.8783 10.2549C13.7918 10.6772 13.5817 11.0642 13.2746 11.3667C12.7918 11.8427 12.2048 12.3563 11.9209 12.9598M11.75 15.8534V15.8631M11.75 18.75C10.8307 18.75 9.92049 18.5689 9.07122 18.2172C8.22194 17.8654 7.45026 17.3498 6.80025 16.6997C6.15024 16.0497 5.63463 15.2781 5.28284 14.4288C4.93106 13.5795 4.75 12.6693 4.75 11.75C4.75 10.8307 4.93106 9.92049 5.28284 9.07122C5.63463 8.22194 6.15024 7.45026 6.80025 6.80025C7.45026 6.15024 8.22194 5.63463 9.07122 5.28284C9.92049 4.93106 10.8307 4.75 11.75 4.75C13.6065 4.75 15.387 5.4875 16.6997 6.80025C18.0125 8.11301 18.75 9.89348 18.75 11.75C18.75 13.6065 18.0125 15.387 16.6997 16.6997C15.387 18.0125 13.6065 18.75 11.75 18.75Z"  stroke-width="2" stroke-linecap="round" stroke-linejoin="round"/>
</svg>
