<svg viewBox="0 0 24 24" fill="none" xmlns="http://www.w3.org/2000/svg">
<path d="M6.70711 13.2929C6.41422 13.5858 6 14 6.70711 14.7071C7.41421 15.4142 7.82843 15 8.12132 14.7071L6.70711 13.2929ZM15.1924 7.63604C15.4853 7.34316 15.8995 6.92893 15.1924 6.22182C14.4853 5.51472 14.0711 5.92894 13.7782 6.22182L15.1924 7.63604ZM8.12132 14.7071L15.1924 7.63604L13.7782 6.22182L6.70711 13.2929L8.12132 14.7071Z" fill="#9D9BA3"/>
<path d="M11.3033 14.3536C11.0104 14.6464 10.5962 15.0607 11.3033 15.7678C12.0104 16.4749 12.4246 16.0607 12.7175 15.7678L11.3033 14.3536ZM16.253 12.2322C16.5459 11.9393 16.9602 11.5251 16.253 10.818C15.5459 10.1109 15.1317 10.5251 14.8388 10.818L16.253 12.2322ZM12.7175 15.7678L16.253 12.2322L14.8388 10.818L11.3033 14.3536L12.7175 15.7678Z" fill="#9D9BA3"/>
</svg>
