<svg viewBox="0 0 24 24" fill="none" xmlns="http://www.w3.org/2000/svg">
<path d="M11.0333 8H11.9667C13.1264 8 14.0667 9.00736 14.0667 10.25C14.0667 11.4926 13.1264 12.5 11.9667 12.5H9.4C8.6268 12.5 8 13.1716 8 14C8 14.8284 8.6268 15.5 9.4 15.5H13.1333C14.1643 15.5 15 16.3954 15 17.5V19M7.75 8.25H8.25M17.069 19H6.93101C5.86454 19 5 18.1355 5 17.069V6.93103C5 5.86455 5.86454 5 6.93101 5H17.069C18.1355 5 19 5.86455 19 6.93103V17.069C19 18.1355 18.1355 19 17.069 19Z" stroke-width="2" stroke-linecap="round" stroke-linejoin="round"/>
</svg>
