<svg viewBox="0 0 24 24" fill="none" xmlns="http://www.w3.org/2000/svg">
<path d="M13.0805 5.83359C13.0146 5.35585 12.6062 5 12.1241 5H11.8759C11.3938 5 10.9854 5.35585 10.9195 5.83359L10.8354 6.44355C10.7817 6.8327 10.4941 7.14245 10.129 7.28752C10.0748 7.30909 10.0209 7.33157 9.96756 7.35494C9.60761 7.51266 9.18492 7.49914 8.87053 7.26336L8.57356 7.04063C8.18917 6.75234 7.65128 6.79056 7.31153 7.13032L7.13033 7.31153C6.79057 7.65128 6.75234 8.18916 7.04063 8.57355L7.26336 8.87053C7.49915 9.18491 7.51266 9.6076 7.35495 9.96756C7.33157 10.0209 7.30909 10.0748 7.28752 10.129C7.14245 10.4941 6.8327 10.7817 6.44355 10.8354L5.83359 10.9195C5.35585 10.9854 5 11.3937 5 11.8759V12.1241C5 12.6062 5.35585 13.0146 5.83359 13.0805L6.44355 13.1646C6.8327 13.2183 7.14245 13.5059 7.28752 13.871C7.30909 13.9252 7.33157 13.9791 7.35495 14.0324C7.51266 14.3924 7.49915 14.8151 7.26336 15.1294L7.04063 15.4264C6.75234 15.8108 6.79056 16.3487 7.13032 16.6885L7.31153 16.8697C7.65128 17.2094 8.18916 17.2477 8.57355 16.9594L8.87053 16.7366C9.18491 16.5009 9.6076 16.4873 9.96755 16.6451C10.0209 16.6685 10.0748 16.6909 10.129 16.7125C10.4941 16.8575 10.7817 17.1674 10.8354 17.5565L10.9195 18.1664C10.9854 18.6441 11.3938 19 11.8759 19H12.1241C12.6062 19 13.0146 18.6441 13.0805 18.1664L13.1646 17.5565C13.2183 17.1674 13.5059 16.8575 13.871 16.7125C13.9252 16.6909 13.9791 16.6685 14.0324 16.645C14.3924 16.4873 14.8151 16.5009 15.1294 16.7366L15.4264 16.9594C15.8108 17.2477 16.3487 17.2094 16.6885 16.8697L16.8697 16.6885C17.2094 16.3487 17.2477 15.8108 16.9594 15.4264L16.7366 15.1294C16.5009 14.8151 16.4873 14.3924 16.6451 14.0324C16.6685 13.9791 16.6909 13.9252 16.7125 13.871C16.8575 13.5059 17.1674 13.2183 17.5565 13.1646L18.1664 13.0805C18.6441 13.0146 19 12.6062 19 12.1241V11.8759C19 11.3938 18.6441 10.9854 18.1664 10.9195L17.5565 10.8354C17.1674 10.7817 16.8575 10.4941 16.7125 10.129C16.6909 10.0748 16.6685 10.0209 16.645 9.96755C16.4873 9.6076 16.5009 9.18491 16.7366 8.87052L16.9594 8.57357C17.2477 8.18918 17.2094 7.6513 16.8697 7.31154L16.6885 7.13034C16.3487 6.79058 15.8108 6.75236 15.4264 7.04065L15.1294 7.26336C14.8151 7.49915 14.3924 7.51266 14.0324 7.35494C13.9791 7.33157 13.9252 7.30909 13.871 7.28752C13.5059 7.14245 13.2183 6.8327 13.1646 6.44355L13.0805 5.83359Z"  stroke-width="2" stroke-linecap="round" stroke-linejoin="round"/>
<path d="M13.6241 12C13.6241 12.8285 12.9525 13.5 12.1241 13.5C11.2956 13.5 10.6241 12.8285 10.6241 12C10.6241 11.1715 11.2956 10.5 12.1241 10.5C12.9525 10.5 13.6241 11.1715 13.6241 12Z"  stroke-width="2" stroke-linecap="round" stroke-linejoin="round"/>
</svg>
