<svg viewBox="0 0 24 24" fill="none" xmlns="http://www.w3.org/2000/svg">
<path d="M17.5517 15.84H19M5 15.84H12.2414M5 8.16H7.41379M12.7241 8.16H19M17.069 15.84C17.069 17.0329 16.0963 18 14.8966 18C13.6968 18 12.7241 17.0329 12.7241 15.84C12.7241 14.6471 13.6968 13.68 14.8966 13.68C16.0963 13.68 17.069 14.6471 17.069 15.84ZM12.2414 8.16C12.2414 9.35294 11.2688 10.32 10.069 10.32C8.86917 10.32 7.89655 9.35294 7.89655 8.16C7.89655 6.96706 8.86917 6 10.069 6C11.2688 6 12.2414 6.96706 12.2414 8.16Z"  stroke-width="2" stroke-linecap="round" stroke-linejoin="round"/>
</svg>
