<svg viewBox="0 0 24 24" fill="none" xmlns="http://www.w3.org/2000/svg">
<path d="M7.89655 6.8768H19L17.4193 12.5214C17.214 13.3877 16.4357 14 15.5396 14H11.5554C10.6792 14 9.91281 13.4141 9.68861 12.5729L7.89655 6.8768ZM7.89655 6.8768L7.17241 4H5"  stroke-width="2" stroke-linecap="round" stroke-linejoin="round"/>
<path d="M10 20C11.1046 20 12 19.1046 12 18C12 16.8954 11.1046 16 10 16C8.89543 16 8 16.8954 8 18C8 19.1046 8.89543 20 10 20Z" fill="#9D9BA3"/>
<path d="M17 20C18.1046 20 19 19.1046 19 18C19 16.8954 18.1046 16 17 16C15.8954 16 15 16.8954 15 18C15 19.1046 15.8954 20 17 20Z" fill="#9D9BA3"/>
</svg>
