<svg viewBox="0 0 24 24" fill="none" xmlns="http://www.w3.org/2000/svg">
<path d="M19 12C19 15.866 15.866 19 12 19C8.13401 19 5 15.866 5 12C5 8.13401 8.13401 5 12 5C15.866 5 19 8.13401 19 12Z" stroke-width="2" stroke-linecap="round" stroke-linejoin="round"/>
<path d="M9.5 14C9.5 14 10.2222 15 12 15C13.7778 15 14.5 14 14.5 14" stroke-width="2" stroke-linecap="round" stroke-linejoin="round"/>
<path d="M11 10.25C11 10.9403 10.4403 11.5 9.75 11.5C9.05965 11.5 8.5 10.9403 8.5 10.25C8.5 9.55965 9.05965 9 9.75 9C10.4403 9 11 9.55965 11 10.25Z" fill="#9D9BA3"/>
<path d="M15.5 10.25C15.5 10.9403 14.9403 11.5 14.25 11.5C13.5597 11.5 13 10.9403 13 10.25C13 9.55965 13.5597 9 14.25 9C14.9403 9 15.5 9.55965 15.5 10.25Z" fill="#9D9BA3"/>
</svg>
