<svg viewBox="0 0 24 24" fill="none" xmlns="http://www.w3.org/2000/svg">
<path d="M13 7H18M13 13.6667H18M13 10.3333H18M13 17H18M9.5 9.85714V7.47619C9.5 7.47619 9.5 7 9 7H6.5C6.03977 7 6 7.47619 6 7.47619V9.85714C6 9.85714 6.03977 10.3333 6.5 10.3333H9C9.46023 10.3333 9.5 9.85714 9.5 9.85714Z"  stroke-width="2" stroke-linecap="round" stroke-linejoin="round"/>
<path d="M7 17.25L6.42384 17.7301C6.59298 17.9331 6.85641 18.0321 7.11735 17.9908C7.37829 17.9494 7.59824 17.7738 7.69635 17.5285L7 17.25ZM9.80107 14.2587C10.0821 13.9543 10.0631 13.4799 9.75867 13.1989C9.45428 12.9179 8.97983 12.9369 8.69888 13.2413L9.80107 14.2587ZM6.32618 15.2699C6.061 14.9517 5.58809 14.9087 5.26988 15.1738C4.95167 15.439 4.90868 15.9119 5.17385 16.2301L6.32618 15.2699ZM7.69635 17.5285C8.03865 16.6728 8.56132 15.855 9.01148 15.2398C9.23448 14.9351 9.43488 14.6865 9.57848 14.5152C9.65027 14.4296 9.70757 14.3637 9.74617 14.32C9.76547 14.2981 9.78007 14.2819 9.78937 14.2716C9.79407 14.2664 9.79737 14.2627 9.79937 14.2606L9.80107 14.2587C9.80107 14.2587 9.80107 14.2587 9.24998 13.75C8.69888 13.2413 8.69888 13.2413 8.69888 13.2413L8.69795 13.2423L8.69648 13.2439C8.69648 13.2439 8.6938 13.2468 8.69192 13.2489C8.68817 13.253 8.68301 13.2587 8.67651 13.2658C8.6635 13.2802 8.64514 13.3007 8.62194 13.327C8.57557 13.3795 8.50985 13.4551 8.42925 13.5512C8.26824 13.7432 8.04678 14.0181 7.80097 14.354C7.31367 15.02 6.71134 15.9522 6.30365 16.9715L7.69635 17.5285ZM5.17385 16.2301L6.42384 17.7301L7.57617 16.7699L6.32618 15.2699L5.17385 16.2301Z" fill="#9D9BA3"/>
</svg>
