<svg viewBox="0 0 24 24" fill="none" xmlns="http://www.w3.org/2000/svg">
<path d="M16 14C17.8871 14 18.66 16.0456 18.972 17.52C19.1404 18.3162 18.5266 19 17.7492 19H16.9078M15 10C16.215 10 17 8.88071 17 7.5C17 6.11929 16.215 5 15 5M5.88767 19H13.1123C13.6607 19 14.0923 18.554 13.983 18.0271C13.6813 16.5726 12.6959 14 9.5 14C6.30409 14 5.31874 16.5726 5.01703 18.0271C4.90774 18.554 5.33926 19 5.88767 19ZM12 7.5C12 8.88071 10.8807 10 9.5 10C8.11929 10 7 8.88071 7 7.5C7 6.11929 8.11929 5 9.5 5C10.8807 5 12 6.11929 12 7.5Z"  stroke-width="2" stroke-linecap="round" stroke-linejoin="round" stroke="currentColor" />
</svg>
