<svg width="1em" height="1em" viewBox="0 0 61 50" fill="none" xmlns="http://www.w3.org/2000/svg">
<path d="M59.9358 49.687H11.9703C11.5008 49.687 11.1096 49.2958 11.1096 48.8263V35.6025C5.24101 35.5243 0.389679 30.7512 0.389679 24.8044C0.389679 18.8576 5.16276 14.0845 11.1096 14.0063V0.86072C11.1096 0.391236 11.5008 0 11.9703 0H59.9358C60.4053 0 60.7966 0.391236 60.7966 0.86072V18.1534L58.6839 17.7621C58.2144 17.6839 57.7449 17.6056 57.3537 17.6056C53.3631 17.6056 50.0767 20.892 50.0767 24.8826C50.0767 28.8732 53.3631 32.1596 57.3537 32.1596C57.8232 32.1596 58.2144 32.0814 58.6839 32.0031L60.7966 31.6119V48.9045C60.7966 49.2958 60.4053 49.687 59.9358 49.687ZM14.6307 46.1659H57.2754V35.6025C51.4069 35.5243 46.5556 30.7512 46.5556 24.8044C46.5556 18.8576 51.3286 14.0845 57.2754 14.0063V3.52113H14.6307V18.1534L12.518 17.7621C12.0485 17.6839 11.579 17.6056 11.1878 17.6056C7.19719 17.6056 3.91081 20.892 3.91081 24.8826C3.91081 28.8732 7.19719 32.1596 11.1878 32.1596C11.6573 32.1596 12.0485 32.0814 12.518 32.0031L14.6307 31.6119V46.1659Z" fill="currentColor"/>
</svg>
