<svg width="1em" height="1em" viewBox="0 0 51 50" fill="none" xmlns="http://www.w3.org/2000/svg">
<path d="M26.2644 22.457C25.0907 21.518 23.8388 20.7355 22.5086 20.1095C25.169 18.1534 26.8904 15.0235 26.8904 11.4241C26.8904 5.47731 22.0391 0.625977 16.0923 0.625977C10.1455 0.625977 5.29417 5.47731 5.29417 11.4241C5.29417 14.9452 7.01559 18.1534 9.676 20.1095C4.12044 22.6135 0.286316 28.169 0.286316 34.5853H3.80745C3.80745 27.7778 9.36302 22.2222 16.0923 22.2222C18.9874 22.2222 21.8044 23.2394 23.9953 25.1174L26.2644 22.457ZM8.8153 11.4241C8.8153 7.43349 12.1017 4.1471 16.0923 4.1471C20.0829 4.1471 23.3693 7.43349 23.3693 11.4241C23.3693 15.4147 20.0829 18.7011 16.0923 18.7011C12.1017 18.7793 8.8153 15.493 8.8153 11.4241ZM50.7559 47.4961L43.0094 39.7496C44.3396 37.9499 45.0438 35.759 45.0438 33.4898C45.0438 30.5947 43.9484 27.856 41.8357 25.8216C37.6103 21.5962 30.7245 21.5962 26.4992 25.8216C24.4647 27.856 23.2911 30.5947 23.2911 33.4898C23.2911 36.385 24.3865 39.1236 26.4992 41.1581C28.6119 43.2707 31.3506 44.2879 34.1675 44.2879C36.3584 44.2879 38.5493 43.5837 40.4272 42.2535L48.1737 50L50.7559 47.4961ZM29.0814 38.5759C27.6729 37.1674 26.9687 35.3678 26.9687 33.4116C26.9687 31.4554 27.7512 29.6557 29.0814 28.2473C30.4898 26.8388 32.3678 26.1346 34.2457 26.1346C36.1236 26.1346 38.0015 26.8388 39.41 28.2473C40.8184 29.6557 41.5227 31.4554 41.5227 33.4116C41.5227 35.3678 40.7402 37.1674 39.41 38.5759C36.5148 41.471 31.8983 41.471 29.0814 38.5759Z" fill="currentColor"/>
</svg>
