<svg width="1em" height="1em" viewBox="0 0 51 50" fill="none" xmlns="http://www.w3.org/2000/svg">
<path d="M0.525818 0.86072V48.8263C0.525818 49.2958 0.917059 49.687 1.38654 49.687H49.3521C49.8216 49.687 50.2128 49.2958 50.2128 48.8263V0.86072C50.2128 0.391236 49.8216 0 49.3521 0H1.38654C0.917059 0 0.525818 0.391236 0.525818 0.86072ZM23.6088 11.3459V21.1268H4.04694V11.3459H23.6088ZM23.6088 24.6479V33.4898H4.04694V24.6479H23.6088ZM27.1299 24.6479H46.6917V33.4898H27.1299V24.6479ZM27.1299 21.1268V11.3459H46.6917V21.1268H27.1299ZM4.04694 37.011H23.6088V46.1659H4.04694V37.011ZM27.1299 46.1659V37.011H46.6917V46.1659H27.1299Z" fill="currentColor"/>
</svg>
