<svg width="1em" height="1em" viewBox="0 0 40 50" fill="none" xmlns="http://www.w3.org/2000/svg">
<path d="M18.6729 18.4664H22.1941V29.3427H18.6729V18.4664ZM4.35368 41.9405C4.11894 44.3662 5.9969 46.4006 8.34431 46.4006H39.7214V49.9217H8.34431C4.27546 49.9217 0.910828 46.6354 0.754333 42.5665V1.09546C0.754333 0.625977 1.14555 0.234741 1.61503 0.234741H39.0954C39.5649 0.234741 39.9561 0.625977 39.9561 1.09546V37.4804C39.9561 37.9499 39.5649 38.3412 39.0954 38.3412H8.57904C6.46637 38.3412 4.58842 39.8279 4.35368 41.9405ZM8.42254 34.82H36.5915V3.75587H4.43196V35.9937C5.52742 35.2113 6.93585 34.82 8.42254 34.82ZM20.4726 13.8498C21.8028 13.8498 22.82 12.8325 22.82 11.5023C22.82 10.1721 21.8028 9.15493 20.4726 9.15493C19.1424 9.15493 18.1252 10.1721 18.1252 11.5023C18.1252 12.8325 19.1424 13.8498 20.4726 13.8498Z" fill="currentColor"/>
</svg>
