<svg width="1em" height="1em" viewBox="0 0 47 50" fill="none" xmlns="http://www.w3.org/2000/svg">
<path d="M36.4554 32.6291H10.3208V29.108H36.4554V32.6291ZM31.5258 36.7762H10.3208V40.2973H31.5258V36.7762ZM19.7887 17.3709L25.579 23.1612L37.7074 10.9546L35.2034 8.4507L25.5008 18.1534L19.7105 12.3631L8.99062 23.0829L11.4945 25.5869L19.7887 17.3709ZM46.784 48.8263V0.86072C46.784 0.391236 46.3928 0 45.9233 0H1.24412C0.77464 0 0.383423 0.391236 0.383423 0.86072V48.8263C0.383423 49.2958 0.77464 49.687 1.24412 49.687H45.9233C46.3928 49.687 46.784 49.2958 46.784 48.8263ZM3.90455 3.52113H43.2629V46.1659H3.90455V3.52113Z" fill="currentColor"/>
</svg>
