<svg width="1em" height="1em" viewBox="0 0 56 50" fill="none" xmlns="http://www.w3.org/2000/svg">
<path d="M44.7679 21.5636C41.9552 20.7042 39.2207 20.8604 36.7206 21.5636C35.5487 20.7823 34.8455 19.4541 34.8455 17.9697C34.8455 15.5477 36.7987 13.5944 39.2207 13.5944C39.4551 13.5944 39.7676 13.5944 40.002 13.6726L42.1115 14.0632V0.859418C42.1115 0.390645 41.7209 0 41.2521 0H8.12541C7.65664 0.0781289 7.26599 0.468774 7.26599 0.937547V9.60986C3.20329 9.92237 0 13.36 0 17.5009C0 21.6417 3.20329 25.0013 7.26599 25.3138V33.9861C7.26599 34.4549 7.65664 34.8455 8.12541 34.8455H26.4857C26.4857 35.0018 26.4857 35.158 26.4857 35.3143C26.4857 43.2053 32.8923 49.69 40.8614 49.69C49.4556 49.69 56.2528 42.1896 55.0809 33.361C54.2215 27.8139 50.1588 23.1262 44.7679 21.5636ZM32.0329 21.3292H23.6731V13.5944H32.5798C31.7203 14.8445 31.2516 16.3289 31.2516 17.9697C31.2516 19.1416 31.5641 20.3135 32.0329 21.3292ZM38.5176 10.1568H23.6731V3.59393H38.5176V10.1568ZM20.1573 3.59393V10.1568H10.7818V3.59393H20.1573ZM7.89102 21.798C5.46903 21.798 3.5158 19.8447 3.5158 17.4228C3.5158 15.0008 5.46903 13.0475 7.89102 13.0475C8.12541 13.0475 8.43793 13.0475 8.67231 13.1257L10.7037 13.5163H20.1573V21.2511H10.7818L8.67231 21.6417C8.3598 21.798 8.12541 21.798 7.89102 21.798ZM10.7818 24.845H20.2354V31.3297H10.7818V24.845ZM23.6731 31.3297V24.845H30.9391C29.064 26.5638 27.6576 28.8296 26.9545 31.3297H23.6731ZM40.7833 46.1742C34.7674 46.1742 29.9234 41.3302 29.9234 35.3143C29.9234 29.2983 34.7674 24.4544 40.7833 24.4544C46.1742 24.4544 50.6276 28.3608 51.487 33.5173H42.5021V27.0326H38.9863V37.0331H51.4088C50.6276 42.2677 46.0961 46.1742 40.7833 46.1742Z" fill="currentColor"/>
</svg>
