<svg width="1em" height="1em" viewBox="0 0 61 50" fill="none" xmlns="http://www.w3.org/2000/svg">
<path d="M10.7199 35.8372C4.85133 35.759 0 30.9077 0 24.9609C0 19.0141 4.85133 14.1628 10.7199 14.1628V10.8764H14.241V18.2316L12.1283 17.8404C11.6588 17.7621 11.1894 17.6839 10.7981 17.6839C6.80751 17.6839 3.52113 20.9703 3.52113 24.9609C3.52113 28.9515 6.80751 32.2379 10.7981 32.2379C11.2676 32.2379 11.6588 32.1596 12.1283 32.0814L14.241 31.6901V39.1236H10.7199V35.8372ZM34.1158 0H24.4131V3.52113H34.1158V0ZM14.3192 42.8013H10.7981V49.1393C10.7981 49.6088 11.1894 50 11.6588 50H20.7355V46.4789H14.3192V42.8013ZM47.4961 0H37.7934V3.52113H47.4961V0ZM60.1721 28.9515C60.4851 29.2645 60.4851 29.734 60.1721 30.0469L40.2973 50H34.1158H32.8638H24.4131V46.4789H32.8638V42.5665L52.8169 22.6135C53.1299 22.3005 53.5994 22.3005 53.9124 22.6135L60.1721 28.9515ZM55.7903 29.4992L53.2864 26.9953L36.3067 43.975V46.4789H38.8106L55.7903 29.4992ZM57.1987 18.2316H60.7199V10.8764H57.1987V18.2316ZM10.7199 0.86072V7.19875H14.241V3.52113H20.6573V0H11.5806C11.1111 0 10.7199 0.391236 10.7199 0.86072ZM59.8592 0H51.1737V3.52113H57.1987V7.1205H60.7199V0.86072C60.7199 0.391236 60.3286 0 59.8592 0Z" fill="currentColor"/>
</svg>
