<svg width="24" height="24" viewBox="0 0 24 24" fill="none" xmlns="http://www.w3.org/2000/svg">
<path fill-rule="evenodd" clip-rule="evenodd" d="M7.58973 2H15.9565C16.7542 1.99999 17.4066 1.99998 17.9368 2.0433C18.4856 2.08814 18.9812 2.18378 19.4441 2.41963C20.1685 2.78874 20.7575 3.37772 21.1266 4.10214C21.3624 4.56502 21.4581 5.06066 21.5029 5.60945C21.5462 6.13964 21.5462 6.79202 21.5462 7.58972V12.9949C21.5462 13.7926 21.5462 14.445 21.5029 14.9752C21.4581 15.524 21.3624 16.0196 21.1266 16.4825C20.7575 17.2069 20.1685 17.7959 19.4441 18.165C18.9812 18.4009 18.4856 18.4965 17.9368 18.5414C17.4066 18.5847 16.7542 18.5847 15.9565 18.5847H13.4353C12.7836 18.5847 12.581 18.5889 12.3952 18.627C12.2122 18.6645 12.0352 18.7266 11.8688 18.8116C11.6999 18.8979 11.5391 19.0212 11.0302 19.4283L8.64966 21.3328C8.46675 21.4791 8.28519 21.6244 8.12659 21.7293C7.97429 21.83 7.69364 21.9996 7.33229 22C6.9114 22.0005 6.51324 21.8091 6.25066 21.4801C6.02523 21.1977 5.98238 20.8726 5.96586 20.6908C5.94866 20.5014 5.9487 20.2689 5.94874 20.0346L5.94874 18.5793C5.52445 18.5689 5.17258 18.539 4.85357 18.4535C3.52496 18.0975 2.4872 17.0597 2.1312 15.7311C1.99936 15.2391 1.99962 14.6689 1.99998 13.8753C1.99999 13.8333 2.00001 13.7907 2.00001 13.7475L2.00001 7.58972C2 6.79202 1.99999 6.13964 2.04331 5.60945C2.08815 5.06066 2.18379 4.56502 2.41964 4.10214C2.78875 3.37772 3.37773 2.78874 4.10216 2.41963C4.56503 2.18378 5.06068 2.08814 5.60946 2.0433C6.13966 1.99998 6.79204 1.99999 7.58973 2ZM5.75416 3.81433C5.31526 3.85019 5.07949 3.91594 4.90886 4.00288C4.51879 4.20163 4.20165 4.51878 4.00289 4.90885C3.91595 5.07948 3.8502 5.31525 3.81434 5.75415C3.77763 6.20342 3.77694 6.78297 3.77694 7.62694V13.7475C3.77694 14.7227 3.78457 15.0361 3.84758 15.2712C4.03927 15.9866 4.59807 16.5454 5.31347 16.7371C5.54862 16.8001 5.86195 16.8077 6.83721 16.8077C7.32789 16.8077 7.72567 17.2055 7.72567 17.6962V19.7964L9.92016 18.0408C9.94127 18.0239 9.96208 18.0072 9.98263 17.9908C10.4033 17.654 10.7107 17.4079 11.0604 17.2292C11.3693 17.0714 11.6981 16.9561 12.038 16.8863C12.4226 16.8074 12.8163 16.8075 13.3553 16.8077C13.3816 16.8077 13.4083 16.8077 13.4353 16.8077H15.9193C16.7633 16.8077 17.3428 16.807 17.7921 16.7703C18.231 16.7345 18.4667 16.6687 18.6374 16.5818C19.0274 16.383 19.3446 16.0659 19.5433 15.6758C19.6303 15.5052 19.696 15.2694 19.7319 14.8305C19.7686 14.3812 19.7693 13.8017 19.7693 12.9577V7.62694C19.7693 6.78297 19.7686 6.20342 19.7319 5.75415C19.696 5.31525 19.6303 5.07948 19.5433 4.90885C19.3446 4.51878 19.0274 4.20163 18.6374 4.00288C18.4667 3.91594 18.231 3.85019 17.7921 3.81433C17.3428 3.77762 16.7633 3.77693 15.9193 3.77693H7.62695C6.78298 3.77693 6.20344 3.77762 5.75416 3.81433Z" fill="white"/>
<g clip-path="url(#clip0_2518_8932)">
<path d="M12.1754 6.6665L12.7839 8.33645C12.8829 8.60802 12.9324 8.7438 13.0093 8.85802C13.0775 8.95924 13.1613 9.04769 13.2572 9.11966C13.3654 9.20088 13.494 9.2531 13.7513 9.35755L15.3333 9.99984L13.7513 10.6421C13.494 10.7466 13.3654 10.7988 13.2572 10.88C13.1613 10.952 13.0775 11.0404 13.0093 11.1417C12.9324 11.2559 12.8829 11.3917 12.7839 11.6632L12.1754 13.3332L11.567 11.6632C11.468 11.3917 11.4185 11.2559 11.3416 11.1417C11.2734 11.0404 11.1896 10.952 11.0937 10.88C10.9855 10.7988 10.8569 10.7466 10.5996 10.6421L9.01755 9.99984L10.5996 9.35755C10.8569 9.2531 10.9855 9.20088 11.0937 9.11966C11.1896 9.04769 11.2734 8.95924 11.3416 8.85802C11.4185 8.7438 11.468 8.60802 11.567 8.33645L12.1754 6.6665Z" fill="white"/>
<path d="M9.71929 11.1108L9.92212 11.6675C9.9551 11.758 9.97159 11.8033 9.99724 11.8413C10.02 11.8751 10.0479 11.9046 10.0799 11.9286C10.1159 11.9556 10.1588 11.973 10.2446 12.0079L10.7719 12.222L10.2446 12.436C10.1588 12.4709 10.1159 12.4883 10.0799 12.5153C10.0479 12.5393 10.02 12.5688 9.99724 12.6026C9.97159 12.6406 9.9551 12.6859 9.92212 12.7764L9.71929 13.3331L9.51646 12.7764C9.48348 12.6859 9.46698 12.6406 9.44134 12.6026C9.41861 12.5688 9.39068 12.5393 9.35871 12.5153C9.32265 12.4883 9.27977 12.4709 9.19401 12.436L8.66666 12.222L9.19401 12.0079C9.27977 11.973 9.32265 11.9556 9.35871 11.9286C9.39068 11.9046 9.41861 11.8751 9.44134 11.8413C9.46698 11.8033 9.48348 11.758 9.51646 11.6675L9.71929 11.1108Z" fill="white"/>
<path d="M9.36841 7.03711L9.50363 7.40821C9.52562 7.46856 9.53661 7.49873 9.55371 7.52411C9.56886 7.54661 9.58748 7.56626 9.60879 7.58226C9.63284 7.6003 9.66142 7.61191 9.7186 7.63512L10.0702 7.77785L9.7186 7.92058C9.66143 7.94379 9.63284 7.9554 9.60879 7.97344C9.58748 7.98944 9.56886 8.00909 9.55371 8.03159C9.53661 8.05697 9.52562 8.08714 9.50363 8.14749L9.36841 8.51859L9.23319 8.14749C9.2112 8.08714 9.20021 8.05697 9.18311 8.03159C9.16796 8.00909 9.14934 7.98944 9.12803 7.97344C9.10398 7.9554 9.0754 7.94379 9.01822 7.92058L8.66666 7.77785L9.01822 7.63512C9.0754 7.61191 9.10398 7.6003 9.12803 7.58226C9.14934 7.56626 9.16796 7.54661 9.18311 7.52411C9.20021 7.49873 9.2112 7.46856 9.23319 7.40821L9.36841 7.03711Z" fill="white"/>
</g>
<defs>
<clipPath id="clip0_2518_8932">
<rect width="8" height="8" fill="white" transform="translate(8 6)"/>
</clipPath>
</defs>
</svg>
