<svg xmlns="http://www.w3.org/2000/svg" viewBox="0 0 2021 1528">
  <defs/>
  <defs>
    <clipPath id="a">
      <path d="M0 0h2021v1528H0z"/>
    </clipPath>
  </defs>
  <g clip-path="url(#a)" data-name="Large Grey Data Map">
    <path fill="transparent" d="M0 0h2021v1528H0z"/>
    <g fill="none" stroke="#e5e5e5" stroke-miterlimit="10" data-name="Group 2102">
      <g data-name="Group 1891">
        <path stroke-width=".25" d="M482.896 357.35c-.65 1.811-1.332 3.7-2.066 5.669-2.564 6.874-4.9 14.341-3.078 21.477 3.791 14.823 19.377-1.286 24.712-6.058 3.476-3.11 8.066-11.654 12.627-12.951 7.018-2 13.256 8.888 20.164 3.973 2.434-1.732 3.817-4.546 5.105-7.242q5.465-11.435 10.927-22.87c1.648-3.45 3.34-7.2 2.616-10.994-2.539-12.839-34.624-7.675-42.684-4.287-14.3 6.012-23.221 19.078-28.323 33.283z" data-name="Path 15506"/>
        <path stroke-width=".318" d="M519.158 308.215c-5.065 1.667-9.862 3.917-13.093 7.794-5.985 7.178-11.456 16.09-17.261 23.978-7.426 10.055-12.846 18.07-17.3 29.825-.995 2.622-2.378 5.573-3.76 8.628a44.741 44.741 0 00-3.591 10.155c-1.332 7.56-1.414 16.184 1.748 22.915 4.063 8.643 10.943 8.292 17.564 3.8 2.556-1.734 6.612-3.147 9.091-5.318a94.227 94.227 0 0111.251-8.677c2.135-1.309 4.325-3.085 6.52-4.619 4.829-3.371 10-5.427 14.71-7.689 2.19-1.06 4.507-3.151 6.265-3.942 3.363-1.516 3.681-3.141 6.351-4.666a48.9 48.9 0 016.968-3.687c2.992-1.2 7.008-1.376 10.86-2.781a19.962 19.962 0 002.746-1.205c4.17-2.311 8.777-4.345 11.859-7.922 3.17-3.681 4.438-9.3 6.744-13.8 2.374-4.649 5.349-10.3 5.652-14.747a94.83 94.83 0 00.176-3.436c.155-4.686.381-9.833-2.489-12.382a18.445 18.445 0 00-9.718-4.609c-2.118-.293-4.829-.445-7.311-.837-2.1-.332-4.481.282-6.069-.834-2.478-1.742-1.9-1.953-3.363-3.547-2.794-3.057-10.349-5.487-16.472-6.125-6.685-.7-13.473 2.21-18.078 3.728z" data-name="Path 15507"/>
        <path stroke-width=".386" d="M525.44 293.041c-7.386 2.2-14.469 5.249-18.555 11.4-7.363 11.1-14.337 24.91-22.665 36.1-11.117 14.896-19.028 25.03-25.766 42.418-1.33 3.434-3.421 7.443-5.448 11.585-2.3 4.668-4.452 9.475-4.971 13.733-1.242 10.2-.813 22.4 4.358 30.931 6.133 10.119 15.433 9.513 23.779 3.049 3.1-2.4 9.136-3.758 12.167-6.548a75.123 75.123 0 0115.157-10.839c3.114-1.594 6.274-3.5 9.272-4.835 7.008-3.128 14.189-3.172 20.561-6.826 2.982-1.723 6.236-6.2 8.419-8 4.737-3.908 3.511-7.919 6.92-12.171 2.633-3.283 4.676-6.776 8.959-9.526 4.249-2.729 10.542-2.873 16.424-4.433a29.837 29.837 0 004.35-1.447c6.587-2.905 14.5-4.732 19.754-9.565 4.548-4.185 5.724-12 8.758-17.706 3.1-5.837 7.365-13.695 6.347-19.114-.266-1.409-.56-2.852-.887-4.277-1.37-5.945-3-12.342-7.595-13.771-4.266-1.326-8.735-3.626-14.73-3.484a72.625 72.625 0 01-10.193-.1c-2.974-.368-6.407.981-8.246-1.021-3.12-3.394-.18-3.358-1.079-6.815-1.443-5.556-11.859-11.362-20.107-13.377-8.538-2.088-18.011 2.563-24.983 4.639z" data-name="Path 15508"/>
        <path stroke-width=".455" d="M531.536 277.871c-9.707 2.735-19.089 6.573-24.018 15.015-8.76 15.006-17.219 33.729-28.07 48.219-14.808 19.729-25.2 31.985-34.231 55-1.665 4.247-4.465 9.314-7.141 14.54-3.051 5.933-5.88 12.041-6.349 17.313-1.142 12.85-.257 28.641 6.97 38.947 8.15 11.627 19.931 10.747 29.992 2.3 3.641-3.059 11.659-4.369 15.245-7.777a76.084 76.084 0 0119.059-13 103.6 103.6 0 0112.025-5.052c9.212-2.836 18.382-.92 26.412-5.966 3.773-2.384 7.922-9.254 10.573-12.052 6.016-6.349 3.379-12.7 7.489-19.674 3.156-5.353 5.366-11.056 10.95-15.37 5.512-4.256 14.076-4.36 21.987-6.083a40.5 40.5 0 005.954-1.688c9-3.5 20.178-5.19 27.652-11.209 5.887-4.741 7.008-14.7 10.77-21.608 3.816-7.027 9.364-17.089 7.041-23.484a148.21 148.21 0 00-1.951-5.119c-2.915-7.2-6.372-14.672-12.7-15.159-6.3-.485-11.987-3.239-19.741-2.359-3.764.427-8.923 1.064-13.078.629-3.85-.4-8.311 1.673-10.425-1.207-3.718-5.069 1.407-4.793 1.209-10.084-.3-8.126-13.382-17.2-23.742-20.628-10.402-3.436-22.547 2.923-31.882 5.556z" data-name="Path 15509"/>
        <path stroke-width=".523" d="M537.615 262.69c-12.024 3.3-23.716 7.9-29.482 18.626-10.166 18.911-20.099 42.548-33.474 60.338-18.5 24.566-31.32 38.968-42.7 67.592-1.991 5.063-5.51 11.186-8.833 17.5-3.8 7.194-7.307 14.607-7.727 20.891-1.037 15.494.278 34.9 9.58 46.964 10.147 13.154 24.438 11.987 36.207 1.547 4.189-3.716 14.185-4.983 18.321-9.005a81.217 81.217 0 0122.964-15.161 87.328 87.328 0 0114.777-5.27c11.416-2.507 22.573 1.336 32.263-5.1 4.565-3.045 9.594-12.309 12.727-16.106 7.256-8.791 3.252-17.489 8.06-27.179 3.683-7.426 6.058-15.333 12.942-21.211 6.773-5.784 17.606-5.843 27.55-7.733a50.53 50.53 0 007.555-1.932c11.422-4.1 25.833-5.688 35.549-12.851 7.219-5.322 8.294-17.4 12.784-25.511 4.536-8.216 11.355-20.477 7.735-27.849a216.867 216.867 0 00-3.013-5.962c-4.467-8.442-9.691-16.956-17.8-16.548-8.285.418-15.239-2.855-24.752-1.232-4.584.776-10.961 1.815-15.961 1.356-4.724-.435-10.2 2.365-12.6-1.393-4.3-6.746 2.963-6.267 3.5-13.352.809-10.772-14.915-23.03-27.38-27.884-12.28-4.782-27.083 3.301-38.792 6.465z" data-name="Path 15510"/>
        <path stroke-width=".591" d="M543.696 247.506c-14.344 3.833-28.342 9.224-34.944 22.238-11.577 22.815-22.982 51.364-38.878 72.456-22.19 29.4-37.489 45.929-51.161 80.179-2.328 5.88-6.554 13.06-10.525 20.458-4.551 8.457-8.731 17.173-9.1 24.469-.929 18.139.8 41.182 12.19 54.98 12.135 14.7 28.949 13.231 42.422.8 4.737-4.373 16.709-5.594 21.4-10.236 6.853-6.763 17.129-13.34 26.868-17.322 6.054-2.474 12.156-4.632 17.531-5.485 13.618-2.162 26.765 3.589 38.114-4.243 5.356-3.708 11.257-15.36 14.881-20.161 8.476-11.23 3.128-22.28 8.63-34.683 4.214-9.5 6.752-19.609 14.933-27.05 8.039-7.313 21.138-7.326 33.114-9.385a60.9 60.9 0 009.152-2.176c13.838-4.691 31.475-6.211 43.445-14.5 8.549-5.916 9.582-20.094 14.8-29.413 5.257-9.4 13.344-23.859 8.428-32.217-1.309-2.229-2.664-4.536-4.076-6.805-6.021-9.68-12.974-19.231-22.9-17.936-10.249 1.34-18.497-2.47-29.772-.103-5.414 1.138-13.014 2.578-18.844 2.095-5.6-.466-12.1 3.057-14.779-1.581-4.873-8.421 4.519-7.758 5.782-16.619 1.916-13.452-16.455-28.848-31.014-35.136-14.16-6.117-31.619 3.657-45.697 7.376z" data-name="Path 15511"/>
        <path stroke-width=".659" d="M549.781 232.319c-16.665 4.369-32.97 10.548-40.408 25.847-12.989 26.725-25.861 60.185-44.282 84.577-25.881 34.241-43.66 52.891-59.625 92.768-2.664 6.692-7.6 14.931-12.217 23.413-5.3 9.72-10.157 19.741-10.485 28.049-.818 20.783 1.318 47.471 14.8 63 14.116 16.253 33.462 14.477 48.637.046 5.287-5.029 19.233-6.205 24.473-11.464 7.624-7.631 19.408-15.03 30.774-19.482 7.026-2.783 14.112-5 20.283-5.7 15.814-1.805 30.956 5.845 43.964-3.381 6.15-4.369 12.919-18.409 17.035-24.214 9.691-13.67 3-27.075 9.2-42.188 4.747-11.579 7.459-23.873 16.924-32.893 9.318-8.827 24.672-8.806 38.679-11.033a71.306 71.306 0 0010.759-2.417c16.255-5.287 37.115-6.752 51.345-16.138 9.879-6.518 10.866-22.794 16.811-33.317 5.979-10.594 15.331-27.24 9.122-36.586-1.66-2.5-3.367-5.094-5.138-7.646-7.576-10.916-16.242-21.5-28.01-19.323-12.183 2.248-21.75-2.102-34.773 1.01-6.24 1.493-15.063 3.336-21.73 2.827-6.476-.5-13.982 3.75-16.954-1.767-5.441-10.1 6.073-9.258 8.068-19.889 3.03-16.144-18-34.658-34.651-42.387-16.047-7.449-36.158 4.015-52.601 8.288z" data-name="Path 15512"/>
        <path stroke-width=".727" d="M555.864 217.128c-18.992 4.906-37.635 11.857-45.871 29.459-14.461 30.6-28.742 69-49.687 96.7-29.57 39.076-49.829 59.85-68.09 105.355-3 7.5-8.643 16.8-13.907 26.372-6.052 10.981-11.567 22.305-11.863 31.625-.674 23.424 1.826 53.762 17.412 71.01 16.094 17.811 37.978 15.722 54.85-.705 5.837-5.684 21.759-6.817 27.548-12.694 8.394-8.5 21.7-16.7 34.679-21.644 8-3.072 16.065-5.36 23.035-5.918 18.007-1.441 35.149 8.1 49.815-2.518 6.941-5.034 14.578-21.458 19.189-28.271 10.9-16.1 2.882-31.868 9.77-49.691 5.278-13.658 8.151-28.152 18.913-38.735 10.582-10.356 28.208-10.259 44.242-12.683a80.751 80.751 0 0012.363-2.66c18.674-5.881 42.749-7.3 59.24-17.78 11.213-7.125 12.152-25.494 18.825-37.219 6.7-11.784 17.32-30.619 9.818-40.956-2.01-2.767-4.07-5.652-6.2-8.488-9.132-12.15-19.5-23.777-33.114-20.713-14.114 3.181-25.005-1.714-39.787 2.146-7.066 1.846-17.11 4.107-24.612 3.559-7.351-.514-15.868 4.444-19.133-1.953-6-11.771 7.631-10.764 10.356-23.156 4.143-18.85-19.547-40.471-38.286-49.643-17.936-8.777-40.697 4.371-59.505 9.201z" data-name="Path 15513"/>
        <path stroke-width=".795" d="M561.954 201.93c-21.309 5.441-42.257 13.185-51.335 33.068-15.862 34.509-31.623 77.817-55.089 108.817-33.263 43.913-56 66.812-76.557 117.944-3.335 8.317-9.687 18.674-15.6 29.329-6.8 12.244-13 24.871-13.24 35.2-.569 26.071 2.338 60.068 20.023 79.029 18.074 19.377 42.529 17.006 61.065-1.455 6.4-6.328 24.285-7.43 30.626-13.923 9.162-9.369 23.984-18.365 38.583-23.806 8.984-3.365 18.02-5.722 25.787-6.134 20.2-1.073 39.34 10.351 55.666-1.658 7.735-5.7 16.236-24.505 21.343-32.324 12.108-18.537 2.8-36.651 10.339-57.2 5.837-15.726 8.842-32.431 20.906-44.574 11.845-11.889 31.738-11.746 49.806-14.335a91.391 91.391 0 0013.965-2.9c21.09-6.479 48.384-7.863 67.138-19.427 12.545-7.733 13.436-28.192 20.837-41.12 7.422-12.972 19.31-34 10.512-45.323-2.357-3.036-4.774-6.211-7.263-9.331-10.689-13.375-22.745-26.045-38.22-22.092-16.039 4.1-28.267-1.361-44.8 3.269-7.9 2.189-19.156 4.864-27.5 4.291-8.227-.546-17.754 5.142-21.31-2.139-6.561-13.444 9.197-12.273 12.651-26.421 5.259-21.56-21.1-46.279-41.922-56.894-19.829-10.106-45.237 4.724-66.411 10.109z" data-name="Path 15514"/>
        <path stroke-width=".864" d="M568.05 186.738c-23.631 5.977-46.879 14.513-56.8 36.678-17.265 38.422-34.5 86.641-60.493 120.935-36.952 48.75-62.168 73.774-85.02 130.533-3.67 9.132-10.732 20.546-17.292 32.286-7.553 13.507-14.423 27.437-14.62 38.782-.464 28.716 2.844 66.373 22.635 87.047 20.05 20.944 47.036 18.242 67.279-2.208 6.945-6.983 26.807-8.039 33.7-15.151 9.935-10.237 26.274-20.032 42.489-25.965 9.965-3.658 19.971-6.085 28.539-6.353 22.386-.7 43.533 12.606 61.519-.8 8.524-6.357 17.892-27.55 23.5-36.379 13.313-20.969 2.662-41.452 10.91-64.7 6.361-17.809 9.534-36.713 22.9-50.415 13.11-13.419 35.27-13.233 55.371-15.985a102.085 102.085 0 0015.567-3.143c23.507-7.073 54.016-8.426 75.035-21.069 13.877-8.346 14.722-30.891 22.851-45.024 8.143-14.16 21.28-37.357 11.205-49.691-2.714-3.3-5.481-6.765-8.329-10.172-12.259-14.6-25.985-28.33-43.32-23.489-17.961 5.015-31.523-.974-49.809 4.4-8.72 2.545-21.2 5.619-30.379 5.023-9.1-.579-19.639 5.835-23.488-2.325-7.137-15.116 10.742-13.782 14.921-29.692 6.374-24.273-22.65-52.086-45.559-64.148-21.718-11.435-49.771 5.084-73.312 11.025z" data-name="Path 15515"/>
        <path stroke-width=".932" d="M574.142 171.53c-25.952 6.514-51.5 15.841-62.26 40.289-18.666 42.334-37.385 95.458-65.9 133.055-40.643 53.587-68.339 80.735-93.486 143.12-4.004 9.944-11.775 22.419-18.987 35.244-8.3 14.77-15.849 30-16 42.36-.36 31.36 3.313 72.718 25.247 95.064 21.987 22.552 51.542 19.48 73.492-2.957 7.493-7.645 29.333-8.653 36.778-16.381 10.7-11.106 28.562-21.7 46.393-28.127 10.945-3.95 21.924-6.426 31.291-6.568 24.572-.28 47.726 14.86 67.37.065 9.318-7.02 19.549-30.6 25.651-40.434 14.515-23.4 2.528-46.251 11.479-72.2 6.882-19.892 10.226-40.994 24.887-56.256 14.373-14.952 38.8-14.722 60.934-17.637a112.552 112.552 0 0017.169-3.384c25.923-7.669 59.646-8.994 82.933-22.711 15.211-8.961 16.006-33.591 24.863-48.928s23.279-40.739 11.9-54.058c-3.059-3.572-6.18-7.325-9.39-11.016-13.797-15.843-29.221-30.611-48.421-24.881-19.879 5.933-34.777-.588-54.819 5.521-9.546 2.9-23.248 6.376-33.263 5.757-9.977-.613-21.508 6.525-25.665-2.512-7.664-16.8 12.309-15.295 17.215-32.96 7.493-26.989-24.218-57.866-49.194-71.4-23.626-12.737-54.311 5.443-80.217 11.935z" data-name="Path 15516"/>
        <path d="M441.211 345.422c-44.334 58.422-74.51 87.7-101.951 155.708-9.343 23.159-37.865 59.171-38.053 84.141-.255 34 3.856 78.993 27.857 103.08s56.051 20.718 79.707-3.708c8.041-8.3 31.858-9.264 39.854-17.61 18.511-19.317 57.588-37.123 84.341-37.073s51.918 17.114 73.22.928c10.109-7.681 21.205-33.643 27.805-44.488 15.718-25.831 2.394-51.053 12.048-79.707 7.407-21.977 10.918-45.273 26.878-62.1 19.862-20.935 57.565-14.835 85.269-22.913 28.342-8.264 65.281-9.565 90.83-24.356 16.544-9.576 17.294-36.289 26.878-52.828s25.276-44.123 12.595-58.428c-18.056-20.367-38.017-46.282-63.983-38.122-21.8 6.849-38.033-.2-59.83 6.646-10.372 3.26-25.295 7.133-36.147 6.489s-23.407 7.229-27.842-2.7c-8.25-18.461 13.869-16.807 19.5-36.23 8.61-29.7-25.757-63.7-52.83-78.651-25.507-14.089-58.849 5.8-87.122 12.848s-56.118 17.17-67.718 43.9c-20.073 46.247-40.27 104.278-71.306 145.174z" data-name="Path 15517"/>
      </g>
      <g data-name="Group 1892">
        <path d="M900.41 350.385c-1.5 11.784-.65 23.93-3.886 35.36-7.9 27.874-37.541 43.673-65.744 50.292s-58.222 7.478-84.224 20.251a101.4 101.4 0 00-54.047 71.057c-3.9 20.663-1.644 43.6-13.476 60.98-7.045 10.35-18.179 17.158-26.433 26.571-19.413 22.14-20.118 54.982-15.289 84.029 4.481 26.939 15.377 73.824 54.993 77.427 68.533 6.23 92.166 67.446 159.235 52.042 108.975-25.03 104.372-78.588 138.787-123.609 23.42-30.638 51.208-62.368 97.9-105.721 21.015-19.511 63.995 1.121 92.1-4.594 44.055-8.961 77.793-41.9 116.248-65.192s53.56-64.294 65.633-107.6c12.98-46.561 37.816-73.918-9.747-132.121-30.586-37.429-69.805-67.64-115-84.8-61.87-23.486-129.263-27.46-195.435-28.551-32.125-.529-127.165-3.446-143.509 35.139-8.808 20.795 18.355 42.473 18.9 64.313.63 25.623-13.798 49.597-17.006 74.727z" data-name="Path 15518"/>
        <path stroke-width=".917" d="M1319.027 302.98c-27.186-34.493-62.617-62.778-103.733-78.523-37.88-14.5-78.2-20.226-118.733-21.815-19.524-.765-39.039-1.117-58.385-.751-28.9.55-113.39-.479-128.158 35.122-7.934 19.053 16.065 38.888 16.314 58.853.326 23.346-12.838 45.214-16.165 68.086-1.539 10.7-.993 21.713-4.093 32.075-7.562 25.276-34.511 39.754-60.2 46.046s-53.012 7.426-76.762 19.164c-25.293 12.5-44.079 37.086-50.018 64.457-4.126 19.015-3.036 40.076-14.206 56.32-6.654 9.672-16.9 16.226-24.555 25.118-15.837 18.413-18.6 44.3-16.222 68.82.324 3.335.745 6.644 1.244 9.91 3.84 25.666 14.086 69.412 50.915 73 61.685 6.012 83.51 60.041 143.854 45.954 97.647-22.671 94.257-70.959 125.385-111.681 13.924-18.226 29.32-36.891 49.29-58.462 11.759-12.7 25.032-26.458 40.728-41.488 11.142-10.747 28.857-9.569 47.008-7.66 13.369 1.386 26.926 3.22 38.139.914 14.442-2.967 27.788-8.478 40.555-15.364 23.646-12.736 45.471-30.389 68.289-44.982 34.813-22.265 47.491-60.258 57.929-100.368 1.068-4.1 2.237-8.055 3.444-11.887 11.508-36.123 26.117-62.668-11.864-110.858z" data-name="Path 15519"/>
        <path stroke-width=".833" d="M1285.599 316.403c-23.787-31.569-55.428-57.916-92.473-72.252-34.087-13.181-70.545-17.668-107.008-17.641-17.409.013-34.722-.017-51.791 1.069-25.689 1.633-99.619 2.488-112.809 35.1-7.058 17.313 13.775 35.3 13.731 53.393.013 21.071-11.88 40.833-15.328 61.448-1.571 9.618-1.334 19.494-4.3 28.79-7.231 22.675-31.483 35.833-54.666 41.8s-47.8 7.376-69.3 18.079c-22.891 11.4-39.854 33.441-45.99 57.858-4.366 17.372-4.427 36.554-14.937 51.657-6.261 9-15.632 15.295-22.677 23.668-14.586 17.332-17.526 41.316-15.684 64.179.251 3.107.606 6.2 1.016 9.252 3.279 24.381 12.792 65 46.835 68.575 54.84 5.768 74.855 52.636 128.476 39.865 86.315-20.31 84.138-63.33 111.982-99.753 13.057-17.083 27.3-34.626 45.269-54.861 10.73-12.079 22.713-25.157 36.874-39.323 10.209-10.213 26.2-9.981 42.853-8.86 12.288.793 24.825 2.152 35.342-.04a148.263 148.263 0 0037.885-13.879c22.2-11.422 42.876-27.539 63.556-41.619 31.174-21.226 41.419-56.222 50.225-93.138q1.351-5.666 2.934-10.96c9.825-33.046 22.915-58.705-10.015-102.407z" data-name="Path 15520"/>
        <path stroke-width=".75" d="M1252.169 329.823c-20.383-28.652-48.238-53.052-81.208-65.974-30.306-11.866-62.86-15.13-95.288-13.472-15.278.782-30.417 1.1-45.2 2.888-22.516 2.731-85.777 5.481-97.457 35.086-6.149 15.585 11.445 31.72 11.145 47.933-.343 18.794-10.973 36.441-14.488 54.807-1.633 8.532-1.677 17.276-4.5 25.506-6.9 20.076-28.457 31.914-49.127 37.548-20.655 5.623-42.592 7.325-61.835 16.993-20.492 10.295-35.664 29.8-41.962 51.258-4.622 15.745-5.818 33.033-15.669 46.994-5.87 8.321-14.36 14.365-20.8 22.217-13.33 16.253-16.447 38.338-15.141 59.539.176 2.878.458 5.749.786 8.593 2.67 23.106 11.5 60.572 42.755 64.152 47.995 5.494 66.174 45.122 113.1 33.775 74.943-18.122 74.021-55.7 98.578-87.825 12.185-15.941 25.262-32.364 41.247-51.256 9.7-11.462 20.362-23.894 33.02-37.159 9.256-9.7 23.543-10.36 38.7-10.057 11.211.224 22.729 1.081 32.548-.995a150.672 150.672 0 0035.216-12.4c20.749-10.107 40.283-24.676 58.824-38.255 27.539-20.166 35.348-52.182 42.521-85.905q1.1-5.177 2.422-10.034c8.183-29.945 19.698-54.758-8.187-93.957z" data-name="Path 15521"/>
        <path stroke-width=".667" d="M1218.741 343.246c-16.979-25.757-41.049-48.188-69.947-59.7-26.517-10.55-55.139-12.618-83.563-9.3-13.137 1.533-26.138 2.231-38.6 4.707-19.383 3.852-71.984 8.453-82.107 35.068-5.268 13.846 9.143 28.129 8.563 42.472-.667 16.519-10.029 32.056-13.649 48.171-1.673 7.447-2.022 15.057-4.709 22.219-6.564 17.478-25.427 27.995-43.587 33.3-18.139 5.291-37.383 7.275-54.372 15.908-18.091 9.193-31.519 26.172-37.933 44.66-4.9 14.124-7.21 29.511-16.4 42.332-5.479 7.645-13.087 13.434-18.923 20.766-12.079 15.172-15.368 35.358-14.6 54.9.105 2.652.31 5.3.558 7.936 2.051 21.834 10.2 56.141 38.675 59.727 41.151 5.184 57.51 37.684 97.72 27.686 63.6-15.812 63.9-48.071 85.175-75.9a2769.91 2769.91 0 0137.221-47.65c8.664-10.853 18.009-22.637 29.168-35 8.3-9.195 20.887-10.764 34.541-11.255 10.132-.364 20.628.01 29.752-1.949a156.738 156.738 0 0032.535-10.918c19.3-8.791 37.692-21.8 54.091-34.89 23.909-19.086 29.279-48.146 34.817-78.673a152.673 152.673 0 011.913-9.111c6.57-26.839 16.513-50.84-6.339-85.506z" data-name="Path 15522"/>
        <path stroke-width=".583" d="M1185.313 356.669c-13.566-22.886-33.861-43.325-58.684-53.425-22.73-9.229-47.376-10.153-71.842-5.13-10.977 2.254-21.88 3.407-32.008 6.527-16.3 5.023-58.2 11.424-66.758 35.049-4.387 12.108 6.845 24.543 5.979 37.012-.987 14.241-9.08 27.669-12.811 41.531-1.711 6.362-2.363 12.84-4.912 18.936-6.232 14.879-22.4 24.072-38.048 29.051-15.625 4.96-32.173 7.221-46.91 14.822-15.692 8.089-27.437 22.541-33.905 38.06-5.216 12.516-8.6 25.992-17.129 37.671-5.088 6.968-11.815 12.5-17.045 19.314-10.826 14.1-14.289 32.38-14.063 50.256.031 2.426.161 4.856.328 7.277 1.424 20.563 8.9 51.693 34.6 55.3 34.308 4.818 48.844 30.249 82.339 21.6 52.257-13.5 53.788-40.442 71.773-63.972a4295.481 4295.481 0 0033.2-44.047c7.623-10.245 15.647-21.383 25.312-32.83 7.34-8.695 18.235-11.173 30.389-12.453 9.055-.954 18.528-1.06 26.956-2.9a169.751 169.751 0 0029.877-9.434c17.851-7.476 35.107-18.9 49.359-31.525 20.293-17.974 23.208-44.11 27.111-71.442.4-2.8.847-5.529 1.4-8.183 4.954-23.737 13.332-46.968-4.508-77.065z" data-name="Path 15523"/>
        <path stroke-width=".5" d="M1151.883 370.088c-10.13-20.05-26.668-38.461-47.421-47.15-18.944-7.913-39.57-7.784-60.118-.96-8.807 2.927-17.644 4.661-25.415 8.346-13.277 6.3-44.419 14.39-51.408 35.03-3.511 10.368 4.551 20.956 3.4 31.554-1.3 11.962-8.128 23.281-11.974 34.892-1.748 5.276-2.706 10.621-5.119 15.649-5.9 12.28-19.371 20.153-32.51 24.8-13.106 4.628-26.96 7.171-39.446 13.737-13.29 6.987-23.441 18.9-29.877 31.46-5.584 10.9-9.992 22.472-17.857 33.01-4.7 6.292-10.542 11.571-15.17 17.863-9.573 13.014-13.21 29.4-13.522 45.614-.042 2.2.01 4.41.1 6.619.782 19.293 7.595 47.219 30.517 50.877 27.47 4.385 40.18 22.819 66.961 15.51 40.914-11.169 43.669-32.813 58.368-52.046a899.734 899.734 0 0029.172-40.442c6.575-9.649 13.279-20.143 21.46-30.666 6.374-8.2 15.582-11.585 26.234-13.653 7.978-1.548 16.427-2.129 24.16-3.858a198.372 198.372 0 0027.207-7.951c16.4-6.159 32.537-15.981 44.625-28.16 16.7-16.824 17.136-40.074 19.409-64.211.23-2.474.5-4.895.891-7.257 3.37-20.607 10.204-43.13-2.667-68.607z" data-name="Path 15524"/>
        <path stroke-width=".417" d="M1118.455 383.511c-6.642-17.276-19.48-33.6-36.157-40.876-15.158-6.6-31.77-5.591-48.4 3.211-6.64 3.513-13.392 6.044-18.823 10.165-10.239 7.767-30.649 17.351-36.057 35.011-2.641 8.624 2.265 17.368.815 26.094-1.612 9.684-7.162 18.894-11.134 28.252-1.78 4.193-3.051 8.4-5.324 12.365-5.565 9.682-16.343 16.234-26.972 20.555-10.59 4.295-21.751 7.119-31.981 12.648-10.891 5.885-19.559 15.214-25.851 24.864-6.04 9.266-11.382 18.949-18.587 28.348-4.306 5.615-9.27 10.64-13.292 16.41-8.321 11.935-12.131 26.422-12.982 40.975a91.459 91.459 0 00-.13 5.96c.121 18.024 6.3 42.692 26.437 46.452 20.644 3.854 31.515 15.4 51.582 9.421 29.574-8.817 33.553-25.184 44.967-40.118a417.314 417.314 0 0025.147-36.839c5.512-9.063 10.895-18.913 17.606-28.5 5.4-7.714 12.928-12 22.077-14.85 6.9-2.146 14.329-3.2 21.366-4.812 8.313-1.893 16.588-3.873 24.538-6.47 14.954-4.845 29.994-13.028 39.892-24.8 13.146-15.626 11.067-36.034 11.705-56.979.065-2.148.165-4.258.381-6.33 1.82-17.48 7.163-39.383-.823-60.157z" data-name="Path 15525"/>
        <path stroke-width=".333" d="M1085.027 396.935c-3-14.574-12.292-28.739-24.9-34.6-11.368-5.276-24.137-3.662-36.672 7.384-4.538 4-9.009 7.572-12.227 11.983-6.947 9.519-16.9 20.306-20.709 34.994-1.78 6.876-.01 13.783-1.769 20.634-1.9 7.407-6.18 14.515-10.3 21.611a94.854 94.854 0 01-5.529 9.08c-5.232 7.083-13.313 12.315-21.431 16.307-8.074 3.963-16.541 7.07-24.519 11.564a86.011 86.011 0 00-21.82 18.263c-6.629 7.526-12.775 15.429-19.319 23.687-3.915 4.939-8 9.709-11.414 14.96a82.638 82.638 0 00-12.443 36.333 71.102 71.102 0 00-.358 5.3c-.563 16.755 5.015 38.043 22.359 42.029 13.838 3.179 22.855 8.016 36.2 3.331 18.244-6.407 23.436-17.554 31.563-28.19a228.684 228.684 0 0021.123-33.234c4.425-8.488 8.492-17.7 13.75-26.337a40.58 40.58 0 0117.924-16.048c5.822-2.752 12.229-4.27 18.57-5.766 7.292-1.715 14.722-3.107 21.868-4.986 13.507-3.53 27.506-10.04 35.16-21.433 9.662-14.383 5-32 4-49.746-.1-1.824-.167-3.624-.13-5.406.312-14.356 4.314-35.731 1.023-51.714z" data-name="Path 15526"/>
        <path stroke-width=".25" d="M988.212 472.506c-15.391 17.284-37.918 26.165-56.475 40-20.937 15.6-37.069 38.489-41.488 64.223-2.825 16.439 1.821 37.119 17.69 42.247 14.7 4.751 29.609-6.746 38.986-19.02a133.137 133.137 0 0017.1-29.632c6.205-14.908 10.5-32.067 23.668-41.418 9.994-7.1 22.917-8.012 34.973-10.226s25.122-7.018 30.427-18.068c6.943-14.461-2.735-31.034-4.345-47-1.133-11.234 1.845-32.01 2.855-43.255 2-22.345-21.757-45.436-38.585-16.776-14.393 24.493-2.972 54.403-24.806 78.925z" data-name="Path 15527"/>
      </g>
      <g data-name="Group 1893">
        <path d="M405.414 737.44c23.71-9.333 43.411-26.443 65.457-39.217s67.609-35.672 91.076-25.747c42.272 17.88 31.979 83.356 67.663 112.221 21.866 17.688 49.984 19.082 74.514 32.842 72.364 40.6 132.6 22.443 170.555 56.275 14.066 12.535 6.433 57.749 15.5 74.263 34.442 62.7 65.214 48.506 85.278 117.171 11.5 39.353 11.926 136.613-13.361 168.886-7.773 9.918-18.07 17.514-28.422 24.695a692.617 692.617 0 01-162.888 83.488c-18.884 6.7-39.3 12.625-58.694 7.591-17.181-4.458-30.952-16.838-45.352-27.213a228.188 228.188 0 00-158.512-41.032c-76.159 9.016-143.535 56.026-219.435 66.978-36.3 5.24-75.4 1.366-105.865-19.07-22.742-15.258-39.208-38.945-47.985-64.888-5.556-16.424-8.181-34.185-4.839-51.2 4.2-21.412 17.336-39.825 30.076-57.542 22.662-31.52 45.383-63.643 59.013-99.994s17.382-77.988 1.888-113.586c-10.873-24.987-30.888-52.814-17.034-76.278 5.385-9.116 14.91-14.866 22.228-22.518 17.493-18.286 20.366-44.683 20.14-68.807-.171-18.275-7.15-55.612 17.183-62.35 16.575-4.588 40.333 16.173 54.53 22.211 27.672 11.771 58.98 13.963 87.286 2.821z" data-name="Path 15528"/>
        <path stroke-width=".917" d="M277.735 751.089c15.395-4.507 37.259 13.484 50.653 18.693a121.712 121.712 0 0046.065 8.578 110.936 110.936 0 0035.26-6.443c18.007-6.489 33.3-17.077 49.265-26.485 3.576-2.108 7.179-4.172 10.878-6.067 20.218-10.366 61.588-29.536 83.379-19.818 38.92 17.186 31.372 76.317 64.934 102.12 20.542 15.808 46.615 16.841 69.487 28.767 23.976 12.61 46.578 18.411 67.373 22.221 37.006 6.776 68.155 6.932 91.3 26.021 6.073 5.009 8.252 15.906 9.624 27.74 1.692 14.371 2.344 30.044 7.255 38.213 33.37 55.52 62.042 44.093 80.742 106.928 10.822 36.23 11.027 124.247-12.24 154.06-7.081 9.063-16.435 16.04-25.868 22.621a474.189 474.189 0 01-81.848 45.81c-14.609 6.4-29.294 12.045-44.361 17.344q-13.137 4.6-26.579 8.883c-17.71 5.64-36.872 10.847-55.143 6.445-16.153-3.9-29.289-14.751-42.953-23.8q-4.539-3-9.231-5.766c-41.37-24.367-91.951-35.53-139.7-31.358-48.564 4.245-92.728 25.563-138.949 40.881-19.683 6.518-39.718 12.083-60.447 14.925-33.206 4.551-68.945 1.357-96.79-16.276a107.573 107.573 0 01-36.36-39.262 124.358 124.358 0 01-7.664-16.841c-5.243-14.317-7.991-29.911-5.489-44.923 3.216-18.907 14.3-35.252 25.067-51.07 19-28.162 38.148-57.247 50.078-90.4 11.926-33.173 15.234-70.94 1.583-103.272-9.571-22.75-27.179-47.985-14.593-69.315 4.887-8.283 13.467-13.568 20.1-20.542 15.812-16.626 18.687-40.461 18.853-62.261.165-16.555-5.653-49.92 16.319-56.351z" data-name="Path 15529"/>
        <path stroke-width=".833" d="M291.874 789.77c14.218-4.431 34.181 10.8 46.776 15.172a121.28 121.28 0 0042.584 7.063 118.877 118.877 0 0032.776-5.611c16.657-5.308 30.54-13.714 44.982-21.128 3.235-1.66 6.489-3.308 9.847-4.758 18.409-7.963 55.53-23.325 75.683-13.888 35.505 16.625 30.766 69.278 62.2 92.018 19.216 13.928 43.282 14.523 64.46 24.695 22.143 10.63 42.998 15.312 62.292 18.372 33.9 5.372 62.621 5.395 84.508 21.836 5.8 4.356 8.206 13.831 9.933 24.158 2.1 12.549 3.465 26.192 8.325 33.484 32.2 48.33 58.868 39.677 76.2 96.683 10.145 33.106 10.13 111.88-11.117 139.239-6.389 8.206-14.82 14.542-23.313 20.546a338.453 338.453 0 01-76.909 40.379c-13.593 5.046-27.044 9.176-41.013 13.223q-12.2 3.5-24.762 6.983c-16.535 4.578-34.444 9.066-51.592 5.295-15.126-3.346-27.627-12.66-40.555-20.377q-4.3-2.561-8.725-4.91c-39.05-20.709-86.647-30.529-130.623-28.309-43.679 2.206-82.942 19.785-124.64 32.267-17.761 5.31-35.923 9.952-54.717 12.367-30.1 3.865-62.483 1.345-87.716-13.48a93.738 93.738 0 01-32.984-33.061 107.886 107.886 0 01-7.077-14.26c-4.958-12.2-7.85-25.643-6.134-38.646 2.166-16.41 11.334-30.636 20.053-44.6 15.448-24.729 30.912-50.852 41.14-80.8 10.218-30 13.085-63.891 1.278-92.956-8.27-20.516-23.467-43.161-12.154-62.353 4.391-7.449 12.022-12.273 17.961-18.57 14.142-14.975 16.971-36.238 17.579-55.72.461-14.835-4.157-44.242 15.454-50.353z" data-name="Path 15530"/>
        <path stroke-width=".75" d="M306.01 828.451c13.041-4.362 31.094 8.116 42.9 11.654a122.809 122.809 0 0039.112 5.542 135.068 135.068 0 0030.291-4.778c15.3-4.155 27.776-10.351 40.7-15.77 2.9-1.213 5.8-2.443 8.817-3.451 16.625-5.565 49.491-17.16 67.987-7.959 32.125 15.981 30.159 62.241 59.478 81.915 17.888 12.052 39.921 12.248 59.43 20.622 20.274 8.7 39.4 12.225 57.207 14.526 30.787 3.978 57.105 3.852 77.712 17.65 5.529 3.7 8.17 11.753 10.239 20.576 2.518 10.728 4.573 22.334 9.394 28.754 30.9 41.138 55.7 35.264 71.67 86.44 9.467 29.982 9.231 99.513-10 124.413-5.7 7.351-13.191 13.06-20.759 18.472a243.438 243.438 0 01-71.969 34.95c-12.578 3.693-24.791 6.332-37.667 9.1q-11.251 2.42-22.945 5.082c-15.36 3.519-32.014 7.286-48.041 4.145-14.1-2.79-25.964-10.571-38.156-16.958q-4.059-2.119-8.219-4.053c-36.741-17.048-81.308-25.492-121.558-25.256-38.756.228-73.153 14.009-110.328 23.654-15.837 4.1-32.129 7.821-48.985 9.806-27 3.179-56.024 1.334-78.644-10.686a80.744 80.744 0 01-29.614-26.848 91.945 91.945 0 01-6.489-11.682c-4.659-10.085-7.681-21.371-6.781-32.371 1.143-13.905 8.337-26.047 15.042-38.125 11.849-21.341 23.673-44.455 32.2-71.206 8.513-26.816 10.876-56.82.972-82.639-7.006-18.263-19.749-38.33-9.71-55.392 3.894-6.615 10.581-10.975 15.83-16.594 12.468-13.321 15.278-32.016 16.3-49.177.776-13.114-2.666-38.588 14.584-44.356z" data-name="Path 15531"/>
        <path stroke-width=".667" d="M320.149 867.129c11.865-4.3 28 5.446 39.018 8.135 11.447 2.794 23.558 4.553 35.634 4.024a171.116 171.116 0 0027.807-3.946c13.934-3 25.015-6.985 36.414-10.412 2.555-.767 5.125-1.577 7.786-2.145 14.877-3.16 43.455-11 60.29-2.028 28.75 15.322 29.553 55.2 56.749 71.814 16.564 10.172 36.556 9.975 54.4 16.548 18.4 6.775 35.806 9.143 52.123 10.678 27.667 2.6 51.613 2.3 70.917 13.465 5.264 3.045 8.137 9.682 10.548 16.995 2.938 8.911 5.655 18.472 10.464 24.026 29.413 33.972 52.42 30.883 67.132 76.195 8.727 26.88 8.334 87.147-8.871 109.592-5.008 6.495-11.564 11.579-18.2 16.4a176.315 176.315 0 01-67.03 29.518c-11.562 2.34-22.545 3.469-34.321 4.983a511.594 511.594 0 00-21.128 3.183c-14.185 2.457-29.586 5.508-44.49 3-13.07-2.233-24.3-8.482-35.756-13.539q-3.817-1.676-7.714-3.2c-34.428-13.388-75.907-20.4-112.486-22.206-33.792-1.663-63.368 8.233-96.016 15.042a433.953 433.953 0 01-43.257 7.246c-23.9 2.493-49.564 1.324-69.568-7.892a69.035 69.035 0 01-26.241-20.654 75.127 75.127 0 01-5.9-9.1c-4.358-7.965-7.522-17.089-7.428-26.092.121-11.4 5.349-21.46 10.032-31.651a435.416 435.416 0 0023.259-61.611c6.805-23.639 8.708-49.767.667-72.323-5.715-16.027-16.035-33.5-7.269-48.432 3.4-5.782 9.136-9.678 13.7-14.618 10.793-11.667 13.585-27.8 15.017-42.634 1.092-11.402-1.176-32.956 13.718-38.361z" data-name="Path 15532"/>
        <path stroke-width=".583" d="M334.286 905.81c10.692-4.262 24.894 2.786 35.139 4.617 10.351 1.847 21.284 3.116 32.157 2.507 8.53-.508 17.2-1.915 25.323-3.114 12.568-1.855 22.251-3.624 32.131-5.055 2.215-.318 4.452-.707 6.755-.836 13.183-.736 37.42-4.854 52.594 3.9 25.379 14.643 28.947 48.167 54.02 61.714 15.237 8.292 33.181 7.712 49.376 12.474 16.518 4.856 32.205 6.075 47.038 6.832 24.538 1.255 46.149.724 64.123 9.279 5.006 2.384 8.1 7.61 10.855 13.413 3.363 7.1 6.706 14.609 11.531 19.3 27.688 26.882 49.237 26.473 62.6 65.951 8.041 23.76 7.438 74.78-7.748 94.767-4.316 5.64-9.933 10.1-15.649 14.323-18.789 13.875-41.728 22.2-62.09 24.087-10.548.989-20.3.606-30.973.864-6.251.151-12.708.586-19.314 1.282-13.011 1.4-27.156 3.727-40.938 1.846-12.043-1.677-22.639-6.393-33.359-10.121q-3.576-1.233-7.208-2.338c-32.113-9.732-70.444-15.224-103.412-19.156-28.786-3.432-53.583 2.457-81.706 6.43-11.993 1.679-24.54 3.557-37.525 4.686-20.8 1.807-43.106 1.313-60.5-5.1-9.659-3.553-17.46-8.712-22.867-14.448a56.82 56.82 0 01-5.312-6.522c-4.057-5.841-7.359-12.8-8.076-19.816-.9-8.873 2.365-16.889 5.021-25.178 4.684-14.617 9.2-31.667 14.319-52.015 5.1-20.46 6.546-42.717.36-62.007-4.421-13.79-12.319-28.675-4.826-41.471 2.9-4.948 7.692-8.38 11.562-12.644 9.118-10.011 11.9-23.578 13.737-36.09 1.425-9.686.318-27.354 12.862-32.361z" data-name="Path 15533"/>
        <path stroke-width=".5" d="M348.424 944.491c9.517-4.249 21.782.148 31.262 1.1 9.245.926 19.005 1.682 28.679.989 7.679-.579 15.529-1.811 22.84-2.281a196.629 196.629 0 0127.847.3c1.874.128 3.791.178 5.724.473 11.541 1.759 31.391 1.28 44.9 9.829 22.02 13.942 28.34 41.128 51.291 51.613 13.911 6.412 29.8 5.46 44.35 8.4 14.624 2.953 28.6 2.564 41.952 2.986 21.391.676 40.714-.887 57.329 5.094 4.759 1.713 8.08 5.538 11.163 9.831 3.8 5.284 7.712 10.765 12.6 14.567 25.665 19.958 46.061 22.064 58.06 55.708 7.359 20.638 6.573 62.441-6.627 79.943-3.614 4.791-8.3 8.628-13.095 12.248-17.006 12.84-38.74 19.383-57.149 18.656-9.532-.364-18.056-2.265-27.627-3.256a135.412 135.412 0 00-17.5-.617c-11.838.337-24.727 1.947-37.385.7-11.017-1.123-20.977-4.306-30.962-6.7q-3.338-.79-6.7-1.481c-29.8-6.073-64.93-9.889-94.341-16.1-23.75-5.021-43.8-3.321-67.394-2.185-10.069.468-20.745 1.424-31.8 2.125-17.7 1.121-36.644 1.3-51.421-2.3-8.208-1.995-14.879-4.981-19.492-8.244a37.4 37.4 0 01-4.726-3.94c-3.745-3.71-7.19-8.494-8.722-13.539-1.922-6.328-.615-12.351.01-18.706 1.115-11.33 1.96-25.27 5.379-42.418 3.392-17.282 4.387-35.67.056-51.691-3.126-11.558-8.6-23.848-2.384-34.511 2.4-4.113 6.249-7.083 9.429-10.669 7.443-8.356 10.22-19.363 12.457-29.547 1.753-7.987 1.792-21.822 11.997-26.377z" data-name="Path 15534"/>
        <path stroke-width=".417" d="M362.561 983.173c8.327-4.277 18.677-2.875 27.386-2.422a178.185 178.185 0 0025.2-.531c6.828-.652 13.852-1.717 20.354-1.447 9.825.408 16.726 3.1 23.564 5.659 1.533.575 3.128 1.085 4.693 1.78 9.894 4.391 25.373 7.4 37.2 15.759 18.683 13.208 27.738 34.085 48.565 41.511 12.587 4.532 26.4 3.233 39.323 4.325 12.723 1.075 24.99 0 36.868-.86 18.26-1.328 35.3-2.556 50.534.906 4.515 1.027 8.068 3.469 11.472 6.249a101.115 101.115 0 0013.67 9.839c23.328 13.35 42.9 17.646 53.522 45.463 6.688 17.514 5.676 50.072-5.5 65.12a54.2 54.2 0 01-10.54 10.174c-15.214 11.82-35.754 16.563-52.213 13.227-8.515-1.717-15.81-5.142-24.279-7.376a84.513 84.513 0 00-15.68-2.518c-10.663-.724-22.3.167-33.834-.452-9.988-.565-19.315-2.217-28.564-3.285q-3.1-.348-6.194-.625c-27.487-2.413-59.428-4.285-85.269-13.053-18.733-6.359-34.011-9.1-53.085-10.8a219.57 219.57 0 00-26.063-.437c-14.6.437-30.185 1.294-42.347.495a120.312 120.312 0 01-16.121-2.036 19.008 19.008 0 01-4.139-1.361 25.915 25.915 0 01-9.367-7.263c-2.89-3.756-3.649-7.878-5-12.232-2.535-8.168-5.278-18.875-3.561-32.822 1.685-14.1 2.24-28.631-.251-41.375-1.823-9.329-4.891-19.02.058-27.55 1.9-3.279 4.806-5.784 7.3-8.695 5.77-6.7 8.555-15.147 11.177-23 2.083-6.262 3.235-16.316 11.121-20.367z" data-name="Path 15535"/>
        <path stroke-width=".333" d="M376.698 1021.853c7.093-4.391 15.556-5.019 23.507-5.943 7.033-.816 14.454-1.188 21.726-2.047 5.977-.724 12.179-1.635 17.871-.615 8.455 1.516 13.965 6.466 19.281 11.016 1.192 1.021 2.443 2.014 3.662 3.089 8.114 7.16 19.375 13.488 29.5 21.688 15.37 12.441 27.129 27.052 45.837 31.408 11.259 2.656 23.01 1.05 34.294.253 10.824-.765 21.389-2.971 31.784-4.707 15.13-2.526 29.89-4.3 43.738-3.279a45.562 45.562 0 0111.778 2.668c4.7 1.631 9.569 3.306 14.739 5.109 20.811 7.252 39.769 13.222 48.991 35.221 6.029 14.385 4.768 37.7-4.381 50.3a43.409 43.409 0 01-7.986 8.1c-13.4 10.83-32.767 13.745-47.272 7.8-7.5-3.07-13.562-8.022-20.933-11.5a57.52 57.52 0 00-13.861-4.419c-9.49-1.782-19.869-1.612-30.285-1.6-8.961-.01-17.652-.126-26.165.134q-2.854.095-5.69.234c-25.172 1.244-54.129 1.773-76.195-10-13.85-7.393-24.225-14.875-38.773-19.409a73.826 73.826 0 00-20.333-3 152.906 152.906 0 00-33.275 3.29c-5.31 1.121-9.691 2.461-12.746 4.163a10.966 10.966 0 01-3.549 1.221 21.777 21.777 0 01-10.017-.987 34.719 34.719 0 01-10.011-5.761c-6.483-4.91-12.516-12.478-12.5-23.225-.023-10.925.115-21.6-.556-31.059-.5-7.106-1.177-14.193 2.5-20.59a54.151 54.151 0 015.163-6.719c4.1-5.046 6.912-10.927 9.894-16.462 2.446-4.548 4.655-10.901 10.263-14.372z" data-name="Path 15536"/>
        <path stroke-width=".25" d="M365.713 1117.935c-5.7-25.5 4.929-40.82 25.124-57.4 10.45-8.58 24.515-10.954 37.876-13.026 5.126-.8 10.515-1.568 15.387.218 7.1 2.6 11.2 9.829 15 16.372 14.986 25.837 37.771 51 67.548 53.322 19.181 1.5 37.548-6.813 55.967-12.374a201.425 201.425 0 0149.029-8.379c23.1-1.048 50.244 4.511 60.258 25.354 6.581 13.7 2.832 31.594-8.689 41.5s-29.779 10.925-42.332 2.365c-6.485-4.421-11.307-10.908-17.587-15.615-18.706-14.022-44.869-9.331-67.728-4.427s-49.545 8.459-67.122-6.953c-9.356-8.2-14.44-20.651-24.463-28.024-15.036-11.058-39.361-5.556-48.175 10.9-8.463 15.781-46.53 12.113-50.093-3.833z" data-name="Path 15537"/>
      </g>
      <g data-name="Group 1894">
        <path d="M1044.188 716.385c-17.048 29.9-48.043 48.479-75.48 69.265s-54.137 48.648-55.329 83.048c-.77 22.246 9.385 43.251 19.542 63.056 15.122 29.486 31.157 59.177 54.74 82.456s56.141 39.6 89.113 36.3c12.966-1.3 26.3-6.079 34.35-16.33 22.273-28.37-8.051-76.952 16.044-103.791 12.48-13.9 33.606-14.5 52.282-15.053 39.449-1.163 79.269-6.817 115.583-22.274 10.086-4.295 20.2-9.6 26.887-18.292 16.627-21.613 4.916-54.073-14.2-73.517s-44.553-32.136-62.157-52.962c-7.595-8.984-13.8-20.609-11.336-32.113 3.16-14.77 18.679-22.945 27.855-34.944 16.5-21.569 7.484-57.565-17.23-68.816-23.658-10.77-49 .454-71.992 7.338-19.561 5.858-35.72 5.4-55.6 6.041-49.511 1.595-53.262 55.847-73.072 90.588z" data-name="Path 15538"/>
        <path stroke-width=".925" d="M1235.36 629.147c-21.588-10.023-44.7-.052-65.675 6.152-17.846 5.28-32.627 4.964-50.754 5.7-44.982 1.729-48.771 51.032-66.986 82.743-13.748 23.921-37.1 40.005-59.484 56.314q-4.786 3.487-9.482 7.016c-25.09 18.975-49.534 44.289-50.958 75.575-.851 20.17 8.149 39.25 17.183 57.264 13.448 26.818 27.907 53.74 49.062 75.125 13.29 13.434 30.022 24.545 48.041 29.837a83.345 83.345 0 0033.968 2.98c11.84-1.466 24.032-6.058 31.512-15.5 20.253-25.555-6.984-69.4 14.846-93.588 11.3-12.529 30.394-13.079 47.278-13.584 35.664-1.065 71.666-6.155 104.515-20.071 9.126-3.865 18.275-8.643 24.337-16.466 15.078-19.455 4.547-48.575-12.445-66.189-16.843-17.457-39.162-29.246-54.637-48.366-6.684-8.241-12.131-18.875-9.8-29.415 2.99-13.538 17.062-21.159 25.368-32.226 14.927-19.883 6.719-52.769-15.889-63.301z" data-name="Path 15539"/>
        <path stroke-width=".85" d="M1225.873 645.875c-19.519-9.279-40.387-.558-59.359 4.964-16.13 4.7-29.532 4.571-45.908 5.362-40.453 1.953-44.283 46.21-60.907 74.891-12.566 21.657-33.656 36.327-53.859 51.046a581.492 581.492 0 00-8.591 6.349c-22.742 17.165-45.038 39.93-46.586 68.117-.993 18.089 6.913 35.247 14.822 51.469 11.776 24.151 24.655 48.317 43.384 67.795 11.98 12.461 27.4 22.928 43.98 27.441a73.942 73.942 0 0030.927 1.9c10.711-1.631 21.757-6.037 28.673-14.664 18.227-22.746-5.916-61.846 13.651-83.387 10.128-11.155 27.179-11.657 42.27-12.116 31.881-.966 64.068-5.492 93.45-17.865 8.164-3.438 16.347-7.685 21.788-14.64 13.53-17.3 4.174-43.075-10.69-58.859-14.572-15.475-33.772-26.36-47.118-43.773-5.772-7.5-10.463-17.144-8.273-26.717 2.821-12.305 15.446-19.375 22.884-29.511 13.367-18.207 5.965-47.982-14.538-57.802z" data-name="Path 15540"/>
        <path stroke-width=".775" d="M1216.384 662.605c-17.43-8.574-36.078-1.064-53.042 3.777-14.415 4.12-26.439 4.157-41.061 5.023-35.925 2.125-39.8 41.391-54.829 67.04-11.385 19.4-30.208 32.65-48.232 45.775a567.601 567.601 0 00-7.7 5.684c-20.394 15.356-40.488 35.57-42.215 60.651-1.1 16.012 5.677 31.245 12.461 45.676 10.1 21.485 21.4 42.9 37.707 60.467 10.669 11.489 24.77 21.309 39.915 25.042a64.658 64.658 0 0027.888.818c9.584-1.8 19.484-6.016 25.833-13.835 16.2-19.94-4.847-54.294 12.455-73.182 8.953-9.783 23.967-10.237 37.267-10.648 28.095-.868 56.465-4.831 82.385-15.661 7.2-3.009 14.419-6.727 19.235-12.813 11.981-15.14 3.795-37.573-8.93-51.53-12.3-13.493-28.378-23.468-39.6-39.175-4.862-6.753-8.8-15.41-6.744-24.018 2.652-11.071 13.833-17.589 20.4-26.793 11.802-16.529 5.225-43.236-13.193-52.298z" data-name="Path 15541"/>
        <path stroke-width=".7" d="M1206.896 679.337c-15.354-7.84-31.768-1.571-46.724 2.589-12.7 3.542-23.346 3.741-36.216 4.684-31.4 2.3-35.308 36.569-48.748 59.188-10.2 17.135-26.765 28.972-42.609 40.505a570.787 570.787 0 00-6.813 5.019c-18.045 13.547-35.933 31.207-37.842 53.184-1.209 13.934 4.438 27.242 10.1 39.882 8.428 18.819 18.127 37.5 32.027 53.138 9.358 10.525 22.142 19.691 35.854 22.642a55.518 55.518 0 0024.846-.262c8.455-1.961 17.207-5.995 22.995-13 14.153-17.142-3.781-46.741 11.257-62.981 7.779-8.409 20.753-8.815 32.261-9.18 24.312-.768 48.867-4.168 71.319-13.455 6.238-2.579 12.491-5.768 16.686-10.987 10.431-12.982 3.4-32.071-7.173-44.2-10.046-11.52-22.947-20.6-32.077-34.58-3.934-6.021-7.133-13.677-5.213-21.318 2.482-9.841 12.215-15.8 17.913-24.078 10.242-14.848 4.479-38.456-11.843-46.79z" data-name="Path 15542"/>
        <path stroke-width=".625" d="M1197.408 696.07c-13.279-7.1-27.46-2.079-40.408 1.4-10.987 2.961-20.251 3.325-31.37 4.344-26.866 2.459-30.822 31.747-42.669 51.337-9.024 14.871-23.317 25.295-36.983 35.237q-2.984 2.167-5.924 4.352c-15.7 11.738-31.375 26.841-33.47 45.718-1.315 11.853 3.2 23.24 7.74 34.089 6.755 16.151 14.848 32.129 26.351 45.81 8.047 9.571 19.515 18.072 31.789 20.243a46.851 46.851 0 0021.807-1.343c7.323-2.144 14.931-5.971 20.155-12.169 12.1-14.35-2.712-39.189 10.063-52.778 6.6-7.035 17.539-7.394 27.255-7.71 20.527-.669 41.266-3.509 60.254-11.251 5.274-2.152 10.561-4.81 14.134-9.162 8.883-10.822 3-26.563-5.416-36.87-7.8-9.559-17.543-17.719-24.555-29.984-3.018-5.28-5.469-11.945-3.683-18.622 2.313-8.607 10.6-14.019 15.429-21.358 8.674-13.17 3.724-33.676-10.499-41.283z" data-name="Path 15543"/>
        <path stroke-width=".55" d="M1187.92 712.799c-11.2-6.364-23.15-2.585-34.091.215-9.272 2.382-17.154 2.907-26.523 4.005-22.332 2.616-26.333 26.926-36.59 43.485-7.842 12.61-19.871 21.617-31.358 29.967a573.591 573.591 0 00-5.033 3.689c-13.352 9.927-26.812 22.47-29.1 38.252-1.414 9.77 1.966 19.237 5.381 28.3 5.082 13.484 11.548 26.78 20.67 38.48 6.734 8.633 16.889 16.452 27.727 17.844a38.281 38.281 0 0018.767-2.424c6.192-2.309 12.65-5.949 17.317-11.337 10.025-11.571-1.644-31.636 8.865-42.573 5.427-5.663 14.325-5.973 22.251-6.244 16.742-.569 33.664-2.846 49.187-9.046 4.312-1.723 8.635-3.852 11.585-7.336 7.334-8.664 2.555-21.058-3.658-29.542-5.585-7.623-12.141-14.827-17.035-25.389-2.1-4.536-3.8-10.211-2.154-15.922 2.146-7.376 8.986-12.234 12.943-18.643 7.113-11.492 2.972-28.895-9.151-35.781z" data-name="Path 15544"/>
        <path stroke-width=".475" d="M1178.433 729.531c-9.132-5.621-18.844-3.091-27.776-.974-7.556 1.8-14.055 2.484-21.677 3.666-17.8 2.76-21.845 22.106-30.511 35.634-6.661 10.347-16.424 17.94-25.734 24.7q-2.081 1.509-4.141 3.022c-11 8.118-22.24 18.095-24.727 30.785-1.506 7.685.73 15.235 3.02 22.5a113.338 113.338 0 0014.994 31.149c5.414 7.723 14.262 14.835 23.664 15.446a30.268 30.268 0 0015.726-3.5 47.663 47.663 0 0014.478-10.502c7.922-8.815-.577-24.083 7.668-32.372 4.252-4.289 11.113-4.551 17.246-4.774 12.957-.471 26.065-2.185 38.121-6.842 3.35-1.3 6.708-2.894 9.036-5.51 5.784-6.506 2.049-15.567-1.9-22.211a92.388 92.388 0 01-9.517-20.795c-1.186-3.789-2.137-8.478-.621-13.223 1.976-6.142 7.369-10.448 10.458-15.925 5.545-9.812 2.216-24.107-7.807-30.274z" data-name="Path 15545"/>
        <path stroke-width=".4" d="M1168.945 746.262c-7.062-4.868-14.534-3.6-21.46-2.16-5.841 1.225-10.954 2.051-16.83 3.325-13.258 2.88-17.359 17.286-24.43 27.784-5.481 8.085-12.98 14.262-20.109 19.429-1.087.788-2.175 1.571-3.254 2.357-8.655 6.309-17.641 13.712-20.354 23.319-1.579 5.6-.506 11.234.661 16.709a78.881 78.881 0 009.314 23.821c4.067 6.849 11.635 13.216 19.6 13.049 4.887-.1 8.814-1.991 12.687-4.586a69.73 69.73 0 0011.638-9.67c5.78-6.088.493-16.531 6.474-22.169 3.076-2.915 7.9-3.128 12.24-3.306 9.172-.372 18.465-1.522 27.056-4.636a17.011 17.011 0 006.483-3.683c4.235-4.348 2.8-10.887-.144-14.883-.077-4.343-1.343-9.026-1.995-16.2a23.661 23.661 0 01.908-10.525c1.807-4.91 5.755-8.664 7.974-13.21 3.986-8.129 1.46-19.305-6.459-24.765z" data-name="Path 15546"/>
        <path stroke-width=".325" d="M1159.457 762.994c-5-4.1-10.226-4.1-15.143-3.348a70.226 70.226 0 00-11.983 2.986c-8.724 2.944-12.871 12.464-18.352 19.933a66.622 66.622 0 01-14.484 14.16q-1.179.851-2.363 1.69c-6.309 4.5-12.982 9.333-15.983 15.853-1.614 3.511-1.742 7.233-1.7 10.916a42.819 42.819 0 003.637 16.493c2.622 6.048 9.007 11.6 15.538 10.65 4-.579 6.859-2.9 9.645-5.667 2.808-2.794 5.747-5.916 8.8-8.84 3.568-3.423 1.566-8.971 5.276-11.966 1.9-1.539 4.686-1.708 7.234-1.838a66.2 66.2 0 0015.991-2.432 11.654 11.654 0 003.934-1.857 6.306 6.306 0 001.614-7.553c2.3-2.457 4.023-6.117 5.525-11.6a51.446 51.446 0 012.438-7.827c1.639-3.678 4.14-6.876 5.489-10.492a17.36 17.36 0 00-5.113-19.261z" data-name="Path 15547"/>
        <path stroke-width=".25" d="M1112.875 798.808c-4.375 3.131-9.189 5.7-13.085 9.413s-6.849 8.957-6.1 14.285 6.38 9.979 11.474 8.25c6.236-2.116 7.188-10.958 12.566-14.756 4.475-3.16 10.552-1.953 15.991-2.614 13.677-1.66 27.32-21.278 16.249-33.662-13.481-15.076-26.681 11.631-37.095 19.084z" data-name="Path 15548"/>
      </g>
      <g data-name="Group 1895">
        <path d="M1379.847 471.65c-18.21 31.678-44.344 58.443-60.863 91.033-6.4 12.622-38.154 28.33-35.032 42.132 3.225 14.252 38.692 45.626 50.335 54.459 14.505 11 46.511 8.8 64.363 12.378 24.961 5 37.447-11.573 62.711-14.72 35.53-4.427 72.828-2.516 105.205 12.773 29.913 14.126 35.237 41.09 63.125 58.882 17.9 11.416 55.9 17.554 76.4 23.047 14.045 3.762 29.039 6.021 43.041 2.1 12.57-3.52 23.284-11.732 32.84-20.624a218.7 218.7 0 0066.292-123.921c7.685-47.282-.471-95.7-11.884-142.223-9.482-38.664-21.521-77.413-43.714-110.464-15.9-23.679-36.8-44.1-49.468-69.662-7.649-15.429-12.133-32.443-21.445-46.927-22.194-34.522-66.17-47.179-106.762-53.256a645.025 645.025 0 00-164.472-3.383c-24.442 2.637-68.924 5.855-80.106 32.863-10.037 24.241 16.623 53.855 24.269 75.913 20.226 58.352 16.148 125.705-14.835 179.6z" data-name="Path 15549"/>
        <path stroke-width=".932" d="M1612.372 206.409c-49.7-6.4-100.232-7.7-150.183-1.922-22.344 2.6-62.908 5.736-73.2 30.5-9.235 22.227 14.894 49.342 21.74 69.589 18.145 53.512 14.225 115.205-14.068 164.654-16.638 29.095-40.444 53.719-55.457 83.626-4.318 8.645-21.351 18.836-28.643 28.712-2.524 3.409-3.885 6.78-3.147 10.038 2.982 13.152 35.312 41.864 46.046 50.026 13.344 10.144 42.64 8.2 59.075 11.449 22.888 4.546 34.44-10.579 57.592-13.524a245.51 245.51 0 0128.47-2.031c23.472-.251 46.852 3.323 67.971 13.058 27.4 12.667 32.449 37.012 58.046 53.073 16.479 10.278 51.26 15.807 70.129 20.751 12.9 3.392 26.653 5.421 39.5 1.822 11.539-3.229 21.391-10.728 30.183-18.856a200.83 200.83 0 0061.231-113.446c7.233-43.326 0-87.745-10.266-130.444-8.478-35.655-19.373-71.43-39.61-102-14.5-21.914-33.612-40.854-45.31-64.42-7.058-14.222-11.218-29.907-19.904-43.207-21.479-32.889-62.757-42.624-100.195-47.448z" data-name="Path 15550"/>
        <path stroke-width=".864" d="M1609.75 226.16c-44.99-4.68-90.658-6.123-135.895-.458-20.243 2.562-56.89 5.615-66.288 28.139-8.434 20.214 13.158 44.828 19.21 63.263 16.062 48.665 12.3 104.705-13.3 149.708-15.067 26.514-36.6 48.966-50.051 76.22-3.9 7.9-19.2 17.215-25.738 26.232-2.265 3.1-3.482 6.171-2.809 9.136 2.738 12.054 31.931 38.1 41.757 45.593 12.183 9.285 38.767 7.6 53.788 10.519 20.812 4.09 31.433-9.582 52.475-12.326a229.336 229.336 0 0125.9-1.985c21.339-.37 42.577 2.671 61.781 11.265 24.885 11.207 29.616 33 52.964 47.264 15.04 9.185 46.623 14.059 63.859 18.455 11.744 3.024 24.264 4.822 35.969 1.548 10.506-2.938 19.494-9.724 27.526-17.085a183 183 0 0056.172-102.975c6.778-39.371.358-79.765-8.651-118.662-7.558-32.629-17.219-65.453-35.5-93.544-13.1-20.147-30.421-37.6-41.151-59.177-6.48-13.024-10.322-27.38-18.375-39.493-20.783-31.248-59.324-38.065-93.643-41.637z" data-name="Path 15551"/>
        <path stroke-width=".795" d="M1607.13 245.912c-40.25-2.986-81.087-4.546-121.606 1-18.145 2.528-50.875 5.5-59.382 25.78-7.634 18.2 11.432 40.318 16.683 56.945 13.978 43.821 10.375 94.2-12.539 134.76-13.5 23.932-32.729 44.233-44.645 68.815-3.474 7.169-17.025 15.611-22.832 23.75-2 2.8-3.079 5.561-2.472 8.235 2.5 10.954 28.553 34.338 37.468 41.161 11.023 8.425 34.9 6.995 48.5 9.59 18.737 3.632 28.424-8.586 47.355-11.131a213.171 213.171 0 0123.326-1.936c19.206-.493 38.315 1.983 55.589 9.469 22.391 9.7 26.807 28.961 47.882 41.456 13.614 8.072 41.983 12.311 57.588 16.159 10.592 2.656 21.876 4.222 32.431 1.274 9.477-2.647 17.6-8.718 24.869-15.314a165.19 165.19 0 0051.113-92.5c6.324-35.413.776-71.8-7.035-106.882-6.594-29.612-15.067-59.474-31.4-85.087-11.7-18.38-27.232-34.352-36.993-53.934-5.887-11.827-9.422-24.849-16.833-35.785-20.071-29.61-55.825-33.508-87.067-35.825z" data-name="Path 15552"/>
        <path stroke-width=".727" d="M1604.509 265.663c-35.471-1.33-71.513-2.967-107.318 2.464-16.044 2.491-44.857 5.377-52.471 23.419-6.829 16.184 9.671 35.812 14.153 50.614 11.811 39 8.449 83.7-11.776 119.814-11.922 21.351-28.853 39.5-39.237 61.408-3.049 6.433-14.867 14-19.929 21.27-1.736 2.5-2.675 4.952-2.133 7.334 2.252 9.852 25.172 30.573 33.179 36.728 9.862 7.564 31.029 6.362 43.215 8.658 16.669 3.139 25.419-7.589 42.238-9.933a198.16 198.16 0 0120.755-1.89c17.071-.611 34.041 1.319 49.4 7.675 19.881 8.229 24 24.915 42.8 35.647 12.19 6.957 37.355 10.523 51.318 13.863 9.448 2.259 19.488 3.622 28.9 1 8.444-2.355 15.7-7.714 22.211-13.545a147.351 147.351 0 0046.053-82.03c5.87-31.456 1.2-63.836-5.42-95.1-5.628-26.6-12.915-53.5-27.29-76.632-10.3-16.613-24.041-31.1-32.834-48.69-5.308-10.619-8.541-22.3-15.3-32.06-19.392-27.967-52.293-28.954-80.514-30.014z" data-name="Path 15553"/>
        <path stroke-width=".659" d="M1601.888 285.415c-30.641.255-61.954-1.464-93.028 3.927-13.952 2.42-38.842 5.257-45.565 21.056-6.027 14.172 7.932 31.3 11.625 44.292 9.708 34.156 6.525 73.2-11.012 104.864-10.35 18.769-24.979 34.766-33.828 54-2.624 5.7-12.712 12.382-17.026 18.79-1.476 2.192-2.273 4.343-1.8 6.433 2.008 8.754 21.791 26.811 28.89 32.3 8.7 6.706 27.157 5.755 37.928 7.729 14.6 2.673 22.412-6.592 37.119-8.737 6.035-.9 12.129-1.548 18.183-1.842 14.94-.732 29.768.655 43.207 5.881 17.37 6.755 21.194 20.872 37.717 29.839 10.766 5.841 32.719 8.766 45.045 11.567 8.3 1.886 17.1 3.022 25.36.724 7.415-2.062 13.81-6.707 19.555-11.773a129.546 129.546 0 0040.994-71.559c5.418-27.5 1.618-55.873-3.8-83.32-4.66-23.589-10.76-47.519-23.179-68.174-8.908-14.845-20.855-27.851-28.678-43.445-4.724-9.415-7.666-19.754-13.769-28.344-18.703-26.328-48.664-24.417-73.938-24.208z" data-name="Path 15554"/>
        <path stroke-width=".591" d="M1599.269 305.167c-25.743 1.725-52.387.1-78.742 5.387-11.854 2.379-32.824 5.138-38.654 18.695-5.226 12.158 6.192 26.788 9.094 37.968 7.61 29.313 4.6 62.7-10.245 89.918-8.781 16.186-21.1 30.034-28.422 46.594-2.2 4.967-10.554 10.764-14.12 16.311-1.215 1.886-1.87 3.733-1.458 5.531 1.765 7.654 18.411 23.047 24.6 27.863 7.541 5.845 23.286 5.147 32.64 6.8 12.522 2.212 19.41-5.567 32-7.539 5.192-.814 10.423-1.453 15.611-1.794 12.805-.853 25.492-.01 37.015 4.086 14.86 5.282 18.394 16.824 32.636 24.028 9.346 4.728 28.079 7.012 38.773 9.274 7.148 1.51 14.714 2.424 21.824.45 6.382-1.771 11.915-5.7 16.9-10a111.75 111.75 0 0035.935-61.091c4.963-23.543 2.047-47.914-2.19-71.538-3.689-20.58-8.607-41.54-19.074-59.717-7.507-13.081-17.662-24.6-24.517-38.206-4.139-8.214-6.8-17.2-12.234-24.628-18.044-24.67-44.944-19.896-67.372-18.392z" data-name="Path 15555"/>
        <path stroke-width=".523" d="M1596.647 324.918c-20.766 3.009-42.82 1.671-64.451 6.851-9.758 2.336-26.808 5.017-31.747 16.334-4.423 10.142 4.456 22.273 6.566 31.642 5.51 24.469 2.677 52.2-9.481 74.972-7.209 13.6-17.219 25.306-23.016 39.187-1.769 4.233-8.4 9.147-11.217 13.829a6.288 6.288 0 00-1.119 4.632c1.521 6.552 15.03 19.283 20.312 23.428 6.38 4.986 19.415 4.542 27.355 5.87 10.446 1.748 16.4-4.569 26.882-6.343 4.348-.736 8.719-1.357 13.041-1.746 10.671-.974 21.215-.673 30.824 2.292 12.345 3.808 15.6 12.777 27.554 18.219 7.93 3.612 23.44 5.257 32.5 6.978 6 1.138 12.325 1.824 18.286.176 5.353-1.479 10.019-4.7 14.241-8.233a93.985 93.985 0 0030.874-50.614c4.511-19.586 2.485-39.961-.573-59.758-2.714-17.574-6.454-35.561-14.967-51.26-6.107-11.314-14.473-21.347-20.358-32.962-3.555-7.01-5.951-14.638-10.7-20.91-17.408-23.007-41.084-15.441-60.806-12.584z" data-name="Path 15556"/>
        <path stroke-width=".455" d="M1594.028 344.671a198.052 198.052 0 00-50.164 8.311c-7.662 2.3-20.791 4.9-24.837 13.973-3.622 8.129 2.719 17.757 4.036 25.318 3.415 19.618.713 41.678-8.716 60.024-5.661 11.012-13.331 20.586-17.61 31.782-1.34 3.5-6.238 7.528-8.311 11.349a5.309 5.309 0 00-.784 3.729c1.28 5.452 11.654 15.519 16.025 19 5.218 4.126 15.542 3.936 22.068 4.941 8.373 1.29 13.4-3.57 21.765-5.146 3.505-.661 7.014-1.261 10.467-1.7 8.54-1.092 16.936-1.334 24.632.5 9.827 2.338 12.819 8.722 22.474 12.411 6.523 2.493 18.8 3.505 26.232 4.682 4.845.767 9.937 1.225 14.751-.1a32.916 32.916 0 0011.583-6.462 76.273 76.273 0 0025.813-40.15c4.057-15.628 2.936-32.012 1.042-47.975-1.729-14.576-4.3-29.584-10.86-42.8-4.709-9.548-11.282-18.1-16.2-27.719-2.97-5.811-5.115-12.066-9.164-17.2-16.816-21.312-38.384-14.679-54.242-6.768z" data-name="Path 15557"/>
        <path stroke-width=".386" d="M1591.406 364.421a152.793 152.793 0 00-35.873 9.772c-5.569 2.261-14.776 4.78-17.93 11.612-2.819 6.115.989 13.24 1.508 18.994a87.726 87.726 0 01-7.953 45.078c-4.088 8.43-9.425 15.874-12.2 24.375-.906 2.773-4.084 5.9-5.406 8.867a4.429 4.429 0 00-.446 2.829c1.037 4.354 8.273 11.755 11.736 14.563 4.059 3.267 11.669 3.335 16.78 4.011 6.3.834 10.391-2.574 16.646-3.95 2.662-.585 5.308-1.165 7.9-1.65 6.4-1.215 12.646-1.991 18.44-1.3 7.3.874 10.057 4.647 17.391 6.6 5.128 1.366 14.158 1.757 19.96 2.386 3.693.4 7.551.625 11.215-.372a27.223 27.223 0 008.927-4.691 58.644 58.644 0 0020.755-29.672c3.6-11.671 3.415-24.074 2.658-36.2-.723-11.585-2.148-23.6-6.753-34.346-3.308-7.781-8.093-14.846-12.041-22.476-2.386-4.607-4.3-9.479-7.627-13.478-16.298-19.564-34.92-10.611-47.687-.952z" data-name="Path 15558"/>
        <path stroke-width=".318" d="M1588.786 384.173a130.93 130.93 0 00-21.587 11.236c-3.472 2.236-8.76 4.659-11.021 9.249-2.018 4.1-.73 8.718-1.019 12.671a96.167 96.167 0 01-7.189 30.128c-2.514 5.853-5.487 11.178-6.8 16.97-.464 2.051-1.939 4.27-2.5 6.387a3.887 3.887 0 00-.107 1.926c.793 3.254 4.893 7.993 7.447 10.13 2.9 2.407 7.8 2.739 11.493 3.082 4.218.391 7.384-1.585 11.529-2.752 1.817-.512 3.6-1.069 5.326-1.6a70.551 70.551 0 0112.248-3.091c4.758-.563 7.326.521 12.309.793 3.756.205 9.513.021 13.689.09a27.928 27.928 0 007.679-.648 22.551 22.551 0 006.269-2.919 41.252 41.252 0 0015.7-19.2c3.149-7.715 3.953-16.146 4.273-24.413.333-8.6 0-17.627-2.646-25.891-1.909-6.014-4.9-11.6-7.882-17.232-1.8-3.405-3.5-6.872-6.092-9.762-15.895-17.725-31.443-6.562-41.119 4.846z" data-name="Path 15559"/>
        <path stroke-width=".25" d="M1563.797 458.506a11.912 11.912 0 003.391 6.724c4.134 3.685 10.791 2.154 15.37-.96s8.266-7.564 13.285-9.9c4.774-2.221 10.289-2.307 15.172-4.277 8.649-3.49 14-12.38 16.525-21.36 3.419-12.163 2.175-26.6-6.821-35.467-15.782-15.561-27.966-2.5-34.551 10.659-7.351 14.681-25.725 37.481-22.371 54.581z" data-name="Path 15560"/>
      </g>
      <g data-name="Group 1896">
        <path d="M1005.841 1153.359c-1.3-17.46-10.879-56.812 1.744-68.943 16.707-16.056 57.763-15.038 80.859-16.886s40.065-29.756 50.714-50.333c13.24-25.576-3.476-38.167 16.9-58.521 6.027-6.02 31.117-13.612 39.319-15.912 50.032-14.032 94.178-2.869 134.5-35.647 33.47-27.209 47.008-62.421 23.436-98.548-10.4-15.943-25.676-28.123-36.966-43.451s-18.281-36.485-9.337-53.292c9.6-18.039 33.4-23.376 53.69-20.893s39.681 10.684 60.089 11.74c27.146 1.4 53.495-9.917 80.667-10.548a103.714 103.714 0 0178.632 33.959 101.947 101.947 0 0124.549 81.955c-2.43 16.069-8.806 31.947-6.638 48.054 2.34 17.384 14.452 32.086 28.56 42.51s30.381 17.445 45.632 26.115c74.451 42.32 122.468 127.424 120.2 213.034-.242 9.17-1.085 18.582-5.13 26.814-5.4 11-15.808 18.551-25.935 25.458-16.958 11.564-35.007 22.9-55.35 25.642-29.074 3.925-57.837-10.55-79.995-29.777s-39.618-43.242-60.463-63.886c-45.018-44.587-29.354-29.175-92.467-34.775-29.57-2.624-96.587 10.356-118.2 30.709-22.453 21.146-48.918 47.19-63.79 74.209-20.529 37.3-80.921 15.13-122.28 25.224-37.491 9.147-82.49 12.213-120.928 7.282-30.64-3.933-39.985-44.049-42.012-71.293z" data-name="Path 15561"/>
        <path stroke-width=".932" d="M1322.282 733.461c8.9-16.209 30.7-20.879 49.275-18.449 18.6 2.453 36.373 10.092 55.068 11.228 24.873 1.52 49.024-8.543 73.964-8.894a96.776 96.776 0 0172.295 31.489q1.791 1.986 3.457 4.076c15.787 19.772 23.227 46.042 19.762 70.944-2.045 14.7-7.683 29.241-5.565 44 2.288 15.931 13.446 29.44 26.393 39.081s27.809 16.234 41.757 24.289c67.718 39.108 111.4 116.809 109.088 195.043-.249 8.38-1.043 16.977-4.751 24.5-4.954 10.055-14.456 16.972-23.71 23.3-15.519 10.621-32.044 21.013-50.664 23.585-26.613 3.674-52.964-9.409-73.316-26.855s-36.439-39.275-55.6-58.086q-3.418-3.358-6.355-6.234c-33.51-32.886-23.988-20.741-78.395-25.672-27.133-2.541-88.291 9.068-108.18 27.391-20.6 19.082-44.568 42.788-58.585 67.08-16.5 28.595-60.244 18.283-96.365 21.006a101.044 101.044 0 00-18.079 2.846q-6.8 1.794-13.942 3.277a294.322 294.322 0 01-98.77 2.942c-27.857-4.13-36.232-40.534-37.811-65.6-1.037-16.04-9.571-51.987 2.087-63.184 15.4-14.8 52.949-14.068 74.142-15.927 21.23-1.891 36.851-27.451 46.632-46.295 12.179-23.457-2.888-35.143 15.762-53.909 5.556-5.634 28.43-12.738 35.969-14.971 45.668-13.528 86.085-3.8 122.99-34.1 30.7-25.279 43.311-57.7 22.272-90.619-9.25-14.538-22.9-25.563-32.9-39.327-10.09-13.825-16.259-32.897-7.925-47.955z" data-name="Path 15562"/>
        <path stroke-width=".864" d="M1337.556 755.105c8.258-14.348 27.981-18.384 44.857-16.008 16.91 2.422 33.066 9.5 50.047 10.718 22.6 1.635 44.551-7.169 67.262-7.238a89.884 89.884 0 0165.957 29.018q1.642 1.805 3.175 3.706c14.507 17.978 21.525 41.782 18.712 64.374-1.661 13.34-6.56 26.537-4.494 39.944 2.238 14.477 12.441 26.79 24.227 35.651 11.776 8.844 25.235 15.023 37.882 22.464 60.984 35.887 100.326 106.192 97.977 177.05-.253 7.589-1 15.375-4.368 22.194-4.5 9.109-13.1 15.391-21.485 21.14-14.08 9.676-29.082 19.13-45.98 21.527-24.153 3.427-48.09-8.267-66.638-23.928s-33.261-35.31-50.731-52.287q-3.113-3.033-5.793-5.628c-30.406-29.66-22.075-18.679-71.241-23.411-24.7-2.376-80.041 7.729-98.159 24.074-18.8 16.962-40.225 38.393-53.38 59.951-15.529 25.45-56.62 16.165-89.933 19.452a94.416 94.416 0 00-16.673 3.03q-6.278 1.8-12.886 3.29c-29.54 6.7-63.64 6.681-91.614 1.865-25.061-4.318-32.474-37.021-33.608-59.913-.77-14.618-8.26-47.159 2.432-57.425 14.1-13.537 48.136-13.1 67.425-14.969 19.364-1.935 33.639-25.145 42.548-42.257 11.119-21.335-2.223-32.048 14.626-49.294 5.107-5.23 25.743-11.866 32.619-14.032 41.3-13.014 77.99-4.732 111.482-32.55 27.932-23.348 39.551-52.935 21.109-82.693-8.126-13.114-20.1-23.022-28.842-35.2-8.857-12.346-14.187-29.281-6.512-42.615z" data-name="Path 15563"/>
        <path stroke-width=".795" d="M1352.827 776.745c7.585-12.5 25.272-15.889 40.442-13.566 15.224 2.392 29.758 8.909 45.028 10.209 20.327 1.752 40.078-5.749 60.557-5.584a83.274 83.274 0 0159.622 26.551q1.492 1.63 2.892 3.338c13.231 16.184 19.825 37.523 17.664 57.807-1.276 11.976-5.437 23.831-3.421 35.887 2.187 13.024 11.435 24.143 22.062 32.223 10.607 8.055 22.66 13.81 34 20.64 54.252 32.659 89.257 95.575 86.867 159.056-.257 6.8-.954 13.771-3.986 19.883-4.053 8.164-11.752 13.812-19.258 18.982-12.643 8.731-26.121 17.248-41.3 19.471-21.692 3.175-43.217-7.129-59.957-21s-30.084-31.345-45.865-46.488c-1.874-1.8-3.618-3.469-5.236-5.023-27.385-26.345-20.153-16.7-64.083-21.15-22.267-2.254-71.768 6.414-88.137 20.759-16.974 14.869-35.9 34.007-48.179 52.822-14.576 22.332-52.995 14.043-83.5 17.9a87.989 87.989 0 00-15.266 3.214 193.896 193.896 0 01-11.83 3.306c-27.259 6.776-59.173 5.878-84.456.784-22.255-4.484-28.666-33.51-29.405-54.221-.473-13.2-6.951-42.333 2.775-51.667 12.792-12.278 43.326-12.085 60.708-14.009 17.5-1.937 30.427-22.842 38.464-38.221 10.059-19.216-1.6-28.993 13.49-44.681 4.647-4.835 23.054-10.991 29.269-13.093 36.933-12.485 69.96-5.584 99.974-31 25.214-21.353 35.82-48.194 19.946-74.767-6.989-11.7-17.311-20.471-24.781-31.076-7.638-10.865-12.14-25.685-5.1-37.286z" data-name="Path 15564"/>
        <path stroke-width=".727" d="M1368.102 798.385c6.912-10.651 22.566-13.432 36.025-11.125 13.545 2.323 26.45 8.317 40.007 9.7 18.054 1.867 35.6-4.36 53.853-3.929a76.645 76.645 0 0153.284 24.076q1.348 1.452 2.612 2.97c11.951 14.388 18.123 33.265 16.613 51.237-.891 10.613-4.314 21.127-2.349 31.833 2.137 11.569 10.431 21.494 19.9 28.792 9.442 7.267 20.084 12.6 30.128 18.815 47.519 29.421 78.184 84.958 75.756 141.063-.26 6.01-.91 12.167-3.6 17.572-3.6 7.219-10.4 12.232-17.033 16.824-11.2 7.786-23.158 15.364-36.611 17.413-19.231 2.928-38.344-5.987-53.278-18.079s-26.906-27.378-41-40.689c-1.671-1.583-3.231-3.045-4.674-4.415-24.308-23.091-18.233-14.726-56.927-18.886-19.835-2.133-63.493 5.1-78.119 17.439-15.145 12.777-31.588 29.637-42.974 45.693-13.653 19.252-49.373 11.926-77.07 16.339a81.978 81.978 0 00-13.859 3.4q-5.229 1.805-10.772 3.321c-25 6.786-54.665 5.09-77.3-.3-19.435-4.624-24.892-30-25.2-48.527-.2-11.78-5.64-37.51 3.12-45.911 11.487-11.017 38.516-11.1 53.993-13.049 15.638-1.968 27.213-20.536 34.379-34.183 9-17.1-.973-25.943 12.353-40.068 4.187-4.44 20.364-10.113 25.919-12.152 32.558-11.943 61.887-6.493 88.465-29.451 22.462-19.4 32.088-43.453 18.783-66.841-5.853-10.284-14.521-17.919-20.72-26.951-6.437-9.358-10.112-22.062-3.704-31.931z" data-name="Path 15565"/>
        <path stroke-width=".659" d="M1383.374 820.024c6.238-8.8 19.858-10.945 31.609-8.681 11.861 2.282 23.141 7.725 34.986 9.187 15.782 1.982 31.132-2.972 47.151-2.275a70.19 70.19 0 0146.949 21.608q1.2 1.27 2.329 2.6c10.674 12.593 16.426 29 15.565 44.666-.506 9.249-3.191 18.421-1.276 27.78 2.085 10.115 9.425 18.846 17.729 25.362 8.277 6.477 17.508 11.38 26.253 16.989 40.789 26.171 67.113 74.343 64.644 123.07-.264 5.22-.866 10.565-3.223 15.262-3.151 6.274-9.047 10.653-14.806 14.666-9.764 6.842-20.2 13.482-31.929 15.356-16.768 2.679-33.468-4.847-46.6-15.155s-23.727-23.413-36.134-34.89c-1.468-1.365-2.842-2.624-4.112-3.812-21.226-19.835-16.314-12.756-49.771-16.623-17.4-2.012-55.216 3.781-68.1 14.122a252.351 252.351 0 00-37.769 38.568c-12.773 16.224-45.749 9.808-70.639 14.785a76.247 76.247 0 00-12.453 3.584 138.419 138.419 0 01-9.716 3.336c-22.719 6.851-50.108 4.325-70.143-1.376-16.6-4.724-21.121-26.481-21-42.838.075-10.358-4.331-32.684 3.463-40.153 10.184-9.758 33.7-10.119 47.276-12.091 13.775-2 24-18.231 30.3-30.147 7.94-14.973-.356-22.893 11.213-35.454 3.729-4.047 17.673-9.233 22.572-11.211 28.177-11.378 53.811-7.405 76.957-27.9 19.708-17.455 28.353-38.714 17.618-58.912-4.715-8.871-11.727-15.368-16.656-22.824-5.208-7.875-8.063-18.456-2.287-26.599z" data-name="Path 15566"/>
        <path stroke-width=".591" d="M1398.645 841.662c5.562-6.937 17.15-8.453 27.194-6.238 10.176 2.246 19.833 7.133 29.965 8.677 13.511 2.1 26.657-1.587 40.448-.619a63.869 63.869 0 0140.611 19.135c.7.726 1.382 1.474 2.045 2.234 9.4 10.8 14.726 24.747 14.517 38.1-.121 7.884-2.068 15.715-.205 23.723 2.035 8.662 8.421 16.2 15.565 21.935 7.108 5.686 14.929 10.157 22.376 15.163 34.06 22.9 56.042 63.726 53.533 105.077-.268 4.431-.822 8.963-2.842 12.951-2.7 5.328-7.694 9.074-12.579 12.508-8.325 5.9-17.234 11.6-27.246 13.3-14.306 2.428-28.595-3.708-39.917-12.231s-20.552-19.448-31.27-29.091c-1.265-1.146-2.455-2.2-3.553-3.206-18.143-16.583-14.394-10.793-42.614-14.362-14.973-1.893-46.935 2.464-58.081 10.8-11.477 8.589-23.093 20.935-32.564 31.435-11.966 13.263-42.125 7.689-64.208 13.231a71.23 71.23 0 00-11.048 3.766 111.21 111.21 0 01-8.658 3.352c-20.444 6.92-45.486 3.6-62.987-2.455-13.746-4.757-17.351-22.964-16.8-37.146.349-8.934-3.02-27.859 3.808-34.394 8.879-8.5 28.894-9.139 40.559-11.132 11.914-2.033 20.787-15.925 26.213-26.109 6.88-12.853.257-19.854 10.076-30.841 3.268-3.657 14.979-8.348 19.222-10.27 23.794-10.778 45.733-8.319 65.449-26.356 16.953-15.51 24.616-33.978 16.454-50.986-3.58-7.459-8.931-12.815-12.595-18.7-3.97-6.375-6.013-14.829-.868-21.251z" data-name="Path 15567"/>
        <path stroke-width=".523" d="M1413.922 863.303c4.877-5.073 14.442-5.962 22.776-3.8 8.494 2.21 16.525 6.543 24.944 8.168 11.238 2.212 22.182-.2 33.744 1.035a58.171 58.171 0 0134.273 16.667 50.07 50.07 0 011.765 1.865c8.118 9 13.024 20.488 13.467 31.529.264 6.522-.945 13.01.868 19.67 1.983 7.21 7.414 13.549 13.4 18.5 5.943 4.9 12.351 8.932 18.5 13.338 27.338 19.586 44.97 53.11 42.422 87.084-.272 3.639-.778 7.359-2.461 10.64-2.25 4.383-6.349 7.484-10.354 10.35-6.9 4.935-14.272 9.716-22.56 11.242-11.845 2.181-23.721-2.566-33.238-9.306s-17.391-15.46-26.4-23.292c-1.064-.924-2.068-1.778-2.992-2.6-15.055-13.334-12.478-8.844-35.459-12.1-12.543-1.778-38.645 1.144-48.06 7.487-9.636 6.495-20.485 15.22-27.359 24.306-12.951 8.223-38.5 5.571-57.776 11.677a67 67 0 00-9.641 3.95 87.666 87.666 0 01-7.6 3.367c-18.167 6.993-40.779 2.945-55.829-3.536-10.883-4.686-13.585-19.444-12.594-31.454.619-7.51-1.71-23.033 4.151-28.635 7.574-7.24 24.086-8.162 33.842-10.172 10.053-2.072 17.575-13.622 22.129-22.073 5.82-10.734.864-16.822 8.94-26.228 2.806-3.267 12.281-7.457 15.872-9.329 19.408-10.124 37.654-9.241 53.941-24.808 14.2-13.568 20.873-29.252 15.291-43.058-2.449-6.054-6.127-10.264-8.534-14.574-2.744-4.887-3.996-11.203.532-15.91z" data-name="Path 15568"/>
        <path stroke-width=".455" d="M1429.191 884.944c4.174-3.2 11.734-3.469 18.361-1.353 6.813 2.175 13.221 5.933 19.923 7.656 8.971 2.305 17.7 1.177 27.041 2.691a53.6 53.6 0 0127.936 14.194q.759.73 1.481 1.5c6.84 7.208 11.324 16.23 12.418 24.961.65 5.155.178 10.3 1.942 15.613 1.932 5.757 6.409 10.9 11.232 15.076 4.774 4.107 9.77 7.7 14.624 11.514 20.63 16.217 33.9 42.493 31.31 69.09a22.493 22.493 0 01-2.079 8.329c-1.8 3.438-5 5.9-8.128 8.193-5.462 3.99-11.309 7.834-17.876 9.185-9.385 1.93-18.848-1.426-26.56-6.382s-14.214-11.493-21.539-17.493c-.86-.705-1.679-1.359-2.43-1.993-11.958-10.09-10.563-6.914-28.3-9.839-10.117-1.667-30.344-.176-38.039 4.17-7.784 4.4-16.424 10.653-22.157 17.177-12.3 4.862-34.875 3.453-51.343 10.121a64.735 64.735 0 00-8.237 4.136 67.624 67.624 0 01-6.547 3.383c-15.889 7.072-37.632 4.8-48.671-4.615-8.75-2.762-9.824-15.924-8.392-25.764.885-6.085-.4-18.208 4.5-22.876 6.269-5.981 19.277-7.19 27.127-9.214 8.191-2.112 14.362-11.316 18.045-18.035 4.758-8.612 1.456-13.806 7.8-21.615 2.34-2.88 9.582-6.552 12.524-8.39 15.03-9.39 29.567-10.17 42.429-23.258 11.437-11.637 17.127-24.544 14.128-35.132-1.318-4.655-3.3-7.7-4.471-10.448-1.457-3.416-1.972-7.579 1.948-10.582z" data-name="Path 15569"/>
        <path stroke-width=".386" d="M1444.465 906.582c3.419-1.324 9.026-.97 13.944 1.089 5.13 2.148 9.916 5.343 14.9 7.146 6.7 2.422 13.225 2.547 20.339 4.345a52.063 52.063 0 0121.6 11.727c.408.366.807.743 1.2 1.127a41.941 41.941 0 0111.37 18.392c1.033 3.793 1.292 7.6 3.011 11.56 1.872 4.306 5.4 8.252 9.067 11.646 3.609 3.319 7.19 6.443 10.749 9.687 13.965 12.738 22.826 31.878 20.2 51.1a17.5 17.5 0 01-1.7 6.018c-1.347 2.493-3.643 4.323-5.9 6.035-4.022 3.045-8.346 5.951-13.191 7.129-6.924 1.681-13.974-.287-19.879-3.457s-11.037-7.526-16.673-11.694c-.659-.489-1.292-.937-1.87-1.387-8.846-6.857-8.649-5.027-21.148-7.578-7.7-1.569-22.019-1.495-28.02.855a62.3 62.3 0 00-16.953 10.046c-11.654 1.5-31.251 1.334-44.913 8.566a65.016 65.016 0 00-6.828 4.32 50.521 50.521 0 01-5.49 3.4c-13.607 7.162-33.275 4.366-41.513-5.694-6.014-2.614-6.075-12.4-4.189-20.073 1.144-4.659.91-13.382 4.839-17.117 4.965-4.722 14.469-6.226 20.41-8.256 6.332-2.162 11.136-9.017 13.961-14 3.683-6.5 2.031-10.8 6.665-17 1.87-2.5 6.89-5.627 9.174-7.449 10.7-8.528 21.47-11.115 30.921-21.709 8.67-9.714 13.384-19.881 12.964-27.205-.188-3.279-.73-5.057-.41-6.324-.499-1.796-.006-3.939 3.363-5.245z" data-name="Path 15570"/>
        <path stroke-width=".318" d="M1459.737 928.223a27.978 27.978 0 019.528 3.53c3.446 2.133 6.608 4.757 9.881 6.637 4.431 2.543 8.746 3.9 13.635 6a67.092 67.092 0 0115.262 9.254c.309.249.613.5.918.759a47.387 47.387 0 0110.322 11.822c1.416 2.43 2.417 4.9 4.084 7.507a57.079 57.079 0 006.9 8.216c2.442 2.53 4.632 5.142 6.874 7.863 7.434 9.032 11.755 21.261 9.088 33.106a12.955 12.955 0 01-1.317 3.706 14.968 14.968 0 01-3.676 3.877 26.964 26.964 0 01-8.509 5.071 21.069 21.069 0 01-13.2-.533 63.627 63.627 0 01-11.805-5.898c-.456-.268-.9-.515-1.311-.78-5.7-3.656-6.729-3.235-13.99-5.316-5.278-1.512-13.637-2.767-18-2.462a40.412 40.412 0 00-11.748 2.917c-11.008-1.863-27.627-.784-38.482 7.012-1.912 1.38-3.654 2.944-5.423 4.5a36.995 36.995 0 01-4.433 3.411c-11.316 7.261-28.919 3.927-34.357-6.774-3.277-2.468-2.349-8.881.013-14.381 1.389-3.235 2.221-8.557 5.184-11.359 3.66-3.463 9.655-5.282 13.693-7.3 4.469-2.231 7.926-6.711 9.877-9.964 2.627-4.377 2.57-7.836 5.529-12.388 1.385-2.131 4.224-4.664 5.824-6.508 6.495-7.485 13.346-12.089 19.413-20.161a130.183 130.183 0 0011.8-19.279c.995-1.945 2.041-2.5 3.653-2.2.702-.268 1.891-.379 4.773.115z" data-name="Path 15571"/>
        <path stroke-width=".25" d="M1435.706 985.802c-4.1 5.845-24.134 19.6-22.514 26.554 2.639 11.341 18.19 15.232 27.2 7.853 2.836-2.321 4.852-5.475 7.393-8.116a28.156 28.156 0 0132.05-5.456c7.489 3.777 13.231 10.968 21.358 13.047a18.607 18.607 0 0022.441-23.363c-3.195-10.676-13.543-14.3-22.158-19.53-13.4-8.129-16.452-15.987-26.468-26.927-22.714-24.818-26.832 18.177-39.302 35.938z" data-name="Path 15572"/>
      </g>
      <g data-name="Group 1897">
        <path d="M1700.262 773.831c-17.991.3-37.79 1.654-50.672 14.216-13.683 13.342-14.766 35.724-7.815 53.525s20.4 32.142 33.388 46.164c18.861 20.368 38.069 41.571 63.18 53.4s58.035 11.876 77.818-7.6c10.778-10.607 16.282-25.41 20.134-40.032 6.472-24.565 9.065-51.166.3-75.01-21.176-57.637-87.704-45.477-136.333-44.663z" data-name="Path 15573"/>
        <path stroke-width=".875" d="M1663.72 796.259a35.133 35.133 0 00-9.691 18.359 51.933 51.933 0 002.581 28.449c5.947 15.617 17.665 28.255 29.141 40.377 16.318 17.238 32.926 35.057 54.474 44.815s49.572 9.5 66.476-7.194c9.3-9.189 14.091-21.958 17.4-34.6 5.556-21.24 7.57-44.25-.2-64.758a55.724 55.724 0 00-19.049-25.8c-25.7-18.208-66.149-12.464-97.825-11.891-15.39.273-32.259 1.502-43.307 12.243z" data-name="Path 15574"/>
        <path stroke-width=".75" d="M1677.856 804.471a30.314 30.314 0 00-8.383 15.7 44.719 44.719 0 001.974 24.392c4.942 13.432 14.927 24.371 24.9 34.591 13.768 14.112 27.78 28.541 45.766 36.228s41.109 7.129 55.139-6.79c7.813-7.773 11.9-18.509 14.661-29.176 4.641-17.916 6.079-37.334-.7-54.5a47.605 47.605 0 00-16.078-21.186c-21.539-14.35-55.018-10.063-81.333-9.538-12.793.252-26.733 1.364-35.946 10.279z" data-name="Path 15575"/>
        <path stroke-width=".625" d="M1691.989 812.684a25.617 25.617 0 00-7.073 13.034 37.524 37.524 0 001.37 20.333c3.936 11.247 12.181 20.488 20.649 28.8 11.2 11 22.637 22.025 37.06 27.642s32.646 4.755 43.8-6.387c6.33-6.355 9.7-15.057 11.924-23.744 3.728-14.593 4.588-30.419-1.2-44.252-2.524-6.87-8.432-13.11-13.106-16.564-17.38-10.492-43.888-7.662-64.84-7.183-10.196.238-21.192 1.242-28.584 8.321z" data-name="Path 15576"/>
        <path stroke-width=".5" d="M1706.123 820.896a20.867 20.867 0 00-5.765 10.372 30.356 30.356 0 00.765 16.276c2.932 9.063 9.423 16.615 16.4 23.016 8.616 7.9 17.491 15.511 28.352 19.057s24.183 2.382 32.458-5.985c4.848-4.937 7.514-11.606 9.187-18.315 2.813-11.27 3.1-23.5-1.694-34-1.683-4.58-7.02-9.641-10.136-11.943-13.215-6.628-32.755-5.26-48.343-4.828-7.601.21-15.665 1.1-21.224 6.35z" data-name="Path 15577"/>
        <path stroke-width=".375" d="M1720.256 829.108a16.116 16.116 0 00-4.456 7.712 23.205 23.205 0 00.161 12.217c1.926 6.878 6.635 12.763 12.158 17.228 5.987 4.841 12.348 9 19.643 10.471s15.736.021 21.119-5.581c3.377-3.513 5.322-8.156 6.453-12.886 1.9-7.947 1.6-16.588-2.2-23.748-.841-2.29-5.605-6.171-7.161-7.323-9.063-2.775-21.631-2.861-31.859-2.476-5 .189-10.136.952-13.858 4.386z" data-name="Path 15578"/>
        <path stroke-width=".25" d="M1760.448 837.728l-4.191-2.7c-7.324 1.617-16.205-2.625-21.864 2.3a11.289 11.289 0 00-3.147 5.048 16.633 16.633 0 1029.2-4.642z" data-name="Path 15579"/>
      </g>
      <g data-name="Group 1898">
        <path d="M1385.721 1258.464c1.909 17.892 5.025 37.489 18.687 49.2 14.509 12.436 36.9 11.516 54.008 3s30.193-23.19 43-37.376c18.6-20.605 38-41.632 47.542-67.7s6.644-58.865-14.517-76.829c-11.529-9.785-26.763-13.946-41.67-16.477-25.044-4.251-51.772-4.456-74.738 6.4-55.52 26.241-37.465 91.415-32.312 139.782z" data-name="Path 15580"/>
        <path stroke-width=".875" d="M1422.36 1131.033a55.736 55.736 0 00-24 21.28c-15.839 27.223-6.5 67-3.1 98.5 1.652 15.3 4.387 32 16.069 42.04 12.334 10.6 31.192 9.718 45.892 2.949 15.368-7.073 27.682-19.793 38.974-32.679 15.644-17.851 31.975-35.925 39.77-58.259s5.036-50.223-13.1-65.57c-9.984-8.436-23.129-12.071-36.019-14.237-21.658-3.64-44.756-3.59-64.486 5.976z" data-name="Path 15581"/>
        <path stroke-width=".75" d="M1426.685 1143.389a47.615 47.615 0 00-19.664 17.907c-12.366 22.736-5.107 55.7-2.233 81.862 1.4 12.719 3.75 26.5 13.453 34.884 10.157 8.754 25.515 7.953 37.776 2.9 13.656-5.634 25.176-16.383 34.952-27.982 12.706-15.074 25.944-30.22 31.994-48.819s3.428-41.582-11.688-54.311c-8.44-7.089-19.5-10.2-30.368-12-18.259-3.025-37.73-2.724-54.222 5.559z" data-name="Path 15582"/>
        <path stroke-width=".625" d="M1431.011 1155.744c-6.619 3.128-12.305 9.569-15.328 14.532-8.9 18.248-3.71 44.4-1.363 65.225 1.144 10.134 3.114 21.013 10.839 27.727 7.978 6.914 19.887 6.249 29.658 2.842 11.995-4.18 22.675-12.957 30.927-23.283 9.8-12.263 19.917-24.513 24.222-39.38s1.821-32.939-10.274-43.052c-6.9-5.738-15.862-8.321-24.714-9.755-14.869-2.409-30.708-1.853-43.967 5.144z" data-name="Path 15583"/>
        <path stroke-width=".5" d="M1435.34 1168.097c-4.412 2.087-8.976 7.853-10.991 11.161-5.425 13.762-2.313 33.1-.49 48.589.889 7.549 2.476 15.521 8.221 20.569 5.8 5.073 14.329 4.653 21.542 2.79a49.79 49.79 0 0026.9-18.584c6.947-9.4 13.886-18.808 16.447-29.942s.213-24.3-8.859-31.793c-5.351-4.389-12.231-6.447-19.063-7.516-11.476-1.794-23.687-.983-33.707 4.726z" data-name="Path 15584"/>
        <path stroke-width=".375" d="M1439.661 1180.452c-2.206 1.043-5.646 6.134-6.654 7.788-1.955 9.274-.918 21.8.38 31.95.634 4.965 1.84 10.031 5.605 13.415 3.626 3.231 8.858 2.2 13.426 2.737 8.932 1.039 17.777-6 22.88-13.886 4.183-6.466 7.857-13.1 8.674-20.5s-1.384-15.672-7.445-20.536c-3.8-3.047-8.6-4.571-13.411-5.274-8.083-1.183-16.665-.117-23.455 4.306z" data-name="Path 15585"/>
        <path stroke-width=".25" d="M1443.987 1192.805l-2.317 4.415c2.265 7.15-1.167 16.374 4.241 21.571a11.268 11.268 0 005.308 2.683 16.633 16.633 0 10-7.233-28.67z" data-name="Path 15586"/>
      </g>
      <g data-name="Group 1899">
        <path d="M243.188 365.72c2.315 21.724 6.1 45.522 22.688 59.74 17.621 15.1 44.81 13.986 65.585 3.647s36.661-28.162 52.213-45.388c22.587-25.021 46.149-50.553 57.732-82.206s8.066-71.48-17.629-93.293c-14-11.884-32.5-16.937-50.6-20.009-30.412-5.161-62.866-5.412-90.754 7.769-67.42 31.862-45.496 111.008-39.235 169.74z" data-name="Path 15587"/>
        <path stroke-width=".875" d="M287.675 210.982a67.685 67.685 0 00-29.102 25.777c-19.289 33.055-7.942 81.392-3.81 119.667 2.006 18.585 5.326 38.853 19.513 51.049 14.977 12.867 37.876 11.8 55.727 3.582 18.66-8.589 33.616-24.034 47.328-39.683 19-21.677 38.828-43.623 48.292-70.744s6.115-60.986-15.91-79.621c-12.126-10.25-28.09-14.659-43.739-17.289-26.291-4.415-54.34-4.361-78.299 7.262z" data-name="Path 15588"/>
        <path stroke-width=".75" d="M292.926 225.983a57.849 57.849 0 00-23.844 21.692c-15.063 27.61-6.236 67.666-2.744 99.456 1.7 15.446 4.553 32.186 16.337 42.36 12.332 10.63 30.983 9.657 45.871 3.515 16.583-6.84 30.571-19.892 42.441-33.976 15.431-18.306 31.508-36.7 38.853-59.282s4.163-50.497-14.194-65.952c-10.247-8.607-23.673-12.382-36.874-14.567-22.173-3.669-45.813-3.301-65.846 6.754z" data-name="Path 15589"/>
        <path stroke-width=".625" d="M298.179 240.986c-8.014 3.789-14.914 11.599-18.587 17.608-10.836 22.162-4.527 53.942-1.677 79.242 1.387 12.307 3.779 25.517 13.16 33.669 9.689 8.394 24.149 7.587 36.015 3.451 14.565-5.077 27.535-15.736 37.556-28.273 11.9-14.891 24.185-29.766 29.411-47.818s2.212-40-12.476-52.28c-8.373-6.968-19.262-10.105-30.011-11.847-18.054-2.923-37.287-2.247-53.391 6.248z" data-name="Path 15590"/>
        <path stroke-width=".5" d="M303.435 255.988c-5.35 2.521-10.887 9.521-13.332 13.526-6.612 16.711-2.829 40.21-.613 59.029 1.081 9.166 3.007 18.846 9.985 24.977 7.045 6.159 17.4 5.65 26.159 3.386 12.639-3.262 24.522-11.543 32.669-22.566 8.438-11.416 16.864-22.838 19.973-36.358s.259-29.507-10.76-38.608c-6.5-5.33-14.85-7.829-23.148-9.126-13.933-2.179-28.761-1.194-40.933 5.74z" data-name="Path 15591"/>
        <path stroke-width=".375" d="M308.685 270.99c-2.673 1.263-6.849 7.441-8.072 9.444-2.384 11.263-1.123 26.483.452 38.815.772 6.027 2.235 12.177 6.809 16.286 4.4 3.925 10.755 2.677 16.3 3.323 10.845 1.261 21.586-7.284 27.784-16.863 5.079-7.85 9.54-15.908 10.533-24.894s-1.679-19.032-9.038-24.941c-4.613-3.7-10.441-5.55-16.286-6.4-9.816-1.435-20.235-.142-28.482 5.23z" data-name="Path 15592"/>
        <path stroke-width=".25" d="M313.937 285.992l-2.815 5.362c2.75 8.683-1.416 19.885 5.151 26.2a13.7 13.7 0 006.447 3.258 20.839 20.839 0 0022.897-11.162 20.837 20.837 0 00-6.23-24.7 20.84 20.84 0 00-25.45 1.042z" data-name="Path 15593"/>
      </g>
    </g>
  </g>
</svg>
