<?xml version="1.0" encoding="UTF-8"?>
<svg width="47px" height="49px" viewBox="0 0 47 49" version="1.1" xmlns="http://www.w3.org/2000/svg" xmlns:xlink="http://www.w3.org/1999/xlink">
    <!-- Generator: Sketch 51.1 (57501) - http://www.bohemiancoding.com/sketch -->
    <title>Icon - Key</title>
    <desc>Created with Sketch.</desc>
    <defs></defs>
    <g id="Symbols" stroke="none" stroke-width="1" fill="none" fill-rule="evenodd">
        <g id="Icon-/-Key" transform="translate(-7.000000, -6.000000)">
            <g id="Icon---Key">
                <rect id="Rectangle" x="0" y="0" width="60" height="60"></rect>
                <path d="M30.9411222,24.8294863 L53.7634041,42.1097955 L44.9299914,54.2998241 L40.8812514,51.3659351 L46.8417467,43.1405063 L43.5019557,40.6117223 L39.4683947,46.0946848 L35.4408307,43.1317929 L39.5153328,37.5931777 L27.8691134,28.775029 C26.4951934,29.9513019 24.8433205,30.8464519 22.9797002,31.3458075 C16.3113739,33.1325801 9.45716192,29.175299 7.67038928,22.5069727 C5.88361663,15.8386464 9.84089775,8.98443448 16.509224,7.19766183 C23.1775503,5.41088919 30.0317623,9.36817031 31.8185349,16.0364966 C32.638791,19.0977341 32.248508,22.1981463 30.9411222,24.8294863 Z M21.6856049,26.5161784 C25.6866007,25.4441148 28.0609694,21.3315876 26.9889058,17.3305918 C25.9168422,13.329596 21.804315,10.9552274 17.8033193,12.027291 C13.8023235,13.0993546 11.4279548,17.2118817 12.5000184,21.2128775 C13.572082,25.2138733 17.6846092,27.5882419 21.6856049,26.5161784 Z" id="Combined-Shape" fill="#242424" fill-rule="nonzero"></path>
            </g>
        </g>
    </g>
</svg>