<?xml version="1.0" encoding="UTF-8"?>
<svg width="48px" height="44px" viewBox="0 0 48 44" version="1.1" xmlns="http://www.w3.org/2000/svg" xmlns:xlink="http://www.w3.org/1999/xlink">
    <!-- Generator: Sketch 50.2 (55047) - http://www.bohemiancoding.com/sketch -->
    <title>icon_manage</title>
    <desc>Created with Sketch.</desc>
    <defs></defs>
    <g id="Icons" stroke="none" stroke-width="1" fill="none" fill-rule="evenodd">
        <g id="Icon-/-400-Copy-3" transform="translate(-5.000000, -8.000000)">
            <g id="icon_manage">
                <rect id="Rectangle-6" x="0" y="0" width="60" height="60"></rect>
                <path d="M27.6676352,20.4420826 C24.5197288,19.2242331 22.2872495,16.167908 22.2872495,12.5901595 C22.2872495,9.38992139 24.073459,6.60687487 26.7032932,5.18360461 L26.7032932,11.2463732 L30.7037357,14.3982949 L34.7172724,11.2463732 L34.7172724,5.1911873 C37.3394553,6.61674421 39.1193369,9.39559504 39.1193369,12.5901595 C39.1193369,16.1614807 36.8948716,19.2132502 33.7559078,20.4355013 L34.7204363,54.4766274 C34.623477,56.974197 33.2984682,58.2229818 30.7454101,58.2229818 C28.192352,58.2229818 26.8449797,56.974197 26.7032932,54.4766274 L27.6676352,20.4420826 Z M30.7032932,55.2229818 C31.2555779,55.2229818 31.7032932,54.7752665 31.7032932,54.2229818 C31.7032932,53.670697 31.2555779,53.2229818 30.7032932,53.2229818 C30.1510084,53.2229818 29.7032932,53.670697 29.7032932,54.2229818 C29.7032932,54.7752665 30.1510084,55.2229818 30.7032932,55.2229818 Z" id="Combined-Shape" fill="#1DA290" transform="translate(30.703293, 31.703293) rotate(-315.000000) translate(-30.703293, -31.703293) "></path>
                <path d="M19.9884935,6.58656147 L22.0784756,6.58655917 C22.5462102,6.58656666 22.9514593,6.91078523 23.0541135,7.36711597 C23.2403545,8.19501676 23.7194516,8.60896716 24.4914047,8.60896716 C25.2562164,8.60896716 25.7345241,8.19324325 25.926328,7.36179543 L25.9263579,7.36180231 C26.0310328,6.90804832 26.4350658,6.58660912 26.9007369,6.58660912 C29.7021526,6.58660912 32.1736383,6.58660912 34.3151941,6.58660912 C39.1569971,6.58660912 42.447912,9.0170492 44.1879387,13.8779293 L44.1406698,13.89485 C44.177858,13.9987376 44.1237874,14.1131021 44.0198998,14.1502903 C43.9374125,14.1798179 43.8453111,14.1521596 43.7927382,14.082073 C42.2951874,12.0856404 40.1620642,11.0874241 37.3933687,11.0874241 C35.1204529,11.0874241 33.9465913,13.0656015 33.9465913,15.5882391 C33.9465913,17.2245765 34.2644737,30.2076988 34.9002386,54.5376061 L34.9002527,54.5376057 C34.9291065,55.6418061 34.057366,56.560328 32.9531656,56.5891818 C32.9357545,56.5896368 32.9183381,56.5898643 32.900921,56.5898643 L29.079226,56.589882 C27.9746468,56.589882 27.0792084,55.6944436 27.0792084,54.5898643 C27.0792084,54.5722841 27.0794402,54.5547046 27.0799037,54.5371305 C27.7082597,30.7139992 28.0224377,17.7310354 28.0224377,15.5882391 C28.0224377,14.2377842 27.5500363,12.6452843 25.4859301,12.6452843 C24.5859367,12.6452843 23.8336858,13.13688 23.2291772,14.1200716 L23.229164,14.1200636 C23.0472113,14.415997 22.7247082,14.5962934 22.377313,14.5962934 L19.9885835,14.5962821 C19.4363032,14.5962821 18.9885897,14.1485737 18.9885835,13.5962934 L18.9884775,7.58654548 C18.9884713,7.03426073 19.4361815,6.58654044 19.9884662,6.58653423 C19.9884753,6.58653423 19.9884844,6.58653423 19.9884935,6.58653423 Z" id="Hammer" fill="#CD3C8E" transform="translate(31.588208, 31.588208) rotate(-45.000000) translate(-31.588208, -31.588208) "></path>
                <path d="M35.4906696,31.5443224 L30.8325022,36.4741583 C29.06969,34.6199868 27.4819722,32.9513622 26.069349,31.4682845 L30.7555377,27.0403377 C32.16675,28.383612 33.7451273,29.8849402 35.4906696,31.5443224 Z" id="Combined-Shape" fill="#0A0F56"></path>
            </g>
        </g>
    </g>
</svg>