<?xml version="1.0" encoding="UTF-8"?>
<svg width="12px" height="12px" viewBox="0 0 12 12" version="1.1" xmlns="http://www.w3.org/2000/svg" xmlns:xlink="http://www.w3.org/1999/xlink">
    <g stroke="none" stroke-width="1" fill="none" fill-rule="evenodd">
      <path d="M4.02400924,8.57017038 C4.13118445,8.67432665 4.19139954,8.81562542 4.19139954,8.96296297 C4.19139954,9.11030052 4.13118445,9.25159929 4.02400924,9.35575556 L2.5003805,10.837237 C2.39326203,10.9414493 2.24794303,11 2.09641319,11 C1.94488335,11 1.79956435,10.9414493 1.69244588,10.837237 L0.168817145,9.35575556 C0.0236160801,9.21559585 -0.0334140662,9.01063612 0.0193007082,8.81841083 C0.0720154826,8.62618555 0.226425913,8.47604648 0.424119892,8.42478993 C0.621813871,8.37353337 0.832604583,8.42898592 0.976751757,8.57017038 L1.52505241,9.1032963 L1.52505241,1.55555556 C1.52505241,1.24873069 1.78085935,1 2.09641319,1 C2.41196703,1 2.66777397,1.24873069 2.66777397,1.55555556 L2.66777397,9.1032963 L3.21607462,8.57017038 C3.32319408,8.46595989 3.46851271,8.40741049 3.62004193,8.40741049 C3.77157115,8.40741049 3.91688978,8.46595989 4.02400924,8.57017038 Z M11.4286392,2.2962963 L5.71503145,2.2962963 C5.3994776,2.2962963 5.14367067,2.54502699 5.14367067,2.85185185 C5.14367067,3.15867671 5.3994776,3.40740741 5.71503145,3.40740741 L11.4286392,3.40740741 C11.7441931,3.40740741 12,3.15867671 12,2.85185185 C12,2.54502699 11.7441931,2.2962963 11.4286392,2.2962963 Z M10.6668249,4.51851852 L5.71503145,4.51851852 C5.3994776,4.51851852 5.14367067,4.76724922 5.14367067,5.07407408 C5.14367067,5.38089894 5.3994776,5.62962963 5.71503145,5.62962963 L10.6668249,5.62962963 C10.9823787,5.62962963 11.2381856,5.38089894 11.2381856,5.07407408 C11.2381856,4.76724922 10.9823787,4.51851852 10.6668249,4.51851852 Z M9.90501048,6.74074075 L5.71503145,6.74074075 C5.3994776,6.74074075 5.14367067,6.98947144 5.14367067,7.2962963 C5.14367067,7.60312116 5.3994776,7.85185186 5.71503145,7.85185186 L9.90501048,7.85185186 C10.2205643,7.85185186 10.4763713,7.60312116 10.4763713,7.2962963 C10.4763713,6.98947144 10.2205643,6.74074075 9.90501048,6.74074075 Z M9.14319611,8.96296297 L5.71503145,8.96296297 C5.3994776,8.96296297 5.14367067,9.21169366 5.14367067,9.51851852 C5.14367067,9.82534339 5.3994776,10.0740741 5.71503145,10.0740741 L9.14319611,10.0740741 C9.45874996,10.0740741 9.71455689,9.82534339 9.71455689,9.51851852 C9.71455689,9.21169366 9.45874996,8.96296297 9.14319611,8.96296297 Z" id="path-1"/>
    </g>
</svg>