<?xml version="1.0" encoding="UTF-8"?>
<svg width="37px" height="47px" viewBox="0 0 37 47" version="1.1" xmlns="http://www.w3.org/2000/svg" xmlns:xlink="http://www.w3.org/1999/xlink">
    <!-- Generator: Sketch 50.2 (55047) - http://www.bohemiancoding.com/sketch -->
    <title>Icon - Segment</title>
    <desc>Created with Sketch.</desc>
    <defs>
        <path d="M34,16.3597583 L33.4592861,16.1336969 C32.4762218,15.7226978 31.2894441,15.5 29.9294959,15.5 C25.9691798,15.5 23.9418783,17.4452792 23.9418783,20.4070041 C23.9418783,23.2481924 25.8655545,25.0483331 31.0795949,27.5447217 L31.1841662,27.5978389 C37.5724155,31.0336114 40.9929515,34.816479 40.9929515,39.1921952 C40.9929515,44.9718449 36.7413031,49.0991993 30.0705041,49.0991993 C28.9977802,49.0991993 27.9710437,49.000081 27,48.8039188 L27,53 L12,53 L12,38 L27,38 L27,43.6403745 L27.1482951,43.6871174 C28.0024358,43.9563443 28.9818078,44.0991993 30.0705041,44.0991993 C34.0125335,44.0991993 35.9929515,42.1766774 35.9929515,39.1921952 C35.9929515,37.1417831 33.7667787,34.6728044 28.8662265,32.0285073 C22.0880747,28.7755818 18.9418783,25.8170736 18.9418783,20.4070041 C18.9418783,14.6366016 23.2528988,10.5 29.9294959,10.5 C31.3789442,10.5 32.744104,10.6810766 34,11.0371632 L34,6 L49,6 L49,21 L34,21 L34,16.3597583 Z M16,42 L16,49 L23,49 L23,42 L16,42 Z M38,10 L38,17 L45,17 L45,10 L38,10 Z" id="path-segment"></path>
    </defs>
    <g id="Symbols" stroke="none" stroke-width="1" fill="none" fill-rule="evenodd">
        <g id="Icon-/-Segment" transform="translate(-12.000000, -6.000000)">
            <g>
                <mask id="mask-2" fill="white">
                    <use xlink:href="#path-segment"></use>
                </mask>
                <use id="Icon---Segment" fill="#242424" fill-rule="nonzero" xlink:href="#path-segment"></use>
            </g>
        </g>
    </g>
</svg>